<?xml version="1.0" encoding="utf-8"?>
<!-- Generator: Adobe Illustrator 21.0.2, SVG Export Plug-In . SVG Version: 6.00 Build 0)  -->
<svg version="1.1" id="Layer_1" xmlns="http://www.w3.org/2000/svg" xmlns:xlink="http://www.w3.org/1999/xlink" x="0px" y="0px"
	 viewBox="0 0 53.6 36.9" style="enable-background:new 0 0 53.6 36.9;" xml:space="preserve">
<style type="text/css">
	.st0{fill:#FFFFFF;}
</style>
<title>automjete_1</title>
<g>
	<path class="st0" d="M18.5,0h17.2c5.6,0,10.1,4.5,10.1,10.1l0,0H8.4C8.4,4.5,12.9,0,18.5,0C18.5,0,18.5,0,18.5,0z"/>
	<path class="st0" d="M8.2,10.1c0.1-1.3-0.8-2.4-2.1-2.6C4.8,7.5,3.7,8.4,3.5,9.7c0,0.1,0,0.2,0,0.2c0,0.1,0,0.1,0,0.2H8.2z"/>
	<path class="st0" d="M50.5,10.1c0.1-1.3-0.8-2.4-2.1-2.6c-1.3-0.1-2.4,0.8-2.6,2.1c0,0.1,0,0.2,0,0.2c0,0.1,0,0.1,0,0.2H50.5z"/>
	<path class="st0" d="M8.4,31.2c0.1,3.2,2.8,5.7,6.1,5.6c3-0.1,5.4-2.5,5.6-5.6H8.4z"/>
	<path class="st0" d="M34,31.2c0.1,3.2,2.8,5.7,6.1,5.6c3-0.1,5.4-2.5,5.6-5.6H34z"/>
	<path class="st0" d="M44.9,12H8.6c0,0,0,0,0,0C3.8,12,0,15.9,0,20.7c0,4.8,3.9,8.6,8.6,8.6h36.3c4.8,0,8.6-3.9,8.6-8.6
		S49.7,12,44.9,12z M9.3,26.6c-3.2,0-5.8-2.6-5.8-5.8S6.1,15,9.3,15c3.2,0,5.8,2.6,5.8,5.8S12.5,26.6,9.3,26.6z M29.8,22.5h-6.4
		c-3.2,0-5.8-2.6-5.8-5.8h18C35.6,19.9,33,22.5,29.8,22.5z M43.9,26.6c-3.2,0-5.8-2.6-5.8-5.8s2.6-5.8,5.8-5.8
		c3.2,0,5.8,2.6,5.8,5.8S47.1,26.6,43.9,26.6z"/>
</g>
</svg>
