<svg xmlns="http://www.w3.org/2000/svg" viewBox="0 0 53.57 36.9"><defs><style>.cls-1{fill:#040a38;}.cls-2{fill:#fff;}</style></defs><title>automjete_1</title><g id="Layer_2" data-name="Layer 2"><g id="Layer_1-2" data-name="Layer 1"><path class="cls-1" d="M8.64,12H44.92a8.64,8.64,0,0,1,8.64,8.64h0a8.64,8.64,0,0,1-8.64,8.64H8.64A8.64,8.64,0,0,1,0,20.68H0A8.64,8.64,0,0,1,8.64,12Z"/><path class="cls-1" d="M18.45,0H35.63A10.07,10.07,0,0,1,45.7,10.07H8.38A10.07,10.07,0,0,1,18.45,0Z"/><circle class="cls-2" cx="9.28" cy="20.79" r="5.82"/><path class="cls-1" d="M8.24,10.14a2.36,2.36,0,1,0-4.71-.19q0,.09,0,.19Z"/><path class="cls-1" d="M50.5,10.14a2.36,2.36,0,1,0-4.71-.19q0,.09,0,.19Z"/><path class="cls-1" d="M8.36,31.23a5.82,5.82,0,0,0,11.63,0Z"/><path class="cls-1" d="M34,31.23a5.82,5.82,0,0,0,11.63,0Z"/><circle class="cls-2" cx="43.91" cy="20.79" r="5.82"/><path class="cls-2" d="M29.8,22.47H23.4a5.81,5.81,0,0,1-5.81-5.81h18A5.81,5.81,0,0,1,29.8,22.47Z"/></g></g></svg>