<svg xmlns="http://www.w3.org/2000/svg" xmlns:xlink="http://www.w3.org/1999/xlink" viewBox="0 0 304.18 455"><defs><style>.cls-1{fill:none;}.cls-2{fill:#070b23;}.cls-3{fill:url(#linear-gradient);}.cls-4{fill:url(#linear-gradient-2);}.cls-5{fill:url(#linear-gradient-3);}.cls-6{fill:url(#linear-gradient-4);}.cls-7{fill:#405ebf;}.cls-8{fill:url(#linear-gradient-5);}.cls-9{fill:url(#linear-gradient-6);}.cls-10{fill:url(#linear-gradient-7);}.cls-11{fill:url(#linear-gradient-8);}.cls-12{fill:url(#linear-gradient-9);}.cls-13{fill:url(#linear-gradient-10);}.cls-14{fill:url(#linear-gradient-11);}.cls-15{fill:url(#linear-gradient-12);}.cls-16{fill:#dbdcdd;}.cls-17{fill:#1631a4;}.cls-18{fill:#ffbc47;}.cls-19{fill:url(#linear-gradient-13);}.cls-20{fill:url(#linear-gradient-14);}.cls-21{fill:url(#linear-gradient-15);}.cls-22{fill:url(#linear-gradient-16);}.cls-23{fill:url(#linear-gradient-17);}.cls-24{fill:url(#linear-gradient-18);}.cls-25{fill:#e3e4e5;}.cls-26{fill:#fff;}.cls-27{fill:#00e29c;}.cls-28{fill:#000289;}.cls-29{fill:#e8e8e8;}.cls-30{fill:#d6d6d8;}.cls-31{fill:#fffdfd;}.cls-32{fill:#112077;}.cls-33{fill:#2f43f7;}.cls-34{fill:url(#linear-gradient-19);}.cls-35{fill:url(#linear-gradient-20);}.cls-36{fill:url(#linear-gradient-21);}.cls-37{fill:url(#linear-gradient-22);}.cls-38{fill:url(#linear-gradient-23);}.cls-39{fill:#192ead;}.cls-40{fill:url(#linear-gradient-24);}.cls-41{fill:url(#linear-gradient-25);}.cls-42{fill:url(#linear-gradient-26);}.cls-43{fill:url(#linear-gradient-27);}.cls-44{fill:#4864d8;}.cls-45{fill:url(#linear-gradient-28);}.cls-46{fill:url(#linear-gradient-29);}.cls-47{fill:#1d1d6d;}.cls-48{fill:url(#linear-gradient-30);}.cls-49{fill:url(#linear-gradient-31);}.cls-50{fill:url(#linear-gradient-32);}.cls-51{fill:url(#linear-gradient-33);}.cls-52{fill:url(#linear-gradient-34);}.cls-53{fill:url(#linear-gradient-35);}.cls-54{fill:url(#linear-gradient-36);}.cls-55{fill:url(#linear-gradient-37);}.cls-56{fill:url(#linear-gradient-38);}.cls-57{fill:#1f1f84;}.cls-58{fill:url(#linear-gradient-39);}.cls-59{fill:url(#linear-gradient-40);}.cls-60{fill:url(#linear-gradient-41);}.cls-61{fill:url(#linear-gradient-42);}.cls-62{fill:url(#linear-gradient-43);}.cls-63{fill:url(#linear-gradient-44);}.cls-64{fill:url(#linear-gradient-45);}.cls-65{fill:url(#linear-gradient-46);}.cls-66{fill:url(#linear-gradient-47);}.cls-67{fill:url(#linear-gradient-48);}.cls-68{fill:url(#linear-gradient-49);}.cls-69{fill:url(#linear-gradient-50);}.cls-70{fill:url(#linear-gradient-51);}.cls-71{fill:url(#linear-gradient-52);}.cls-72{fill:url(#linear-gradient-53);}.cls-73{fill:url(#linear-gradient-54);}.cls-74{fill:url(#linear-gradient-55);}.cls-75{fill:url(#linear-gradient-56);}.cls-76{fill:url(#linear-gradient-57);}.cls-77{fill:url(#linear-gradient-58);}.cls-78{fill:url(#linear-gradient-59);}.cls-79{fill:url(#linear-gradient-60);}.cls-80{fill:url(#linear-gradient-61);}.cls-81{fill:url(#linear-gradient-62);}.cls-82{fill:url(#linear-gradient-63);}.cls-83{fill:url(#linear-gradient-64);}.cls-84{fill:url(#linear-gradient-65);}.cls-85{fill:url(#linear-gradient-66);}.cls-86{fill:url(#linear-gradient-67);}.cls-87{fill:url(#linear-gradient-68);}.cls-88{fill:url(#linear-gradient-69);}.cls-89{fill:url(#linear-gradient-70);}.cls-90{fill:url(#linear-gradient-71);}.cls-91{fill:url(#linear-gradient-72);}.cls-92{fill:url(#linear-gradient-73);}.cls-93{fill:url(#linear-gradient-74);}.cls-94{fill:url(#linear-gradient-75);}.cls-95{fill:#eff4f4;}.cls-96{fill:#dbe1e3;}.cls-97{fill:url(#linear-gradient-76);}.cls-98{fill:url(#linear-gradient-77);}.cls-99{fill:url(#linear-gradient-78);}.cls-100{fill:url(#linear-gradient-79);}.cls-101{fill:url(#linear-gradient-80);}.cls-102{fill:url(#linear-gradient-81);}.cls-103{fill:url(#linear-gradient-82);}.cls-104{fill:url(#linear-gradient-83);}.cls-105{fill:url(#linear-gradient-84);}.cls-106{fill:url(#linear-gradient-85);}.cls-107{fill:url(#linear-gradient-86);}.cls-108{fill:url(#linear-gradient-87);}.cls-109{fill:url(#linear-gradient-88);}.cls-110{fill:url(#linear-gradient-89);}.cls-111{fill:url(#linear-gradient-90);}.cls-112{fill:url(#linear-gradient-91);}.cls-113{fill:url(#linear-gradient-92);}.cls-114{fill:url(#linear-gradient-93);}.cls-115{fill:url(#linear-gradient-94);}.cls-116{fill:url(#linear-gradient-95);}.cls-117{fill:url(#linear-gradient-96);}.cls-118{fill:url(#linear-gradient-97);}.cls-119{fill:url(#linear-gradient-98);}.cls-120{fill:url(#linear-gradient-99);}.cls-121{fill:url(#linear-gradient-100);}.cls-122{fill:url(#linear-gradient-101);}.cls-123{fill:url(#linear-gradient-102);}.cls-124{fill:url(#linear-gradient-103);}.cls-125{fill:url(#linear-gradient-104);}.cls-126{fill:#3c59b5;}.cls-127{fill:#6081f7;}.cls-128{fill:url(#linear-gradient-105);}.cls-129{fill:url(#linear-gradient-106);}.cls-130{fill:url(#linear-gradient-107);}.cls-131{fill:url(#linear-gradient-108);}.cls-132{fill:url(#linear-gradient-109);}.cls-133{fill:url(#linear-gradient-110);}.cls-134{fill:url(#linear-gradient-111);}.cls-135{fill:url(#linear-gradient-112);}.cls-136{fill:url(#linear-gradient-113);}.cls-137{fill:url(#linear-gradient-114);}.cls-138{fill:url(#linear-gradient-115);}.cls-139{fill:url(#linear-gradient-116);}.cls-140{fill:url(#linear-gradient-117);}.cls-141{fill:url(#linear-gradient-118);}.cls-142{fill:url(#linear-gradient-119);}.cls-143{fill:url(#linear-gradient-120);}.cls-144{fill:url(#linear-gradient-121);}.cls-145{fill:url(#linear-gradient-122);}.cls-146{fill:url(#linear-gradient-123);}.cls-147{fill:url(#linear-gradient-124);}.cls-148{fill:url(#linear-gradient-125);}.cls-149{fill:url(#linear-gradient-126);}.cls-150{fill:url(#linear-gradient-127);}.cls-151{fill:url(#linear-gradient-128);}.cls-152{fill:url(#linear-gradient-129);}.cls-153{fill:url(#linear-gradient-130);}.cls-154{fill:url(#linear-gradient-131);}.cls-155{fill:url(#linear-gradient-132);}.cls-156{fill:url(#linear-gradient-133);}.cls-157{fill:url(#linear-gradient-134);}.cls-158{fill:url(#linear-gradient-135);}.cls-159{fill:url(#linear-gradient-136);}.cls-160{fill:url(#linear-gradient-137);}.cls-161{fill:url(#linear-gradient-138);}.cls-162{fill:url(#linear-gradient-139);}.cls-163{fill:url(#linear-gradient-140);}</style><linearGradient id="linear-gradient" x1="528.21" y1="404.05" x2="565.88" y2="377.68" gradientTransform="translate(-280.77 -193.74)" gradientUnits="userSpaceOnUse"><stop offset="0" stop-color="#546aea"/><stop offset="1" stop-color="#658bfd"/></linearGradient><linearGradient id="linear-gradient-2" x1="585.74" y1="388.11" x2="572.67" y2="371.65" gradientTransform="translate(-280.77 -193.74)" gradientUnits="userSpaceOnUse"><stop offset="0" stop-color="#8daeff"/><stop offset="1" stop-color="#8daeff" stop-opacity="0"/></linearGradient><linearGradient id="linear-gradient-3" x1="527.79" y1="403.45" x2="565.46" y2="377.08" xlink:href="#linear-gradient"/><linearGradient id="linear-gradient-4" x1="562.69" y1="406.42" x2="549.62" y2="389.96" xlink:href="#linear-gradient-2"/><linearGradient id="linear-gradient-5" x1="561.08" y1="407.7" x2="548.01" y2="391.24" xlink:href="#linear-gradient-2"/><linearGradient id="linear-gradient-6" x1="533.07" y1="379.84" x2="538.88" y2="338.82" gradientTransform="translate(-280.77 -193.74)" gradientUnits="userSpaceOnUse"><stop offset="0" stop-color="#566dec"/><stop offset="1" stop-color="#658bfd"/></linearGradient><linearGradient id="linear-gradient-7" x1="552.58" y1="368.16" x2="536.35" y2="357.21" xlink:href="#linear-gradient-2"/><linearGradient id="linear-gradient-8" x1="519.8" y1="392.03" x2="557.47" y2="365.66" xlink:href="#linear-gradient"/><linearGradient id="linear-gradient-9" x1="557.61" y1="410.45" x2="544.54" y2="393.99" xlink:href="#linear-gradient-2"/><linearGradient id="linear-gradient-10" x1="535.08" y1="380.12" x2="540.89" y2="339.1" xlink:href="#linear-gradient-6"/><linearGradient id="linear-gradient-11" x1="540.61" y1="385.89" x2="524.38" y2="374.94" xlink:href="#linear-gradient-2"/><linearGradient id="linear-gradient-12" x1="551.13" y1="370.31" x2="534.9" y2="359.36" xlink:href="#linear-gradient-2"/><linearGradient id="linear-gradient-13" x1="1392.22" y1="441.47" x2="1393.72" y2="489.35" gradientTransform="matrix(-1, 0, 0, 1, 1449.54, -193.74)" gradientUnits="userSpaceOnUse"><stop offset="0" stop-color="#a6aeb2"/><stop offset="1" stop-color="#dbdcdd"/></linearGradient><linearGradient id="linear-gradient-14" x1="1335.89" y1="443.23" x2="1337.39" y2="491.11" xlink:href="#linear-gradient-13"/><linearGradient id="linear-gradient-15" x1="1309.32" y1="444.06" x2="1310.82" y2="491.94" xlink:href="#linear-gradient-13"/><linearGradient id="linear-gradient-16" x1="1395.95" y1="441.35" x2="1397.45" y2="489.23" xlink:href="#linear-gradient-13"/><linearGradient id="linear-gradient-17" x1="1331.95" y1="443.36" x2="1333.45" y2="491.24" xlink:href="#linear-gradient-13"/><linearGradient id="linear-gradient-18" x1="1337.08" y1="443.2" x2="1338.58" y2="491.08" xlink:href="#linear-gradient-13"/><linearGradient id="linear-gradient-19" x1="1239.63" y1="460.81" x2="1215.33" y2="602.65" gradientTransform="matrix(-1, 0, 0, 1, 1449.54, -193.74)" gradientUnits="userSpaceOnUse"><stop offset="0" stop-color="#242463"/><stop offset="1" stop-color="#242463" stop-opacity="0"/></linearGradient><linearGradient id="linear-gradient-20" x1="1238.5" y1="460.62" x2="1214.2" y2="602.46" xlink:href="#linear-gradient-19"/><linearGradient id="linear-gradient-21" x1="1236.74" y1="460.31" x2="1212.44" y2="602.15" xlink:href="#linear-gradient-19"/><linearGradient id="linear-gradient-22" x1="1237.41" y1="460.43" x2="1213.11" y2="602.27" xlink:href="#linear-gradient-19"/><linearGradient id="linear-gradient-23" x1="1263.51" y1="451.28" x2="1237.66" y2="602.14" xlink:href="#linear-gradient-19"/><linearGradient id="linear-gradient-24" x1="1224.99" y1="396.09" x2="1240.35" y2="396.09" gradientTransform="matrix(-1, 0, 0, 1, 1449.54, -193.74)" xlink:href="#linear-gradient"/><linearGradient id="linear-gradient-25" x1="1224.99" y1="392.47" x2="1240.35" y2="392.47" gradientTransform="matrix(-1, 0, 0, 1, 1449.54, -193.74)" xlink:href="#linear-gradient"/><linearGradient id="linear-gradient-26" x1="1224.99" y1="384.97" x2="1240.35" y2="384.97" gradientTransform="matrix(-1, 0, 0, 1, 1449.54, -193.74)" xlink:href="#linear-gradient"/><linearGradient id="linear-gradient-27" x1="1224.99" y1="380.98" x2="1240.35" y2="380.98" gradientTransform="matrix(-1, 0, 0, 1, 1449.54, -193.74)" xlink:href="#linear-gradient"/><linearGradient id="linear-gradient-28" x1="1257.4" y1="412.01" x2="1273.15" y2="394.1" gradientTransform="matrix(-1, 0, 0, 1, 1449.54, -193.74)" xlink:href="#linear-gradient"/><linearGradient id="linear-gradient-29" x1="1256.1" y1="410.87" x2="1271.85" y2="392.96" gradientTransform="matrix(-1, 0, 0, 1, 1449.54, -193.74)" xlink:href="#linear-gradient"/><linearGradient id="linear-gradient-30" x1="1222.77" y1="400.52" x2="1239.04" y2="400.52" gradientTransform="matrix(-1, 0, 0, 1, 1449.54, -193.74)" gradientUnits="userSpaceOnUse"><stop offset="0" stop-color="#e1e1e1"/><stop offset="1" stop-color="#fff"/></linearGradient><linearGradient id="linear-gradient-31" x1="1222.77" y1="398.93" x2="1239.04" y2="398.93" xlink:href="#linear-gradient-30"/><linearGradient id="linear-gradient-32" x1="1224.99" y1="399.17" x2="1240.35" y2="399.17" gradientTransform="matrix(-1, 0, 0, 1, 1449.54, -193.74)" xlink:href="#linear-gradient"/><linearGradient id="linear-gradient-33" x1="1222.77" y1="399.17" x2="1239.04" y2="399.17" xlink:href="#linear-gradient-30"/><linearGradient id="linear-gradient-34" x1="1224.99" y1="398.4" x2="1240.35" y2="398.4" gradientTransform="matrix(-1, 0, 0, 1, 1449.54, -193.74)" xlink:href="#linear-gradient"/><linearGradient id="linear-gradient-35" x1="1222.77" y1="398.4" x2="1239.04" y2="398.4" xlink:href="#linear-gradient-30"/><linearGradient id="linear-gradient-36" x1="1224.99" y1="398.13" x2="1240.35" y2="398.13" gradientTransform="matrix(-1, 0, 0, 1, 1449.54, -193.74)" xlink:href="#linear-gradient"/><linearGradient id="linear-gradient-37" x1="1222.77" y1="398.13" x2="1239.04" y2="398.13" xlink:href="#linear-gradient-30"/><linearGradient id="linear-gradient-38" x1="1222.77" y1="397.79" x2="1239.04" y2="397.79" xlink:href="#linear-gradient-30"/><linearGradient id="linear-gradient-39" x1="1273.88" y1="418.26" x2="1278.76" y2="385.53" gradientTransform="matrix(-1, 0, 0, 1, 1449.54, -193.74)" xlink:href="#linear-gradient"/><linearGradient id="linear-gradient-40" x1="1275.2" y1="418.46" x2="1280.08" y2="385.73" gradientTransform="matrix(-1, 0, 0, 1, 1449.54, -193.74)" xlink:href="#linear-gradient"/><linearGradient id="linear-gradient-41" x1="1267.63" y1="417.33" x2="1272.51" y2="384.6" gradientTransform="matrix(-1, 0, 0, 1, 1449.54, -193.74)" xlink:href="#linear-gradient"/><linearGradient id="linear-gradient-42" x1="1271.57" y1="417.92" x2="1276.45" y2="385.19" gradientTransform="matrix(-1, 0, 0, 1, 1449.54, -193.74)" xlink:href="#linear-gradient"/><linearGradient id="linear-gradient-43" x1="1220.26" y1="472.08" x2="1227.84" y2="394.03" xlink:href="#linear-gradient-30"/><linearGradient id="linear-gradient-44" x1="1217.57" y1="471.81" x2="1225.16" y2="393.76" xlink:href="#linear-gradient-30"/><linearGradient id="linear-gradient-45" x1="1253.41" y1="475.3" x2="1261" y2="397.25" xlink:href="#linear-gradient-30"/><linearGradient id="linear-gradient-46" x1="1206.44" y1="470.73" x2="1214.03" y2="392.68" xlink:href="#linear-gradient-30"/><linearGradient id="linear-gradient-47" x1="1215.46" y1="471.61" x2="1223.05" y2="393.56" xlink:href="#linear-gradient-30"/><linearGradient id="linear-gradient-48" x1="1211.67" y1="471.24" x2="1219.26" y2="393.19" xlink:href="#linear-gradient-30"/><linearGradient id="linear-gradient-49" x1="1266.74" y1="476.6" x2="1274.33" y2="398.55" xlink:href="#linear-gradient-30"/><linearGradient id="linear-gradient-50" x1="1250.94" y1="475.06" x2="1258.53" y2="397.01" xlink:href="#linear-gradient-30"/><linearGradient id="linear-gradient-51" x1="1251.71" y1="475.13" x2="1259.3" y2="397.08" xlink:href="#linear-gradient-30"/><linearGradient id="linear-gradient-52" x1="1246.72" y1="474.65" x2="1254.31" y2="396.6" xlink:href="#linear-gradient-30"/><linearGradient id="linear-gradient-53" x1="1267.13" y1="476.63" x2="1274.72" y2="398.58" xlink:href="#linear-gradient-30"/><linearGradient id="linear-gradient-54" x1="1234.52" y1="473.46" x2="1242.11" y2="395.41" xlink:href="#linear-gradient-30"/><linearGradient id="linear-gradient-55" x1="1256.34" y1="450.05" x2="1230.49" y2="600.91" xlink:href="#linear-gradient-19"/><linearGradient id="linear-gradient-56" x1="1253.38" y1="475.3" x2="1260.97" y2="397.25" xlink:href="#linear-gradient-30"/><linearGradient id="linear-gradient-57" x1="1256.25" y1="450.04" x2="1230.4" y2="600.9" xlink:href="#linear-gradient-19"/><linearGradient id="linear-gradient-58" x1="1253.25" y1="475.28" x2="1260.84" y2="397.23" xlink:href="#linear-gradient-30"/><linearGradient id="linear-gradient-59" x1="1257.97" y1="412.52" x2="1273.72" y2="394.61" gradientTransform="matrix(-1, 0, 0, 1, 1449.54, -193.74)" xlink:href="#linear-gradient"/><linearGradient id="linear-gradient-60" x1="1253.35" y1="475.29" x2="1260.94" y2="397.24" xlink:href="#linear-gradient-30"/><linearGradient id="linear-gradient-61" x1="1260.13" y1="475.95" x2="1267.72" y2="397.9" xlink:href="#linear-gradient-30"/><linearGradient id="linear-gradient-62" x1="1255.67" y1="475.52" x2="1263.26" y2="397.47" xlink:href="#linear-gradient-30"/><linearGradient id="linear-gradient-63" x1="1245.5" y1="440.01" x2="1271.58" y2="405.79" gradientTransform="matrix(-1, 0, 0, 1, 1449.54, -193.74)" gradientUnits="userSpaceOnUse"><stop offset="0" stop-color="#bccace"/><stop offset="1" stop-color="#bccace" stop-opacity="0"/></linearGradient><linearGradient id="linear-gradient-64" x1="1255.61" y1="447.72" x2="1281.69" y2="413.5" xlink:href="#linear-gradient-63"/><linearGradient id="linear-gradient-65" x1="1250.47" y1="443.8" x2="1276.55" y2="409.58" xlink:href="#linear-gradient-63"/><linearGradient id="linear-gradient-66" x1="1251.86" y1="475.15" x2="1259.44" y2="397.1" xlink:href="#linear-gradient-30"/><linearGradient id="linear-gradient-67" x1="1242.2" y1="437.5" x2="1268.28" y2="403.28" xlink:href="#linear-gradient-63"/><linearGradient id="linear-gradient-68" x1="1263.81" y1="476.31" x2="1271.4" y2="398.26" xlink:href="#linear-gradient-30"/><linearGradient id="linear-gradient-69" x1="1253.85" y1="446.38" x2="1279.93" y2="412.16" xlink:href="#linear-gradient-63"/><linearGradient id="linear-gradient-70" x1="1265.69" y1="476.49" x2="1273.28" y2="398.44" xlink:href="#linear-gradient-30"/><linearGradient id="linear-gradient-71" x1="1255.55" y1="447.67" x2="1281.63" y2="413.45" xlink:href="#linear-gradient-63"/><linearGradient id="linear-gradient-72" x1="1258.91" y1="475.83" x2="1266.5" y2="397.78" xlink:href="#linear-gradient-30"/><linearGradient id="linear-gradient-73" x1="1249.9" y1="443.36" x2="1275.98" y2="409.14" xlink:href="#linear-gradient-63"/><linearGradient id="linear-gradient-74" x1="1214.52" y1="471.52" x2="1222.11" y2="393.47" xlink:href="#linear-gradient-30"/><linearGradient id="linear-gradient-75" x1="1229.07" y1="426.45" x2="1193.74" y2="428.35" xlink:href="#linear-gradient-63"/><linearGradient id="linear-gradient-76" x1="1342.87" y1="387.44" x2="1278.64" y2="304.73" gradientTransform="matrix(-1, 0, 0, 1, 1449.54, -193.74)" gradientUnits="userSpaceOnUse"><stop offset="0" stop-color="#fff"/><stop offset="1" stop-color="#fff" stop-opacity="0"/></linearGradient><linearGradient id="linear-gradient-77" x1="1365.35" y1="370.49" x2="1299.78" y2="286.06" xlink:href="#linear-gradient-76"/><linearGradient id="linear-gradient-78" x1="1341.31" y1="389.16" x2="1275.74" y2="304.73" xlink:href="#linear-gradient-76"/><linearGradient id="linear-gradient-79" x1="1315.96" y1="408.86" x2="1250.39" y2="324.43" xlink:href="#linear-gradient-76"/><linearGradient id="linear-gradient-80" x1="1260.22" y1="466.61" x2="1251.03" y2="382.22" gradientTransform="matrix(-1, 0, 0, 1, 1449.54, -193.74)" gradientUnits="userSpaceOnUse"><stop offset="0" stop-color="#00abc5"/><stop offset="1" stop-color="#fe931e" stop-opacity="0"/></linearGradient><linearGradient id="linear-gradient-81" x1="1260.57" y1="466.57" x2="1251.38" y2="382.18" xlink:href="#linear-gradient-80"/><linearGradient id="linear-gradient-82" x1="1260.41" y1="466.59" x2="1251.22" y2="382.2" xlink:href="#linear-gradient-80"/><linearGradient id="linear-gradient-83" x1="1259.73" y1="466.66" x2="1250.54" y2="382.27" xlink:href="#linear-gradient-80"/><linearGradient id="linear-gradient-84" x1="1253.14" y1="475.27" x2="1260.73" y2="397.22" xlink:href="#linear-gradient-30"/><linearGradient id="linear-gradient-85" x1="1256.38" y1="467.03" x2="1247.19" y2="382.64" xlink:href="#linear-gradient-80"/><linearGradient id="linear-gradient-86" x1="1250.98" y1="475.06" x2="1258.57" y2="397.01" xlink:href="#linear-gradient-30"/><linearGradient id="linear-gradient-87" x1="1260.56" y1="466.57" x2="1251.37" y2="382.18" xlink:href="#linear-gradient-80"/><linearGradient id="linear-gradient-88" x1="1252.71" y1="475.23" x2="1260.3" y2="397.18" xlink:href="#linear-gradient-30"/><linearGradient id="linear-gradient-89" x1="1260.2" y1="466.61" x2="1251.01" y2="382.22" xlink:href="#linear-gradient-80"/><linearGradient id="linear-gradient-90" x1="1252.06" y1="475.17" x2="1259.65" y2="397.12" xlink:href="#linear-gradient-30"/><linearGradient id="linear-gradient-91" x1="1260.4" y1="466.59" x2="1251.21" y2="382.2" xlink:href="#linear-gradient-80"/><linearGradient id="linear-gradient-92" x1="1254.38" y1="475.39" x2="1261.97" y2="397.34" xlink:href="#linear-gradient-30"/><linearGradient id="linear-gradient-93" x1="1259.2" y1="466.72" x2="1250.01" y2="382.33" xlink:href="#linear-gradient-80"/><linearGradient id="linear-gradient-94" x1="1249.65" y1="474.93" x2="1257.24" y2="396.88" xlink:href="#linear-gradient-30"/><linearGradient id="linear-gradient-95" x1="1240.99" y1="436.58" x2="1267.07" y2="402.36" xlink:href="#linear-gradient-63"/><linearGradient id="linear-gradient-96" x1="1260.49" y1="466.58" x2="1251.3" y2="382.19" xlink:href="#linear-gradient-80"/><linearGradient id="linear-gradient-97" x1="1257.55" y1="466.9" x2="1248.36" y2="382.51" xlink:href="#linear-gradient-80"/><linearGradient id="linear-gradient-98" x1="7.4" y1="623.02" x2="14.67" y2="623.02" gradientTransform="translate(71.51 -193.74)" xlink:href="#linear-gradient"/><linearGradient id="linear-gradient-99" x1="7.4" y1="625.29" x2="14.67" y2="625.29" gradientTransform="translate(71.51 -193.74)" xlink:href="#linear-gradient"/><linearGradient id="linear-gradient-100" x1="7.4" y1="623.85" x2="14.67" y2="623.85" gradientTransform="translate(71.51 -193.74)" xlink:href="#linear-gradient"/><linearGradient id="linear-gradient-101" x1="7.4" y1="625.66" x2="14.67" y2="625.66" gradientTransform="translate(71.51 -193.74)" xlink:href="#linear-gradient"/><linearGradient id="linear-gradient-102" x1="-15.91" y1="623.98" x2="-8.64" y2="623.98" gradientTransform="translate(71.51 -193.74)" xlink:href="#linear-gradient"/><linearGradient id="linear-gradient-103" x1="-15.91" y1="625.68" x2="-8.64" y2="625.68" gradientTransform="translate(71.51 -193.74)" xlink:href="#linear-gradient"/><linearGradient id="linear-gradient-104" x1="-15.91" y1="623.9" x2="-8.64" y2="623.9" gradientTransform="translate(71.51 -193.74)" xlink:href="#linear-gradient"/><linearGradient id="linear-gradient-105" x1="11.75" y1="425.16" x2="20.92" y2="425.16" gradientTransform="translate(71.51 -193.74)" xlink:href="#linear-gradient"/><linearGradient id="linear-gradient-106" x1="11.75" y1="429.25" x2="20.92" y2="429.25" gradientTransform="translate(71.51 -193.74)" xlink:href="#linear-gradient"/><linearGradient id="linear-gradient-107" x1="11.75" y1="420.77" x2="20.92" y2="420.77" gradientTransform="translate(71.51 -193.74)" xlink:href="#linear-gradient"/><linearGradient id="linear-gradient-108" x1="11.75" y1="427.84" x2="20.92" y2="427.84" gradientTransform="translate(71.51 -193.74)" xlink:href="#linear-gradient"/><linearGradient id="linear-gradient-109" x1="-7.18" y1="417.99" x2="12.89" y2="417.99" gradientTransform="translate(71.51 -193.74)" xlink:href="#linear-gradient"/><linearGradient id="linear-gradient-110" x1="-7.18" y1="425.18" x2="12.89" y2="425.18" gradientTransform="translate(71.51 -193.74)" xlink:href="#linear-gradient"/><linearGradient id="linear-gradient-111" x1="33.38" y1="458.35" x2="45.37" y2="428.52" gradientTransform="translate(71.51 -193.74)" xlink:href="#linear-gradient"/><linearGradient id="linear-gradient-112" x1="32.56" y1="458.01" x2="44.55" y2="428.18" gradientTransform="translate(71.51 -193.74)" xlink:href="#linear-gradient"/><linearGradient id="linear-gradient-113" x1="28.44" y1="456.36" x2="40.43" y2="426.53" gradientTransform="translate(71.51 -193.74)" xlink:href="#linear-gradient"/><linearGradient id="linear-gradient-114" x1="31.29" y1="457.51" x2="43.28" y2="427.68" gradientTransform="translate(71.51 -193.74)" xlink:href="#linear-gradient"/><linearGradient id="linear-gradient-115" x1="29.73" y1="456.88" x2="41.72" y2="427.05" gradientTransform="translate(71.51 -193.74)" xlink:href="#linear-gradient"/><linearGradient id="linear-gradient-116" x1="28.41" y1="456.35" x2="40.4" y2="426.52" gradientTransform="translate(71.51 -193.74)" xlink:href="#linear-gradient"/><linearGradient id="linear-gradient-117" x1="24.25" y1="454.68" x2="36.24" y2="424.85" gradientTransform="translate(71.51 -193.74)" xlink:href="#linear-gradient"/><linearGradient id="linear-gradient-118" x1="23.83" y1="454.5" x2="35.82" y2="424.67" gradientTransform="translate(71.51 -193.74)" xlink:href="#linear-gradient"/><linearGradient id="linear-gradient-119" x1="29.21" y1="447.04" x2="30.11" y2="447.04" gradientTransform="translate(71.51 -193.74)" gradientUnits="userSpaceOnUse"><stop offset="0" stop-color="#f4ba38"/><stop offset="1" stop-color="#ffd349"/></linearGradient><linearGradient id="linear-gradient-120" x1="25.77" y1="424.77" x2="40.56" y2="499.23" gradientTransform="translate(71.51 -193.74)" xlink:href="#linear-gradient-80"/><linearGradient id="linear-gradient-121" x1="26.26" y1="424.68" x2="41.05" y2="499.14" gradientTransform="translate(71.51 -193.74)" xlink:href="#linear-gradient-80"/><linearGradient id="linear-gradient-122" x1="26.59" y1="424.61" x2="41.38" y2="499.07" gradientTransform="translate(71.51 -193.74)" xlink:href="#linear-gradient-80"/><linearGradient id="linear-gradient-123" x1="26.57" y1="424.61" x2="41.36" y2="499.07" gradientTransform="translate(71.51 -193.74)" xlink:href="#linear-gradient-80"/><linearGradient id="linear-gradient-124" x1="26.15" y1="424.7" x2="40.94" y2="499.16" gradientTransform="translate(71.51 -193.74)" xlink:href="#linear-gradient-80"/><linearGradient id="linear-gradient-125" x1="40.35" y1="503.76" x2="0.57" y2="408.39" gradientTransform="translate(71.51 -193.74)" xlink:href="#linear-gradient-80"/><linearGradient id="linear-gradient-126" x1="1347.08" y1="442.88" x2="1348.58" y2="490.76" xlink:href="#linear-gradient-13"/><linearGradient id="linear-gradient-127" x1="42.7" y1="502.78" x2="2.92" y2="407.41" gradientTransform="translate(71.51 -193.74)" xlink:href="#linear-gradient-80"/><linearGradient id="linear-gradient-128" x1="1344.91" y1="442.95" x2="1346.41" y2="490.83" xlink:href="#linear-gradient-13"/><linearGradient id="linear-gradient-129" x1="44.58" y1="501.99" x2="4.8" y2="406.62" gradientTransform="translate(71.51 -193.74)" xlink:href="#linear-gradient-80"/><linearGradient id="linear-gradient-130" x1="1350.2" y1="442.78" x2="1351.7" y2="490.66" xlink:href="#linear-gradient-13"/><linearGradient id="linear-gradient-131" x1="41.19" y1="503.41" x2="1.41" y2="408.04" gradientTransform="translate(71.51 -193.74)" xlink:href="#linear-gradient-80"/><linearGradient id="linear-gradient-132" x1="1348.22" y1="442.85" x2="1349.72" y2="490.73" xlink:href="#linear-gradient-13"/><linearGradient id="linear-gradient-133" x1="42.09" y1="503.03" x2="2.31" y2="407.66" gradientTransform="translate(71.51 -193.74)" xlink:href="#linear-gradient-80"/><linearGradient id="linear-gradient-134" x1="1351.31" y1="442.75" x2="1352.81" y2="490.63" xlink:href="#linear-gradient-13"/><linearGradient id="linear-gradient-135" x1="40.81" y1="503.57" x2="1.03" y2="408.2" gradientTransform="translate(71.51 -193.74)" xlink:href="#linear-gradient-80"/><linearGradient id="linear-gradient-136" x1="22.66" y1="511.14" x2="-17.12" y2="415.77" gradientTransform="translate(71.51 -193.74)" xlink:href="#linear-gradient-80"/><linearGradient id="linear-gradient-137" x1="32.2" y1="507.16" x2="-7.58" y2="411.79" gradientTransform="translate(71.51 -193.74)" xlink:href="#linear-gradient-80"/><linearGradient id="linear-gradient-138" x1="-15.27" y1="492.24" x2="-9.66" y2="405.02" gradientTransform="translate(71.51 -193.74)" xlink:href="#linear-gradient-80"/><linearGradient id="linear-gradient-139" x1="-15.21" y1="492.25" x2="-9.6" y2="405.03" gradientTransform="translate(71.51 -193.74)" xlink:href="#linear-gradient-80"/><linearGradient id="linear-gradient-140" x1="-17.26" y1="492.12" x2="-11.65" y2="404.9" gradientTransform="translate(71.51 -193.74)" xlink:href="#linear-gradient-80"/></defs><title>avatar-3</title><g id="Layer_2" data-name="Layer 2"><g id="Layer_1-2" data-name="Layer 1"><path class="cls-1" d="M0,0V62.22H21C51,29.06,65.33,15.87,82.09,6,106.72-8.48,133.16,10.16,147,38.72c4.08,8.46,7.44,16.56,11.61,23.5h72.63A17.07,17.07,0,0,1,247.1,73.15h0c0,.1.06.2.1.3.13.36.26.72.37,1.1,0,.13.07.27.1.41.1.39.2.77.27,1.17,0,.11,0,.22.05.33a17.14,17.14,0,0,1,.22,2.25c37.72,1.8,54.24,28.91,51.44,69-.61,8.73-3,19.2-7.44,30.43.68,0,1.34.08,2,.14A9.37,9.37,0,0,0,291.5,180c-8,19.45-22,41-43.24,59.92v27.7a5.39,5.39,0,0,1-5.39,5.39h-12L232,294.58c4.36,31.54,7.42,60.83,8,85.54q.07,2.09.07,4.09H240a21.57,21.57,0,0,1,.66,2.07c10.27,7,36.3,27.17,10.13,34.11-31.94,8.47-39.21-12.83-54.94-16.22-6.86-1.48-9.78-5.51-10.86-9.58a.89.89,0,0,1-.1-.4h0a9.94,9.94,0,0,1,.63-6.11c-.76-2.25.08-2.74,1.8-2.76a9.94,9.94,0,0,1,5.25-3c1.9-.42,3.7-.78,5.44-1.1l-.06-1.09c-2.3-39.67-5.77-75-6.43-105.8a234.71,234.71,0,0,1-63.91,14.73l1.76,7.71.57.26c13.85.63,41.24,2.3,43.4,5.69,2.9,4.55-28.56,5.08-31.22,14.76-2.39,8.68-8.48,14.66-50.1,15.64l-6,94.65h0s.07.82.18,1.83a.43.43,0,0,1,.46.52c0,.06,0,.13,0,.19a160,160,0,0,1,20.12.73s16.22,3.63,15.25,10.89-26.62,1.94-33.16,8.23S44,455.48,49.36,443.87A15.38,15.38,0,0,1,55,437.65a55.55,55.55,0,0,1,.58-6.75l0,.05c.09-.82.16-2.08.27-3.09h0s-6.66-31.46-3.74-47.46,2.59-32.8,1.53-43.83c-.11-1.18-.24-2.44-.35-3.76-31.4-1.35-27-5.77-18.93-14.26,9.66-10.16-6.29-9.68-1.94-16.22,1.55-2.34,10.9-3.84,23.17-4.77l.31-.13.84-7.37.28-2.5h0c-.14,1.35-.25,2.24-.28,2.46l.27-2.46-.27,0a4.88,4.88,0,0,1-3,1.73,9.8,9.8,0,0,1-3.24.1c-.86-.1-1.52-1.23-2-3A264.31,264.31,0,0,1,0,274.15V455H304.18V0Z"/><path class="cls-1" d="M62.72,427.77a16.17,16.17,0,0,0,.13,1.84.42.42,0,0,1,.45.51,6.55,6.55,0,0,0,.21,3.49.34.34,0,0,0,.09.1,74.66,74.66,0,0,1,15.33-2.92c0-1,.08-2,.19-3h0s-7.29-30-5.41-45c1.76-14.08.76-22.64-1.6-38.78l-9.44,83.78Z"/><path class="cls-1" d="M61.09,430.73a7.16,7.16,0,0,0-.91.79A10.42,10.42,0,0,1,61.09,430.73Z"/><path class="cls-1" d="M230.47,380.68l-.11-.54-18.64-95.83,0-.19-.12-.61-.9,12.39-2.28,31.51-.86,52.36C218.78,378.52,226,379.42,230.47,380.68Z"/><path class="cls-2" d="M138,300.7a.73.73,0,0,1,.58.29l.16.08h-.11a.72.72,0,0,1,.11.37v0a.74.74,0,0,1-.74.74H94l-.05.64-.41.21.42.2L92,333.12c41.62-1,47.71-7,50.1-15.64,2.66-9.68,34.12-10.21,31.22-14.76-2.16-3.39-29.55-5.06-43.4-5.69l8,3.67Z"/><path class="cls-2" d="M55,307.67l-.28-.06.62-5.42H47.79a.74.74,0,0,1-.74-.74v0a.74.74,0,0,1,.74-.74H48l7.57-3.14c-12.27.93-21.61,2.43-23.17,4.77-4.35,6.54,11.6,6.06,1.94,16.22-8.07,8.49-12.47,12.91,18.93,14.26C52.69,325.63,52.36,316.56,55,307.67Z"/><path class="cls-2" d="M86.84,433.61c.42.83,11.45,3.12,12.49,2.92s3.11,3.12-5.42,3.12H78.72c-.65,0-.36-4.64.2-8.69,0-.06,0-.12,0-.18A74.66,74.66,0,0,0,63.6,433.7c1.12.9,11.4,3,12.4,2.82s3.13,3.12-5.41,3.12H55.39c-.27,0-.37-.79-.37-2a15.38,15.38,0,0,0-5.66,6.22c-5.32,11.61,32.91,12.58,39.45,6.29s32.19-1,33.16-8.23S106.72,431,106.72,431a160,160,0,0,0-20.12-.73A6.55,6.55,0,0,0,86.84,433.61Z"/><path class="cls-2" d="M83,432.07a5.31,5.31,0,0,0,.54-.55,10.45,10.45,0,0,1,1-.89,7.17,7.17,0,0,0-1,.89C83.32,431.71,83.15,431.9,83,432.07Z"/><path class="cls-2" d="M198.31,384.21h-.13c-.06-1-.12-2-.18-3-1.75.32-3.55.68-5.44,1.1a9.94,9.94,0,0,0-5.25,3C189.84,385.29,194.27,386.29,198.31,384.21Z"/><path class="cls-2" d="M231.82,391.95c-3.3-1-11.14-1.51-11.53-3.79-1.65-9.63,3.8-.33,10.83-4.11l-.66-3.36c-4.47-1.26-11.69-2.16-22.89-.92v.35l-.07,4.09h-.06a21.57,21.57,0,0,1,1.4,8.12,19.66,19.66,0,0,1-9.56-.38c-3.3-1-12.11-.17-13.11-2.27a14.54,14.54,0,0,1-.66-1.61,9.94,9.94,0,0,0-.63,6.11h0a.89.89,0,0,0,.1.4c1.08,4.07,4,8.1,10.86,9.58,15.73,3.39,23,24.69,54.94,16.22,26.17-6.94.13-27.07-10.13-34.11a21.57,21.57,0,0,1,.73,6.05A19.66,19.66,0,0,1,231.82,391.95Z"/><path class="cls-2" d="M56.72,287.52l.27,0,0-.43A4.85,4.85,0,0,1,56.72,287.52Z"/><path class="cls-2" d="M248.26,140.33a57.05,57.05,0,0,1,5.58-8.19s21,26.37,6.81,49.89c7.54-2.78,17.86-4.73,31.58-3.86,4.42-11.24,6.83-21.7,7.44-30.43,2.8-40.11-13.71-67.22-51.44-69,0,.2,0,.4,0,.6Z"/><path class="cls-2" d="M123.93,273l3.67,16.07a234.71,234.71,0,0,0,63.91-14.73q0-.67,0-1.33Z"/><path class="cls-2" d="M147,38.72C133.16,10.16,106.72-8.48,82.09,6,65.33,15.87,51,29.06,21,62.22H158.56C154.39,55.28,151,47.17,147,38.72Z"/><path class="cls-2" d="M282.06,194.5c-5.12,12.92-15.69,25.11-33.8,23.29V239.9C269.52,221,283.52,199.43,291.5,180,289.07,182,285.39,186.08,282.06,194.5Z"/><path class="cls-2" d="M47.11,273H0v1.16a264.31,264.31,0,0,0,48.42,12.17C47.58,283.29,47.21,278.34,47.11,273Z"/><path class="cls-2" d="M57,287.11l0,.44h0l.05-.5Z"/><path class="cls-3" d="M294.26,178.31c-.69-.06-1.36-.09-2-.14-.24.6-.48,1.21-.73,1.81A9.37,9.37,0,0,1,294.26,178.31Z"/><path class="cls-4" d="M294.26,178.31c-.69-.06-1.36-.09-2-.14-.24.6-.48,1.21-.73,1.81A9.37,9.37,0,0,1,294.26,178.31Z"/><path class="cls-2" d="M260.65,182a44.4,44.4,0,0,1-12.39,13V204c20.38-17,34.5-20.15,34.5-20.15-15.09,5.79-30.36,19.24-34.5,23v10.94c18.11,1.82,28.68-10.37,33.8-23.29,3.33-8.42,7-12.55,9.44-14.51.25-.61.49-1.21.73-1.81C278.52,177.3,268.19,179.25,260.65,182Z"/><path class="cls-5" d="M260.65,182a44.4,44.4,0,0,1-12.39,13V204c20.38-17,34.5-20.15,34.5-20.15-15.09,5.79-30.36,19.24-34.5,23v10.94c18.11,1.82,28.68-10.37,33.8-23.29,3.33-8.42,7-12.55,9.44-14.51.25-.61.49-1.21.73-1.81C278.52,177.3,268.19,179.25,260.65,182Z"/><path class="cls-6" d="M260.65,182a44.4,44.4,0,0,1-12.39,13V204c20.38-17,34.5-20.15,34.5-20.15-15.09,5.79-30.36,19.24-34.5,23v10.94c18.11,1.82,28.68-10.37,33.8-23.29,3.33-8.42,7-12.55,9.44-14.51.25-.61.49-1.21.73-1.81C278.52,177.3,268.19,179.25,260.65,182Z"/><path class="cls-7" d="M248.26,204v2.89c4.14-3.81,19.41-17.25,34.5-23C282.76,183.81,268.64,186.91,248.26,204Z"/><path class="cls-8" d="M248.26,204v2.89c4.14-3.81,19.41-17.25,34.5-23C282.76,183.81,268.64,186.91,248.26,204Z"/><path class="cls-2" d="M253.84,132.14a57.05,57.05,0,0,0-5.58,8.19v33.35c4.86-11.46,5.58-24.37,5.58-24.37a64.5,64.5,0,0,1-5.58,28.48V188.7A46.85,46.85,0,0,1,260.65,182C274.84,158.51,253.84,132.14,253.84,132.14Z"/><path class="cls-9" d="M253.84,132.14a57.05,57.05,0,0,0-5.58,8.19v33.35c4.86-11.46,5.58-24.37,5.58-24.37a64.5,64.5,0,0,1-5.58,28.48V188.7A46.85,46.85,0,0,1,260.65,182C274.84,158.51,253.84,132.14,253.84,132.14Z"/><path class="cls-10" d="M253.84,132.14a57.05,57.05,0,0,0-5.58,8.19v33.35c4.86-11.46,5.58-24.37,5.58-24.37a64.5,64.5,0,0,1-5.58,28.48V188.7A46.85,46.85,0,0,1,260.65,182C274.84,158.51,253.84,132.14,253.84,132.14Z"/><path class="cls-2" d="M260.65,182a46.85,46.85,0,0,0-12.39,6.67V195A44.4,44.4,0,0,0,260.65,182Z"/><path class="cls-11" d="M260.65,182a46.85,46.85,0,0,0-12.39,6.67V195A44.4,44.4,0,0,0,260.65,182Z"/><path class="cls-12" d="M260.65,182a46.85,46.85,0,0,0-12.39,6.67V195A44.4,44.4,0,0,0,260.65,182Z"/><path class="cls-13" d="M260.65,182a46.85,46.85,0,0,0-12.39,6.67V195A44.4,44.4,0,0,0,260.65,182Z"/><path class="cls-14" d="M260.65,182a46.85,46.85,0,0,0-12.39,6.67V195A44.4,44.4,0,0,0,260.65,182Z"/><path class="cls-7" d="M253.84,149.31s-.72,12.91-5.58,24.37v4.1A64.5,64.5,0,0,0,253.84,149.31Z"/><path class="cls-15" d="M253.84,149.31s-.72,12.91-5.58,24.37v4.1A64.5,64.5,0,0,0,253.84,149.31Z"/><path class="cls-16" d="M247.21,73.45c.13.36.26.73.37,1.1C247.47,74.18,247.34,73.81,247.21,73.45Z"/><path class="cls-16" d="M247.68,75c.1.39.2.78.27,1.17C247.88,75.73,247.78,75.34,247.68,75Z"/><path class="cls-16" d="M248.25,79.31V252.4H229.49c0,.06,0,.12,0,.18l0,.58c0,.3,0,.6.07.89l.73,11.64h0l.15,2.46.1,0,.26,4.8h12a5.39,5.39,0,0,0,5.39-5.39V79.31c0-.2,0-.4,0-.6a17.14,17.14,0,0,0-.22-2.25A17,17,0,0,1,248.25,79.31Z"/><path class="cls-16" d="M111.59,252.4c-.12,1.48-.24,2.89-.35,4l.16.17A120.74,120.74,0,0,1,107.93,273h83.56c-.05-2.76-.09-5.49-.09-8.17l-3.64-12.42Z"/><path class="cls-16" d="M247.1,73.15a17.07,17.07,0,0,0-15.91-10.93H0V73.15ZM130.48,65.34a2.34,2.34,0,1,1-2.34,2.34A2.34,2.34,0,0,1,130.48,65.34Z"/><path class="cls-16" d="M47.77,252.4H0V273H47.11C47,265.44,47.36,257.13,47.77,252.4Z"/><path class="cls-16" d="M95.7,271.39c-.22-.39-.34-.62-.34-.62,0,.72,0,1.47,0,2.22h1.28c-.25-.39-.46-.75-.65-1.06Z"/><path class="cls-16" d="M101.59,254.64l.08.33.28,1.18.33-1.41Z"/><path class="cls-17" d="M236.89,80.9h0v8.6h0V213.08c.63.37,1.25.74,1.86,1.15,2.68,1.87.66,16.8-1.58,24.87a7.85,7.85,0,0,1-.28.82v5.9h-4.11a45.74,45.74,0,0,1-3.32,3.24v2.56c0,.27,0,.52,0,.78h18.76V79.31a17,17,0,0,0-.24-2.85c0-.11,0-.22-.05-.33-.07-.39-.17-.78-.27-1.17,0-.14-.07-.27-.1-.41-.11-.37-.23-.73-.37-1.1,0-.1-.06-.2-.1-.3H0V80.9Z"/><path class="cls-17" d="M187.75,252.4l-1.93-6.58H112c-.07,1.95-.24,4.34-.42,6.58Z"/><path class="cls-17" d="M48.24,248.64a7.09,7.09,0,0,1,2-2.82H0v6.58H47.77A27.07,27.07,0,0,1,48.24,248.64Z"/><circle class="cls-18" cx="130.48" cy="67.68" r="2.34"/><path class="cls-19" d="M55.92,297.43l-.31.13.3,0Z"/><path class="cls-20" d="M94.8,290.26c-.13,2.19-.26,4.23-.39,6,11.41,0,21.6.16,27.61.45,0,0,3.16.09,7.91.31l-.57-.26-1.76-7.71A297.77,297.77,0,0,1,94.8,290.26Z"/><path class="cls-2" d="M138.71,301.07l-.16-.08.05.08Z"/><path class="cls-21" d="M138.71,301.07l-.16-.08.05.08Z"/><path class="cls-2" d="M55.55,300.7l.36-3.16-.3,0L48,300.7Z"/><path class="cls-22" d="M55.55,300.7l.36-3.16-.3,0L48,300.7Z"/><path class="cls-2" d="M94.41,296.27c-.13,1.8-.24,3.31-.33,4.43h43.83l-8-3.67c-4.75-.22-7.91-.31-7.91-.31C116,296.42,105.82,296.22,94.41,296.27Z"/><path class="cls-23" d="M94.41,296.27c-.13,1.8-.24,3.31-.33,4.43h43.83l-8-3.67c-4.75-.22-7.91-.31-7.91-.31C116,296.42,105.82,296.22,94.41,296.27Z"/><path class="cls-2" d="M107.93,273a20.16,20.16,0,0,1-2.09,4.8,3.39,3.39,0,0,1-1.73,1.52,2.94,2.94,0,0,1-2.2-.42,6.62,6.62,0,0,1-.75-.5A11.74,11.74,0,0,1,99.69,277c-.24-.26-.47-.52-.7-.8s-.67-.84-1-1.26-.8-1.13-1.13-1.65l-.22-.35H95.38c0,5.58-.27,11.89-.58,17.28a297.77,297.77,0,0,0,32.8-1.21L123.93,273Z"/><path class="cls-24" d="M107.93,273a20.16,20.16,0,0,1-2.09,4.8,3.39,3.39,0,0,1-1.73,1.52,2.94,2.94,0,0,1-2.2-.42,6.62,6.62,0,0,1-.75-.5A11.74,11.74,0,0,1,99.69,277c-.24-.26-.47-.52-.7-.8s-.67-.84-1-1.26-.8-1.13-1.13-1.65l-.22-.35H95.38c0,5.58-.27,11.89-.58,17.28a297.77,297.77,0,0,0,32.8-1.21L123.93,273Z"/><path class="cls-25" d="M94,302.2h44a.74.74,0,0,0,.74-.74v0a.72.72,0,0,0-.11-.37l-.05-.08a.73.73,0,0,0-.58-.29H94.08C94,301.33,94,301.84,94,302.2Z"/><path class="cls-25" d="M55.55,300.7H47.79a.74.74,0,0,0-.74.74v0a.74.74,0,0,0,.74.74h7.59Z"/><rect class="cls-26" y="80.9" width="236.89" height="0.01"/><path class="cls-26" d="M184.54,213.21l-1.32-4.6-.08,0,2.91,10.16.69-.81Z"/><path class="cls-26" d="M86.31,235.27l.29,0,1-7.56Z"/><path class="cls-26" d="M193,210.81h-4.11c.73.78,1.47,1.55,2.13,2.21Z"/><path class="cls-26" d="M193.34,232.31l0-.19.2-3.32c-.41.26-1.94,1.22-3.93,2.41l.75,2.63h2.86Z"/><polygon class="cls-26" points="191.89 239.07 192.74 242.02 192.92 239.07 191.89 239.07"/><path class="cls-26" d="M236.89,245.82v-5.9a21.36,21.36,0,0,1-4.11,5.9Z"/><path class="cls-26" d="M177.71,189.65l4,13.82-.4-2.32c2.21.45,3.78,3.79,4.42,5.61a7.58,7.58,0,0,0,1.18,1.77V175.27H211a27.66,27.66,0,0,1-.69-6.23,17.61,17.61,0,0,0,1.42,3.34,12.4,12.4,0,0,1,.61-10H186.88v-.76a34.85,34.85,0,0,1-5.47,4.87l-.68,3.19a8.54,8.54,0,0,1-4.19,5.61h1.17Z"/><path class="cls-26" d="M83.44,210l0,0c0,.81.07,1.62.1,2.43A24.23,24.23,0,0,0,83.44,210Z"/><path class="cls-26" d="M63.86,238.64l.57-.19c.09-1.2.24-3.11.4-5.12-6.09-2.49-7.52-16.47-7.71-20.69-.21-4.58,2.89-10.54,6-8.84,0,0-.75-1.91,2-4.93,2.5-2.71,8.53-8.4,17.51-1,7.43,6.11,1.31,14.51,1,15a102,102,0,0,1-.25,11.07c-.4,3.24-.81,5.34-1.39,6.48h0a1.62,1.62,0,0,1-1.11,1q-.89.08-1.78.08t-1.77-.08s-.11.55-.23,1.37h0a19.93,19.93,0,0,0-.21,3.57c2.27-.12,4.49-.13,6.54-.07a9.77,9.77,0,0,1,.26-1.39c.63-1.87,2.5-6,2.71-6.87s1.23-1.43,1.47-1.58l1.54-11.49a1.31,1.31,0,0,1,1.4-1.13l4.39.39,0-.35c.11,0,12.87,1.18,12.87,1.18l0,.31,3.74.33a1.31,1.31,0,0,1,1.2,1.41l0,0-1.6,16,0-.06c1.46-2.08.83-5.83.83-5.83l.21-3.75s3.14,6.65,2.93,8.52a7.75,7.75,0,0,1-.57,1.79h32.63a2.62,2.62,0,1,1,0,5.24H112.68a11.45,11.45,0,0,0-.66,4c0,.7,0,1.67,0,2.78h73.81l-2-6.75H169.25a2.62,2.62,0,1,1,0-5.24h6.37q-1.23-3.33-2.2-6.74l-1.07.67-.16-6.82.17-.07-.19-1.29-1.3-8.77h-28.7V175.27h9.39a41.71,41.71,0,0,1-3.29-3,39.66,39.66,0,0,1-16.86-10H99.34v-7.1H86.24V114.48h34.81c4.34-10.76,13.1-19,24.62-21.64.55-.12,1.1-.23,1.65-.33.77-.23,1.55-.45,2.35-.63,11.36-2.58,22.89.9,31.74,8.43H216A6.36,6.36,0,0,1,216,113h-9.73v0H191.63a45.81,45.81,0,0,1,4,10.58q.39,1.58.66,3.16h26.09v35.54h-9.87c.29,3.24,1.23,4.11,1.23,4.11a7.66,7.66,0,0,1,.16-3.94s-.11,4.85,10,5.91,7.9,7.43,7.9,7.43a4.49,4.49,0,0,0,1-3.94,4.56,4.56,0,0,1,.16,5.16c6.95,2.13-2.21,13.65-5.37,19.72-1.45,2.78-3.46,3.13-5.21,2.71h0a9.76,9.76,0,0,0,1.34.24l.64,5.4a23,23,0,0,1,2.32,1.14v2.08a61.36,61.36,0,0,1,7.1,2.92l0,.1c1.06.51,2.08,1.08,3.09,1.68V89.51H0v37.3H10.85v21.33H0v4.5H10.85V174H0V184.4H32.93a4.3,4.3,0,0,1,0,8.6v0H0v5H32.93a4.3,4.3,0,0,1,0,8.6H0v5.1a4.3,4.3,0,0,1,4.3,4.3A4.3,4.3,0,0,1,0,220.4v13.38H25.1a2.62,2.62,0,0,1,2.62,2.62s0,.05,0,.08a2.62,2.62,0,0,1-2.65,2.59H0v6.75H50.21C52.39,243.74,56.5,241.3,63.86,238.64Zm35.48-63.37h35.54v35.54H99.34ZM37.23,174H15.9V152.64H37.23ZM15.9,148.14V126.81H37.23v21.33Z"/><path class="cls-27" d="M216,113a6.36,6.36,0,0,0,0-12.72h-9.73V113Zm-4.69-9a2.58,2.58,0,0,1,4.11,3l2.41,2.45a.69.69,0,0,1-1,.94L214.44,108a2.56,2.56,0,0,1-3.15-4Z"/><path class="cls-27" d="M214.37,107.06h0a1.81,1.81,0,0,0,0-2.56h0a1.82,1.82,0,1,0,0,2.57Z"/><polygon class="cls-28" points="236.91 89.51 236.91 80.91 236.89 80.91 0 80.91 0 89.51 236.89 89.51 236.91 89.51"/><path class="cls-27" d="M191.63,113.08h14.62V100.31H181.41A43.68,43.68,0,0,1,191.63,113.08Z"/><path class="cls-29" d="M186.88,161.6v.76h25.46c.1-.18.18-.29.18-.29s0,.19,0,.29h9.87V126.82H196.33C198.64,140.1,194.82,152.89,186.88,161.6Z"/><path class="cls-29" d="M125.57,155.26H99.34v7.1h32.07A43.63,43.63,0,0,1,125.57,155.26Z"/><path class="cls-29" d="M222.42,199.52h0a9.72,9.72,0,0,1-3.74-2.07A8,8,0,0,0,222.42,199.52Z"/><path class="cls-29" d="M186.88,208.52c.57.7,1.27,1.49,2,2.28H193c1.5-1.66,3.12-3.41,4.82-5.2l.6-.63h0l.06-.06c1-1.08,6.43-1.17,13.31-.15l.7-1.33c.35,0,.69-.06,1-.08l1.18-4.76c-.12,0-.51.18-1,.31-1,.27-2.45.52-3.1-.13h0a.94.94,0,0,1-.14-.19c-.78-1.32-2.87-9.65.76-20.53v0l.32-.91a15.9,15.9,0,0,1-.56-1.84H186.88Z"/><path class="cls-29" d="M169.54,195.67a8.61,8.61,0,0,0-1-3,30.12,30.12,0,0,1-3-5.18c-.19-.41-.24-3.09-.6-6.09-.11-.94,1.15-1.39,1.15-1.39l1.71,5.38.33.15-2-6.85-.18,0c-.9.19-5.21,1.05-7.46.81-1.4-.15-4.35-2.15-6.92-4.25h-9.39v35.54h28.7l-.2-1.32C170.1,205.67,170.09,199.19,169.54,195.67Z"/><path class="cls-29" d="M176,182.8c0,.2,0,.55,0,1l1.68,5.85V175.27h-1.17l-.15.09q-1.21.65-2.44,1.19l1.21,4.21c.08-.08.14-.16.22-.23C175.94,180.12,176,181.35,176,182.8Z"/><rect class="cls-29" x="99.34" y="175.27" width="35.54" height="35.54"/><path class="cls-27" d="M119.37,141a43.33,43.33,0,0,1,1.68-26.57H86.24v40.78h39.33A45.55,45.55,0,0,1,119.37,141Z"/><polygon class="cls-29" points="193.25 233.83 190.39 233.83 191.89 239.07 192.92 239.07 193.25 233.83"/><path class="cls-29" d="M177.71,236.85a.82.82,0,0,1-.49-.13,8.19,8.19,0,0,1-1.6-2.88h-6.37a2.62,2.62,0,1,0,0,5.24h14.59l-1.18-4C180.52,236.13,178.65,236.88,177.71,236.85Z"/><path class="cls-29" d="M147.41,239.07a2.62,2.62,0,1,0,0-5.24H114.78c-.59,1.43-1.49,3.31-2.1,5.24Z"/><path class="cls-29" d="M27.72,236.48s0-.05,0-.08a2.62,2.62,0,0,0-2.62-2.62H0v5.29H25.07A2.62,2.62,0,0,0,27.72,236.48Z"/><rect class="cls-29" x="15.9" y="126.81" width="21.33" height="21.33"/><rect class="cls-29" x="15.9" y="152.64" width="21.33" height="21.33"/><rect class="cls-29" y="126.81" width="10.85" height="21.33"/><rect class="cls-29" y="152.64" width="10.85" height="21.33"/><path class="cls-30" d="M32.93,193a4.3,4.3,0,0,0,0-8.6H0V193H32.93Z"/><path class="cls-30" d="M37.23,202.4a4.3,4.3,0,0,0-4.3-4.3H0v8.6H32.93A4.3,4.3,0,0,0,37.23,202.4Z"/><path class="cls-30" d="M4.3,216.1A4.3,4.3,0,0,0,0,211.8v8.6A4.3,4.3,0,0,0,4.3,216.1Z"/><path class="cls-31" d="M214.44,108l2.37,2.41a.69.69,0,0,0,1-.94L215.4,107a2.62,2.62,0,1,0-1,1Zm-2.65-3.48a1.82,1.82,0,0,1,2.57,0h0a1.81,1.81,0,0,1,0,2.56h0a1.82,1.82,0,0,1-2.58-2.57Z"/><path class="cls-32" d="M234.76,384.21v0h-3.6l0-.18c-7,3.79-12.48-5.52-10.83,4.11.39,2.28,8.23,2.79,11.53,3.79a19.66,19.66,0,0,0,9.56.38,21.88,21.88,0,0,0-1.4-8.12Z"/><path class="cls-32" d="M199.28,391.95a19.66,19.66,0,0,0,9.56.38,21.57,21.57,0,0,0-1.4-8.12h-9.14c-4,2.08-8.47,1.08-11,1.11-1.72,0-2.56.51-1.8,2.76a14.54,14.54,0,0,0,.66,1.61C187.17,391.78,196,390.95,199.28,391.95Z"/><path class="cls-33" d="M230.47,268.15l.06.91a58.78,58.78,0,0,1-33.33-2c0,4.63,0,9.86-.21,14-.53,9.8-1.12,25.41,0,38.52,2,23.35,4.65,50,3.38,64.69h7.13l.07-4.09v-.35l.86-52.36,2.28-31.51.9-12.39.12.61,1-11.29s6.32,15.78,8.53,28.82.79,23.29,3.79,31.85c4.11,11.82,8.69,36.38,9.69,50.71h5.3q0-2-.07-4.09c-.58-24.71-3.64-54-8-85.54L230.83,273l-.26-4.8Z"/><path class="cls-34" d="M230.36,380.14l.11.54.06,0-.11-.58-18.64-95.83,0-.17,0,.19Z"/><path class="cls-2" d="M230.52,380.7l-.06,0,.66,3.36,0,0Z"/><path class="cls-35" d="M230.52,380.7l-.06,0,.66,3.36,0,0Z"/><path class="cls-32" d="M231.17,384l0,0,0,.18h3.6v0h-3.55Z"/><path class="cls-36" d="M231.17,384l0,0,0,.18h3.6v0h-3.55Z"/><path class="cls-33" d="M230.41,380.12l.11.58.65,3.32,0,.19h3.55c-1-14.33-5.58-38.89-9.69-50.71-3-8.56-1.58-18.81-3.79-31.85s-8.53-28.82-8.53-28.82l-1,11.29,0,.17Z"/><path class="cls-37" d="M230.41,380.12l.11.58.65,3.32,0,.19h3.55c-1-14.33-5.58-38.89-9.69-50.71-3-8.56-1.58-18.81-3.79-31.85s-8.53-28.82-8.53-28.82l-1,11.29,0,.17Z"/><path class="cls-33" d="M198.31,384.21h2.06c1.27-14.64-1.37-41.34-3.38-64.69-1.12-13.11-.53-28.72,0-38.52.22-4.1.25-9.34.21-14a41.59,41.59,0,0,1-5.26-2.34l-.22,1.24-.33-1.11c0,2.68,0,5.42.09,8.17q0,.67,0,1.33c.66,30.83,4.13,66.12,6.43,105.8l.06,1.09c.06,1,.12,2,.18,3Z"/><path class="cls-38" d="M198.31,384.21h2.06c1.27-14.64-1.37-41.34-3.38-64.69-1.12-13.11-.53-28.72,0-38.52.22-4.1.25-9.34.21-14a41.59,41.59,0,0,1-5.26-2.34l-.22,1.24-.33-1.11c0,2.68,0,5.42.09,8.17q0,.67,0,1.33c.66,30.83,4.13,66.12,6.43,105.8l.06,1.09c.06,1,.12,2,.18,3Z"/><path class="cls-39" d="M212.34,162.36a12.4,12.4,0,0,0-.61,10,17.61,17.61,0,0,1-1.42-3.34,27.66,27.66,0,0,0,.69,6.23,15.9,15.9,0,0,0,.56,1.84l0-.07h0v0a8,8,0,0,0,3.16,3.94s-.17.69-.34,1.69a21.11,21.11,0,0,0-.29,5.28s1.26-5.31,3.47-5.46.63,7.28-2.21,6.37c0,0,0,5.37,3.29,8.6a9.72,9.72,0,0,0,3.74,2.07c1.75.43,3.76.08,5.21-2.71,3.16-6.07,12.32-17.59,5.37-19.72a4.56,4.56,0,0,0-.16-5.16,4.49,4.49,0,0,1-1,3.94s2.21-6.37-7.9-7.43-10-5.91-10-5.91a7.66,7.66,0,0,0-.16,3.94s-.94-.87-1.23-4.11c0-.1,0-.19,0-.29S212.45,162.17,212.34,162.36Z"/><path class="cls-26" d="M224.4,205.17l-.64-5.4a9.76,9.76,0,0,1-1.34-.24v4.89Q223.43,204.75,224.4,205.17Z"/><path class="cls-40" d="M224.4,205.17l-.64-5.4a9.76,9.76,0,0,1-1.34-.24v4.89Q223.43,204.75,224.4,205.17Z"/><path class="cls-29" d="M213.71,198.9c.5-.13.88-.27,1-.31v0A10.47,10.47,0,0,1,213.71,198.9Z"/><path class="cls-41" d="M213.71,198.9c.5-.13.88-.27,1-.31v0A10.47,10.47,0,0,1,213.71,198.9Z"/><path class="cls-29" d="M218.63,197.4l-6.11-5.63.7-10.35a11.45,11.45,0,0,1-2-3.38c-3.63,10.89-1.54,19.21-.76,20.53a.94.94,0,0,0,.14.19c1.79-.57,3.53-.32,4.64-4.36l.6,8.88a23,23,0,0,1,6.54,1.14v-4.89a8,8,0,0,1-3.74-2.08Z"/><path class="cls-42" d="M218.63,197.4l-6.11-5.63.7-10.35a11.45,11.45,0,0,1-2-3.38c-3.63,10.89-1.54,19.21-.76,20.53a.94.94,0,0,0,.14.19c1.79-.57,3.53-.32,4.64-4.36l.6,8.88a23,23,0,0,1,6.54,1.14v-4.89a8,8,0,0,1-3.74-2.08Z"/><path class="cls-39" d="M214.75,181s-.17.69-.34,1.69a11.42,11.42,0,0,1-1.19-1.25l-.7,10.35,6.11,5.63.05,0c-3.29-3.23-3.29-8.6-3.29-8.6,2.84.91,4.42-6.52,2.21-6.37s-3.47,5.46-3.47,5.46a21.11,21.11,0,0,1,.29-5.28c.17-1,.34-1.69.34-1.69A8,8,0,0,1,211.6,177v0A8,8,0,0,0,214.75,181Z"/><path class="cls-43" d="M214.75,181s-.17.69-.34,1.69a11.42,11.42,0,0,1-1.19-1.25l-.7,10.35,6.11,5.63.05,0c-3.29-3.23-3.29-8.6-3.29-8.6,2.84.91,4.42-6.52,2.21-6.37s-3.47,5.46-3.47,5.46a21.11,21.11,0,0,1,.29-5.28c.17-1,.34-1.69.34-1.69A8,8,0,0,1,211.6,177v0A8,8,0,0,0,214.75,181Z"/><path class="cls-44" d="M213.71,198.9a10.47,10.47,0,0,0,1-.33v0l-1.18,4.76a23.05,23.05,0,0,1,2.35-.06l-.6-8.88c-1.1,4-2.85,3.79-4.64,4.36h0C211.26,199.41,212.72,199.17,213.71,198.9Z"/><path class="cls-44" d="M211.26,178a12,12,0,0,0,3.15,4.63c.17-1,.34-1.69.34-1.69a8,8,0,0,1-3.16-3.93h0l0,.07-.32.91Z"/><path class="cls-26" d="M184.54,213.21l2.21,4.72c1.21-1.42,2.65-3.08,4.27-4.91-.66-.66-1.4-1.43-2.13-2.21h-2v-2.28a7.58,7.58,0,0,1-1.18-1.77c-.64-1.82-2.21-5.16-4.42-5.61l.4,2.32,1.47,5.11.08,0Z"/><path class="cls-45" d="M184.54,213.21l2.21,4.72c1.21-1.42,2.65-3.08,4.27-4.91-.66-.66-1.4-1.43-2.13-2.21h-2v-2.28a7.58,7.58,0,0,1-1.18-1.77c-.64-1.82-2.21-5.16-4.42-5.61l.4,2.32,1.47,5.11.08,0Z"/><path class="cls-29" d="M188.89,210.81c-.74-.79-1.44-1.58-2-2.28v2.28Z"/><path class="cls-46" d="M188.89,210.81c-.74-.79-1.44-1.58-2-2.28v2.28Z"/><path class="cls-47" d="M165.94,178.7l-.74.07a9,9,0,0,1-6-1.76l-4.74-3.52a35.44,35.44,0,0,1-6.19-1.18,41.71,41.71,0,0,0,3.29,3c2.58,2.1,5.53,4.1,6.92,4.25C160.73,179.76,165,178.89,165.94,178.7Z"/><path class="cls-47" d="M151.12,171c-13-4.18-24-15.67-27.71-30.91-5.26-21.22,5.4-42,23.91-47.6-.55.1-1.1.2-1.65.33-11.52,2.61-20.28,10.88-24.62,21.64A43.33,43.33,0,0,0,119.37,141a45.55,45.55,0,0,0,6.2,14.21,43.63,43.63,0,0,0,5.83,7.1,39.66,39.66,0,0,0,16.86,10,35.44,35.44,0,0,0,6.19,1.18Z"/><path class="cls-26" d="M222.42,206v1c1.44.4,2.88.85,4.3,1.34v-2.08a23,23,0,0,0-2.32-1.14l.15,1.27Z"/><path class="cls-48" d="M222.42,206v1c1.44.4,2.88.85,4.3,1.34v-2.08a23,23,0,0,0-2.32-1.14l.15,1.27Z"/><path class="cls-29" d="M216,204.81v0s-.35,0-.82-.15l-.4-.1-1.4-.26v-.13h0l.21-.84c-.35,0-.69,0-1,.08l-.7,1.33A87.51,87.51,0,0,1,222.42,207v-1l-6.36-1.21Z"/><path class="cls-49" d="M216,204.81v0s-.35,0-.82-.15l-.4-.1-1.4-.26v-.13h0l.21-.84c-.35,0-.69,0-1,.08l-.7,1.33A87.51,87.51,0,0,1,222.42,207v-1l-6.36-1.21Z"/><path class="cls-26" d="M222.42,206l2.13.4-.15-1.27q-1-.42-2-.75Z"/><path class="cls-50" d="M222.42,206l2.13.4-.15-1.27q-1-.42-2-.75Z"/><path class="cls-51" d="M222.42,206l2.13.4-.15-1.27q-1-.42-2-.75Z"/><path class="cls-29" d="M216.06,204.83l6.36,1.21v-1.61a23,23,0,0,0-6.54-1.14l.1,1.53Z"/><path class="cls-52" d="M216.06,204.83l6.36,1.21v-1.61a23,23,0,0,0-6.54-1.14l.1,1.53Z"/><path class="cls-53" d="M216.06,204.83l6.36,1.21v-1.61a23,23,0,0,0-6.54-1.14l.1,1.53Z"/><path class="cls-29" d="M214.77,204.59c-.41-.1-.88-.22-1.4-.39v.13Z"/><path class="cls-54" d="M214.77,204.59c-.41-.1-.88-.22-1.4-.39v.13Z"/><path class="cls-55" d="M214.77,204.59c-.41-.1-.88-.22-1.4-.39v.13Z"/><path class="cls-44" d="M213.54,203.34l-.21.84h0c.52.17,1,.29,1.4.39l.4.1c.47.1.78.15.82.15v0l-.1-1.53A23.05,23.05,0,0,0,213.54,203.34Z"/><path class="cls-56" d="M213.54,203.34l-.21.84h0c.52.17,1,.29,1.4.39l.4.1c.47.1.78.15.82.15v0l-.1-1.53A23.05,23.05,0,0,0,213.54,203.34Z"/><path class="cls-57" d="M191.39,264.81l.33,1.11.22-1.24-.58-.33.26-4.13h0L192.74,242l-.85-3-1.5-5.24-.75-2.63c-2.1,1.25-4.69,2.73-7,3.86l1.18,4,2,6.75,1.93,6.58Z"/><path class="cls-57" d="M186.06,218.73l-2.91-10.16-1.47-5.11-4-13.82L176,183.8c0,2.22,0,7-1.4,10.05a78.87,78.87,0,0,0,2.32,12.3c1.15,3.62,2,6.07,3,8.73h0q.42,1.12.82,2.37l.25-.11,2.21,3.79-1.18.74.56,1.19S183.9,221.28,186.06,218.73Z"/><path class="cls-57" d="M123.41,140.11c3.71,15.24,14.71,26.73,27.71,30.91l3.34,2.48L159.2,177a9,9,0,0,0,6,1.76l.74-.07.18,0,2,6.85a9.44,9.44,0,0,0,3.93.92c1,0,1,0,1.13-.06.92-.56.84-3.2.84-3.2a3.8,3.8,0,0,1,1.13-2.44L174,176.55q1.23-.54,2.44-1.19l.15-.09a8.54,8.54,0,0,0,4.19-5.61l.68-3.19a34.85,34.85,0,0,0,5.47-4.87c7.94-8.7,11.76-21.5,9.45-34.78q-.27-1.58-.66-3.16a45.81,45.81,0,0,0-4-10.58,43.68,43.68,0,0,0-10.21-12.77c-8.85-7.53-20.38-11-31.74-8.43-.8.18-1.58.4-2.35.63C128.81,98.14,118.15,118.88,123.41,140.11Zm18.81-38.7c.64-.4,1.29-.77,2-1.12l-.07,0c.74-.39,1.5-.73,2.27-1.06l.32-.13q.94-.38,1.91-.7l.26-.09c.74-.23,1.49-.45,2.26-.62,17.05-3.86,34.64,8.28,39.29,27.14a37.86,37.86,0,0,1,.55,15.75v0q-.12.66-.26,1.32V142a32.35,32.35,0,0,1-11.58,18.75l0,0c-.32.25-.64.49-1,.72l-.29.2-.77.52c-.39.25-.79.5-1.2.74l-.38.2c-.38.21-.77.42-1.17.61l-.75.36-.94.41c-.47.2-1,.38-1.44.55l-.77.27h0c-.82.27-1.65.51-2.49.7a28.94,28.94,0,0,1-4.83.68,29.88,29.88,0,0,1-10.93-1.47c-11-3.6-20.34-13.35-23.53-26.35q-.36-1.44-.6-2.88a37.56,37.56,0,0,1-.06-12.23h0a32.38,32.38,0,0,1,14.24-22.37Z"/><polygon class="cls-26" points="172.19 219.59 177.23 216.54 175.54 210.81 170.87 210.81 172.17 219.58 172.36 220.86 172.38 220.86 172.19 219.59"/><polygon class="cls-58" points="172.19 219.59 177.23 216.54 175.54 210.81 170.87 210.81 172.17 219.58 172.36 220.86 172.38 220.86 172.19 219.59"/><path class="cls-29" d="M168.13,185.53l-.33-.15L166.09,180s-1.26.45-1.15,1.39c.36,3,.41,5.68.6,6.09a30.12,30.12,0,0,0,3,5.18,8.61,8.61,0,0,1,1,3c.55,3.52.56,10,1.13,13.82l.2,1.32h4.68Z"/><path class="cls-59" d="M168.13,185.53l-.33-.15L166.09,180s-1.26.45-1.15,1.39c.36,3,.41,5.68.6,6.09a30.12,30.12,0,0,0,3,5.18,8.61,8.61,0,0,1,1,3c.55,3.52.56,10,1.13,13.82l.2,1.32h4.68Z"/><path class="cls-29" d="M176,182.8c0-1.45-.07-2.68-.63-2.27-.08.07-.15.15-.22.23l.87,3C176,183.35,176,183,176,182.8Z"/><path class="cls-60" d="M176,182.8c0-1.45-.07-2.68-.63-2.27-.08.07-.15.15-.22.23l.87,3C176,183.35,176,183,176,182.8Z"/><path class="cls-57" d="M180,214.89c-1-2.66-1.85-5.11-3-8.73a78.87,78.87,0,0,1-2.32-12.3c1.4-3,1.44-7.83,1.4-10.05l-.87-3A3.8,3.8,0,0,0,174,183.2s.08,2.64-.84,3.2c-.18.11-.17.11-1.13.06a9.44,9.44,0,0,1-3.93-.92l7.42,25.27,1.68,5.74L180,214.9Z"/><path class="cls-61" d="M180,214.89c-1-2.66-1.85-5.11-3-8.73a78.87,78.87,0,0,1-2.32-12.3c1.4-3,1.44-7.83,1.4-10.05l-.87-3A3.8,3.8,0,0,0,174,183.2s.08,2.64-.84,3.2c-.18.11-.17.11-1.13.06a9.44,9.44,0,0,1-3.93-.92l7.42,25.27,1.68,5.74L180,214.9Z"/><path class="cls-44" d="M180,214.9l-2.72,1.65-5,3,.19,1.27,8.41-3.6q-.4-1.24-.82-2.37Z"/><path class="cls-16" d="M230.47,268.15l-.15-2.46c-1.33.3-2.82.58-4.46.79C228.38,267.32,230.08,268,230.47,268.15Z"/><path class="cls-62" d="M230.47,268.15l-.15-2.46c-1.33.3-2.82.58-4.46.79C228.38,267.32,230.08,268,230.47,268.15Z"/><path class="cls-16" d="M229.5,252.58q0,.29,0,.58Z"/><path class="cls-63" d="M229.5,252.58q0,.29,0,.58Z"/><path class="cls-16" d="M192.64,260.71l-.59,3.32a15.72,15.72,0,0,1,4.59-1.66l-.36-.14h0v.08C195.08,261.83,193.87,261.29,192.64,260.71Z"/><path class="cls-64" d="M192.64,260.71l-.59,3.32a15.72,15.72,0,0,1,4.59-1.66l-.36-.14h0v.08C195.08,261.83,193.87,261.29,192.64,260.71Z"/><path class="cls-17" d="M237.17,239.1c2.24-8.07,4.26-23,1.58-24.87-.61-.4-1.23-.78-1.86-1.15v26.83A7.85,7.85,0,0,0,237.17,239.1Z"/><path class="cls-65" d="M237.17,239.1c2.24-8.07,4.26-23,1.58-24.87-.61-.4-1.23-.78-1.86-1.15v26.83A7.85,7.85,0,0,0,237.17,239.1Z"/><path class="cls-17" d="M229.46,249.05a45.74,45.74,0,0,0,3.32-3.24H229.5C229.48,246.9,229.46,248,229.46,249.05Z"/><path class="cls-66" d="M229.46,249.05a45.74,45.74,0,0,0,3.32-3.24H229.5C229.48,246.9,229.46,248,229.46,249.05Z"/><path class="cls-26" d="M231.88,238.84a51.5,51.5,0,0,1-1.78,6.35l-.59.52s0,.08,0,.11h3.27a21.36,21.36,0,0,0,4.11-5.9V213.08c-1-.6-2-1.17-3.09-1.68q-1.1,4.68-1.92,9.42C231.9,222.65,232,237.27,231.88,238.84Z"/><path class="cls-67" d="M231.88,238.84a51.5,51.5,0,0,1-1.78,6.35l-.59.52s0,.08,0,.11h3.27a21.36,21.36,0,0,0,4.11-5.9V213.08c-1-.6-2-1.17-3.09-1.68q-1.1,4.68-1.92,9.42C231.9,222.65,232,237.27,231.88,238.84Z"/><path class="cls-26" d="M181.84,232.26l-2.59-8.82-5.83,3.65q1,3.41,2.2,6.74h4.05A9.33,9.33,0,0,0,181.84,232.26Z"/><path class="cls-68" d="M181.84,232.26l-2.59-8.82-5.83,3.65q1,3.41,2.2,6.74h4.05A9.33,9.33,0,0,0,181.84,232.26Z"/><path class="cls-26" d="M193.68,228.72l-.11.07-.2,3.32c.14-1.42.31-2.87.48-4.34Z"/><path class="cls-69" d="M193.68,228.72l-.11.07-.2,3.32c.14-1.42.31-2.87.48-4.34Z"/><path class="cls-26" d="M191,213c1.11,1.12,2,1.93,2,1.93l-5.43,4.67-.79-1.69-.69.81,2.47,8.59c3.83-1.45,4.59-3.89,6.84-9.94q.56-3.31,1.29-6.58H193Z"/><path class="cls-70" d="M191,213c1.11,1.12,2,1.93,2,1.93l-5.43,4.67-.79-1.69-.69.81,2.47,8.59c3.83-1.45,4.59-3.89,6.84-9.94q.56-3.31,1.29-6.58H193Z"/><path class="cls-29" d="M197.82,205.61c-1.7,1.79-3.32,3.54-4.82,5.2h3.65c.39-1.76.79-3.52,1.24-5.27l.54-.57h0Z"/><path class="cls-71" d="M197.82,205.61c-1.7,1.79-3.32,3.54-4.82,5.2h3.65c.39-1.76.79-3.52,1.24-5.27l.54-.57h0Z"/><path class="cls-29" d="M177.22,236.72a.82.82,0,0,0,.49.13.79.79,0,0,1-.46-.13,8.19,8.19,0,0,1-1.6-2.88,4.64,4.64,0,0,0,4,0h-4A8.19,8.19,0,0,0,177.22,236.72Z"/><path class="cls-72" d="M177.22,236.72a.82.82,0,0,0,.49.13.79.79,0,0,1-.46-.13,8.19,8.19,0,0,1-1.6-2.88,4.64,4.64,0,0,0,4,0h-4A8.19,8.19,0,0,0,177.22,236.72Z"/><path class="cls-33" d="M197.14,262.56c0,1.37,0,2.88.06,4.47a58.78,58.78,0,0,0,33.33,2l-.06-.91c-.39-.16-2.09-.82-4.61-1.67C218.8,267.39,208.92,267.07,197.14,262.56Z"/><path class="cls-73" d="M197.14,262.56c0,1.37,0,2.88.06,4.47a58.78,58.78,0,0,0,33.33,2l-.06-.91c-.39-.16-2.09-.82-4.61-1.67C218.8,267.39,208.92,267.07,197.14,262.56Z"/><path class="cls-16" d="M192.05,264a15.71,15.71,0,0,1,4.65-1.64l-.06,0a15.72,15.72,0,0,0-4.59,1.66Z"/><path class="cls-74" d="M192.05,264a15.71,15.71,0,0,1,4.65-1.64l-.06,0a15.72,15.72,0,0,0-4.59,1.66Z"/><path class="cls-75" d="M192.05,264a15.71,15.71,0,0,1,4.65-1.64l-.06,0a15.72,15.72,0,0,0-4.59,1.66Z"/><path class="cls-33" d="M196.7,262.4a15.71,15.71,0,0,0-4.65,1.64l-.11.65A41.59,41.59,0,0,0,197.2,267c0-1.59,0-3.1-.06-4.47Z"/><path class="cls-76" d="M196.7,262.4a15.71,15.71,0,0,0-4.65,1.64l-.11.65A41.59,41.59,0,0,0,197.2,267c0-1.59,0-3.1-.06-4.47Z"/><path class="cls-77" d="M196.7,262.4a15.71,15.71,0,0,0-4.65,1.64l-.11.65A41.59,41.59,0,0,0,197.2,267c0-1.59,0-3.1-.06-4.47Z"/><path class="cls-26" d="M187.54,219.62l5.43-4.67s-.84-.81-2-1.93c-1.62,1.82-3.06,3.49-4.27,4.91Z"/><path class="cls-78" d="M187.54,219.62l5.43-4.67s-.84-.81-2-1.93c-1.62,1.82-3.06,3.49-4.27,4.91Z"/><path class="cls-79" d="M187.54,219.62l5.43-4.67s-.84-.81-2-1.93c-1.62,1.82-3.06,3.49-4.27,4.91Z"/><path class="cls-57" d="M188.52,227.33l-2.47-8.59c-2.16,2.55-3.43,4.13-3.43,4.13l-.56-1.19-2.82,1.76,2.59,8.82c1.78-1.63,3.63-3.81,6.63-4.91Z"/><path class="cls-80" d="M188.52,227.33l-2.47-8.59c-2.16,2.55-3.43,4.13-3.43,4.13l-.56-1.19-2.82,1.76,2.59,8.82c1.78-1.63,3.63-3.81,6.63-4.91Z"/><path class="cls-57" d="M192.05,264l.59-3.32-1-.48-.26,4.13.58.33.11-.65Z"/><path class="cls-81" d="M192.05,264l.59-3.32-1-.48-.26,4.13.58.33.11-.65Z"/><path class="cls-26" d="M193.57,228.72s-1.67,1.07-4,2.44v0c2-1.18,3.53-2.15,3.93-2.41Z"/><path class="cls-82" d="M193.57,228.72s-1.67,1.07-4,2.44v0c2-1.18,3.53-2.15,3.93-2.41Z"/><path class="cls-29" d="M177.71,236.85c.93,0,2.81-.72,4.95-1.79v0C180.53,236.1,178.66,236.87,177.71,236.85Z"/><path class="cls-83" d="M177.71,236.85c.93,0,2.81-.72,4.95-1.79v0C180.53,236.1,178.66,236.87,177.71,236.85Z"/><path class="cls-57" d="M182.66,235v0c2.28-1.13,4.87-2.62,7-3.86v0C187.53,232.4,184.94,233.89,182.66,235Z"/><path class="cls-84" d="M182.66,235v0c2.28-1.13,4.87-2.62,7-3.86v0C187.53,232.4,184.94,233.89,182.66,235Z"/><path class="cls-26" d="M188.52,227.33l1.1,3.83c2.28-1.36,4-2.44,4-2.44v.07l.11-.07.16-.94q.41-3.45.95-7l.05-.1c.16-1.08.34-2.16.52-3.24C193.12,223.44,192.35,225.87,188.52,227.33Z"/><path class="cls-85" d="M188.52,227.33l1.1,3.83c2.28-1.36,4-2.44,4-2.44v.07l.11-.07.16-.94q.41-3.45.95-7l.05-.1c.16-1.08.34-2.16.52-3.24C193.12,223.44,192.35,225.87,188.52,227.33Z"/><path class="cls-86" d="M188.52,227.33l1.1,3.83c2.28-1.36,4-2.44,4-2.44v.07l.11-.07.16-.94q.41-3.45.95-7l.05-.1c.16-1.08.34-2.16.52-3.24C193.12,223.44,192.35,225.87,188.52,227.33Z"/><path class="cls-26" d="M181.84,232.26a9.33,9.33,0,0,1-2.17,1.57h2.63Z"/><path class="cls-87" d="M181.84,232.26a9.33,9.33,0,0,1-2.17,1.57h2.63Z"/><path class="cls-88" d="M181.84,232.26a9.33,9.33,0,0,1-2.17,1.57h2.63Z"/><path class="cls-29" d="M182.3,233.83h-2.63a4.64,4.64,0,0,1-4,0,8.19,8.19,0,0,0,1.6,2.88.79.79,0,0,0,.46.13c.95,0,2.81-.75,4.94-1.81Z"/><path class="cls-89" d="M182.3,233.83h-2.63a4.64,4.64,0,0,1-4,0,8.19,8.19,0,0,0,1.6,2.88.79.79,0,0,0,.46.13c.95,0,2.81-.75,4.94-1.81Z"/><path class="cls-90" d="M182.3,233.83h-2.63a4.64,4.64,0,0,1-4,0,8.19,8.19,0,0,0,1.6,2.88.79.79,0,0,0,.46.13c.95,0,2.81-.75,4.94-1.81Z"/><path class="cls-57" d="M182.66,235c2.29-1.15,4.88-2.64,7-3.88l-1.1-3.83-.05,0c-3,1.1-4.85,3.29-6.63,4.91l.46,1.57Z"/><path class="cls-91" d="M182.66,235c2.29-1.15,4.88-2.64,7-3.88l-1.1-3.83-.05,0c-3,1.1-4.85,3.29-6.63,4.91l.46,1.57Z"/><path class="cls-92" d="M182.66,235c2.29-1.15,4.88-2.64,7-3.88l-1.1-3.83-.05,0c-3,1.1-4.85,3.29-6.63,4.91l.46,1.57Z"/><path class="cls-26" d="M231.88,238.84c.15-1.57,0-16.18,0-18a164.59,164.59,0,0,0-2.38,24.88l.59-.52A51.5,51.5,0,0,0,231.88,238.84Z"/><path class="cls-93" d="M231.88,238.84c.15-1.57,0-16.18,0-18a164.59,164.59,0,0,0-2.38,24.88l.59-.52A51.5,51.5,0,0,0,231.88,238.84Z"/><path class="cls-94" d="M231.88,238.84c.15-1.57,0-16.18,0-18a164.59,164.59,0,0,0-2.38,24.88l.59-.52A51.5,51.5,0,0,0,231.88,238.84Z"/><path class="cls-27" d="M211.8,204.76c-6.87-1-12.28-.93-13.31.15l-.06.06-.54.57c-.45,1.75-.86,3.51-1.24,5.27q-.72,3.28-1.29,6.58c-.18,1.08-.36,2.16-.52,3.24l1-1.9s-.66,26.19.4,43.5h0l.36.14.06,0,.44.16c11.78,4.51,21.65,4.82,28.72,3.92,1.64-.21,3.13-.49,4.46-.79h0L229.61,254c0-.28-.05-.59-.07-.89s0-.38,0-.58,0-.12,0-.18c0-.26,0-.51,0-.78v-2.56c0-1.08,0-2.16,0-3.24,0,0,0-.08,0-.11a164.59,164.59,0,0,1,2.38-24.88q.82-4.74,1.92-9.42l0-.1a61.36,61.36,0,0,0-7.1-2.92c-1.42-.49-2.86-.94-4.3-1.34A87.51,87.51,0,0,0,211.8,204.76Z"/><path class="cls-95" d="M148.61,98.42l.26-.09Z"/><path class="cls-95" d="M146.38,99.25l.32-.13Z"/><path class="cls-95" d="M179.11,160.76l0,0Z"/><path class="cls-95" d="M167.94,166a28.94,28.94,0,0,1-4.83.68L128,123.79A37.56,37.56,0,0,0,128,136l24.13,29.22c-11-3.6-20.34-13.39-23.53-26.34q-.36-1.44-.6-2.88.24,1.44.6,2.88c3.19,13,12.49,22.75,23.53,26.35a29.88,29.88,0,0,0,10.93,1.47,28.94,28.94,0,0,0,4.83-.68c.84-.19,1.67-.43,2.49-.7l.1-.05C169.68,165.57,168.82,165.82,167.94,166Z"/><path class="cls-95" d="M175.48,163.15l.38-.2c.41-.24.8-.48,1.2-.74C176.54,162.54,176,162.85,175.48,163.15Z"/><path class="cls-95" d="M178.11,161.5l-.29.2Z"/><path class="cls-95" d="M142.25,101.4,175.37,162c9.41-7.79,14-21.41,10.51-35.26-4.64-18.86-22.29-31-39.29-27.14-.82.19-1.63.41-2.41.66s-1.32.72-2,1.12a32.18,32.18,0,0,0-8.09,7.6A32.18,32.18,0,0,1,142.25,101.4Z"/><path class="cls-95" d="M174.32,163.76l-.75.36Z"/><path class="cls-95" d="M172.63,164.52q-.71.29-1.44.55C171.67,164.9,172.15,164.72,172.63,164.52Z"/><path class="cls-95" d="M191,140.61v0Z"/><path class="cls-95" d="M190.7,142v0Z"/><path class="cls-47" d="M185.88,126.77c3.44,13.86-1.1,27.48-10.51,35.26l.49.9a28.47,28.47,0,0,1-5.33,2.36l-.1.05h0l.77-.27q.73-.26,1.44-.55l.94-.41.75-.36c.39-.2.78-.4,1.17-.61.54-.3,1.06-.61,1.58-.93l.77-.52.29-.2c.33-.23.65-.47,1-.72l0,0A32.35,32.35,0,0,0,190.69,142V142q.14-.65.26-1.32v0a37.86,37.86,0,0,0-.55-15.75c-4.65-18.86-22.24-31-39.29-27.14-.76.17-1.51.39-2.26.62l-.26.09q-1,.31-1.91.7l-.32.13c-.77.32-1.53.67-2.27,1.06l.07,0c.79-.25,1.59-.47,2.41-.66C163.59,95.76,181.24,107.91,185.88,126.77Z"/><polygon class="cls-96" points="182.07 221.68 183.25 220.94 181.04 217.15 180.79 217.25 172.38 220.86 172.36 220.86 172.19 220.94 172.35 227.76 173.42 227.09 179.25 223.44 182.07 221.68"/><path class="cls-95" d="M152.18,165.24,128,136q.24,1.44.6,2.88C131.84,151.85,141.14,161.64,152.18,165.24Z"/><path class="cls-97" d="M152.18,165.24,128,136q.24,1.44.6,2.88C131.84,151.85,141.14,161.64,152.18,165.24Z"/><path class="cls-57" d="M134.13,109A32.19,32.19,0,0,0,128,123.78h0A32.19,32.19,0,0,1,134.13,109Z"/><path class="cls-98" d="M134.13,109A32.19,32.19,0,0,0,128,123.78h0A32.19,32.19,0,0,1,134.13,109Z"/><path class="cls-95" d="M163.11,166.7a28.94,28.94,0,0,0,4.83-.68c.88-.2,1.74-.45,2.59-.73a28.87,28.87,0,0,0,4.84-3.25L142.25,101.4A32.27,32.27,0,0,0,128,123.79h0Z"/><path class="cls-99" d="M163.11,166.7a28.94,28.94,0,0,0,4.83-.68c.88-.2,1.74-.45,2.59-.73a28.87,28.87,0,0,0,4.84-3.25L142.25,101.4A32.27,32.27,0,0,0,128,123.79h0Z"/><path class="cls-47" d="M170.53,165.29a28.47,28.47,0,0,0,5.33-2.36l-.49-.9A28.87,28.87,0,0,1,170.53,165.29Z"/><path class="cls-100" d="M170.53,165.29a28.47,28.47,0,0,0,5.33-2.36l-.49-.9A28.87,28.87,0,0,1,170.53,165.29Z"/><polygon class="cls-26" points="192.93 239.07 192.92 239.07 192.74 242.02 192.75 242.05 192.93 239.07"/><polygon class="cls-101" points="192.93 239.07 192.92 239.07 192.74 242.02 192.75 242.05 192.93 239.07"/><path class="cls-26" d="M193.35,232.29v-.17l0,.19-.09,1.52h0Z"/><path class="cls-102" d="M193.35,232.29v-.17l0,.19-.09,1.52h0Z"/><polygon class="cls-29" points="193.25 233.83 192.92 239.07 192.93 239.07 193.25 233.83 193.25 233.83"/><polygon class="cls-103" points="193.25 233.83 192.92 239.07 192.93 239.07 193.25 233.83 193.25 233.83"/><polygon class="cls-57" points="192.75 242.05 192.74 242.02 191.61 260.23 191.62 260.23 191.62 260.21 192.75 242.05"/><polygon class="cls-104" points="192.75 242.05 192.74 242.02 191.61 260.23 191.62 260.23 191.62 260.21 192.75 242.05"/><path class="cls-16" d="M192.64,260.71c1.23.58,2.44,1.12,3.61,1.6v-.08c-1.18-.46-2.39-1-3.6-1.53Z"/><path class="cls-105" d="M192.64,260.71c1.23.58,2.44,1.12,3.61,1.6v-.08c-1.18-.46-2.39-1-3.6-1.53Z"/><path class="cls-106" d="M192.64,260.71c1.23.58,2.44,1.12,3.61,1.6v-.08c-1.18-.46-2.39-1-3.6-1.53Z"/><path class="cls-26" d="M193.25,233.83h0l.1-1.54c.17-1.69.37-3.43.58-5.2l-.12.69c-.18,1.47-.34,2.92-.48,4.34v.17Z"/><path class="cls-107" d="M193.25,233.83h0l.1-1.54c.17-1.69.37-3.43.58-5.2l-.12.69c-.18,1.47-.34,2.92-.48,4.34v.17Z"/><path class="cls-108" d="M193.25,233.83h0l.1-1.54c.17-1.69.37-3.43.58-5.2l-.12.69c-.18,1.47-.34,2.92-.48,4.34v.17Z"/><polygon class="cls-26" points="192.93 239.07 192.75 242.05 192.77 242.12 192.96 239.07 192.93 239.07"/><polygon class="cls-109" points="192.93 239.07 192.75 242.05 192.77 242.12 192.96 239.07 192.93 239.07"/><polygon class="cls-110" points="192.93 239.07 192.75 242.05 192.77 242.12 192.96 239.07 192.93 239.07"/><polygon class="cls-29" points="193.28 233.83 193.25 233.83 192.93 239.07 192.96 239.07 193.28 233.83"/><polygon class="cls-111" points="193.28 233.83 193.25 233.83 192.93 239.07 192.96 239.07 193.28 233.83"/><polygon class="cls-112" points="193.28 233.83 193.25 233.83 192.93 239.07 192.96 239.07 193.28 233.83"/><path class="cls-57" d="M192.64,260.69l-1-.45,1.13-18.11,0-.08-1.13,18.16v0l1,.48Z"/><path class="cls-113" d="M192.64,260.69l-1-.45,1.13-18.11,0-.08-1.13,18.16v0l1,.48Z"/><path class="cls-114" d="M192.64,260.69l-1-.45,1.13-18.11,0-.08-1.13,18.16v0l1,.48Z"/><path class="cls-26" d="M193.84,227.78l.12-.69q.38-3.13.87-6.38v-.08l-.05.1Q194.25,224.32,193.84,227.78Z"/><path class="cls-115" d="M193.84,227.78l.12-.69q.38-3.13.87-6.38v-.08l-.05.1Q194.25,224.32,193.84,227.78Z"/><path class="cls-116" d="M193.84,227.78l.12-.69q.38-3.13.87-6.38v-.08l-.05.1Q194.25,224.32,193.84,227.78Z"/><path class="cls-117" d="M193.84,227.78l.12-.69q.38-3.13.87-6.38v-.08l-.05.1Q194.25,224.32,193.84,227.78Z"/><path class="cls-27" d="M194,227.09c-.22,1.77-.41,3.5-.58,5.2l-.1,1.54-.33,5.24-.19,3.06-1.13,18.11,1,.45c1.22.55,2.42,1.07,3.6,1.53-1.05-17.3-.4-43.5-.4-43.5l-1,1.9v.08Q194.34,224,194,227.09Z"/><path class="cls-118" d="M194,227.09c-.22,1.77-.41,3.5-.58,5.2l-.1,1.54-.33,5.24-.19,3.06-1.13,18.11,1,.45c1.22.55,2.42,1.07,3.6,1.53-1.05-17.3-.4-43.5-.4-43.5l-1,1.9v.08Q194.34,224,194,227.09Z"/><path class="cls-32" d="M84.53,430.62a10.45,10.45,0,0,0-1,.89,5.31,5.31,0,0,1-.54.55c-1.08,1-2.4,1.52-4.06-.76,0-.12,0-.23,0-.35-.56,4-.85,8.69-.2,8.69H93.91c8.53,0,6.46-3.32,5.42-3.12s-12.07-2.09-12.49-2.92a6.55,6.55,0,0,1-.24-3.3c0-.06,0-.13,0-.19a.43.43,0,0,0-.46-.52v.14A7.17,7.17,0,0,0,84.53,430.62Z"/><path class="cls-119" d="M79.12,427.77c-.11,1-.17,2-.19,3q2.89-.28,5.94-.41a10.45,10.45,0,0,1,1.12-.72.42.42,0,0,1,.18-.06c-.1-1-.18-1.83-.18-1.83H79.12Z"/><path class="cls-2" d="M78.93,430.9c1.65,2.27,3,2.12,4,1.17.18-.17.35-.36.52-.55a7.17,7.17,0,0,1,1-.89l.34-.25q-3.05.13-5.94.41c0,.06,0,.12,0,.18Z"/><path class="cls-120" d="M78.93,430.9c1.65,2.27,3,2.12,4,1.17.18-.17.35-.36.52-.55a7.17,7.17,0,0,1,1-.89l.34-.25q-3.05.13-5.94.41c0,.06,0,.12,0,.18Z"/><path class="cls-32" d="M86,429.66a10.45,10.45,0,0,0-1.12.72l-.34.25a7.17,7.17,0,0,1,1.65-.89v-.14A.42.42,0,0,0,86,429.66Z"/><path class="cls-121" d="M86,429.66a10.45,10.45,0,0,0-1.12.72l-.34.25a7.17,7.17,0,0,1,1.65-.89v-.14A.42.42,0,0,0,86,429.66Z"/><path class="cls-32" d="M78.93,430.9V431c0,.12,0,.23,0,.35,1.66,2.28,3,1.8,4.06.76C81.89,433,80.58,433.16,78.93,430.9Z"/><path class="cls-122" d="M78.93,430.9V431c0,.12,0,.23,0,.35,1.66,2.28,3,1.8,4.06.76C81.89,433,80.58,433.16,78.93,430.9Z"/><path class="cls-32" d="M55.39,439.65h15.2c8.54,0,6.45-3.32,5.41-3.12s-11.28-1.93-12.4-2.82a.34.34,0,0,1-.09-.1,6.55,6.55,0,0,1-.21-3.49.42.42,0,0,0-.45-.51l0,.13a7.17,7.17,0,0,0-1.78,1,10.42,10.42,0,0,0-.91.79c-1.17,1.36-2.64,2.45-4.58-.21,0-.1,0-.23,0-.36l0-.05a55.55,55.55,0,0,0-.58,6.75C55,438.85,55.12,439.65,55.39,439.65Z"/><path class="cls-123" d="M60.18,431.52a7.16,7.16,0,0,1,.91-.79,10.45,10.45,0,0,1,1.57-1.07.42.42,0,0,1,.19-.05,16.17,16.17,0,0,1-.13-1.84h0v.1H55.91c-.11,1-.18,2.27-.27,3.09C57.56,433.54,59,432.89,60.18,431.52Z"/><path class="cls-32" d="M60.18,431.52c-1.16,1.37-2.62,2-4.54-.57,0,.13,0,.25,0,.36C57.54,434,59,432.88,60.18,431.52Z"/><path class="cls-124" d="M60.18,431.52c-1.16,1.37-2.62,2-4.54-.57,0,.13,0,.25,0,.36C57.54,434,59,432.88,60.18,431.52Z"/><path class="cls-32" d="M62.66,429.66a10.45,10.45,0,0,0-1.57,1.07,7.17,7.17,0,0,1,1.78-1l0-.13A.42.42,0,0,0,62.66,429.66Z"/><path class="cls-125" d="M62.66,429.66a10.45,10.45,0,0,0-1.57,1.07,7.17,7.17,0,0,1,1.78-1l0-.13A.42.42,0,0,0,62.66,429.66Z"/><path class="cls-126" d="M102.51,253.76l-.13-1.4-1.44-.24c.27,1,.49,1.83.65,2.51l.69.1Z"/><path class="cls-126" d="M87.61,227.66l-1,7.56a14.2,14.2,0,0,0,3.19-.88l2-17.52,17.29,1.25-1.25,17.66a6,6,0,0,0,3.48-2.58l1.6-16,0,0a1.31,1.31,0,0,0-1.2-1.41l-3.74-.33,0,.45a.85.85,0,0,1-.93.76L95.84,215.4a.85.85,0,0,1-.76-.93l0-.27-4.39-.39a1.31,1.31,0,0,0-1.4,1.13l-1.54,11.49.05,0Z"/><path class="cls-26" d="M106.2,241.81c0-.07,0-.13,0-.19-.21-2.13-2.83-5.4-2.71-6.66v-.24h0c.17-2,0-4,.82-5s.83,3.12,2.29,5.41a1.23,1.23,0,0,0,1.27.56l1.25-17.66-17.29-1.25-2,17.52h0c.77-.52,2.34-3.44,2.55-2.82a6.18,6.18,0,0,1-.42,3.33c-.25.38-1,1.27-1.6,1.93a24.36,24.36,0,0,1,3.62.62c2.75,1,5.36,8.85,6.82,14.11l.17.62,1.44.24.13,1.4.14-.58h0v0h.05C103.41,251.38,106.15,244,106.2,241.81Z"/><path class="cls-127" d="M95.84,215.4,107,216.55a.85.85,0,0,0,.93-.76l0-.45,0-.31s-12.76-1.22-12.87-1.18l0,.35,0,.27A.85.85,0,0,0,95.84,215.4Z"/><path class="cls-26" d="M86.6,235.22l-.29,0,1.3-7.61.17-1.23c-.24.15-1.28.83-1.47,1.58s-2.08,5-2.71,6.87a9.77,9.77,0,0,0-.26,1.39c1.08,0,2.12.08,3.1.15Z"/><path class="cls-128" d="M86.6,235.22l-.29,0,1.3-7.61.17-1.23c-.24.15-1.28.83-1.47,1.58s-2.08,5-2.71,6.87a9.77,9.77,0,0,0-.26,1.39c1.08,0,2.12.08,3.1.15Z"/><path class="cls-126" d="M86.6,235.22l-.16,1.2c1.12.07,2.15.17,3.08.26l.27-2.34A14.2,14.2,0,0,1,86.6,235.22Z"/><path class="cls-129" d="M86.6,235.22l-.16,1.2c1.12.07,2.15.17,3.08.26l.27-2.34A14.2,14.2,0,0,1,86.6,235.22Z"/><path class="cls-126" d="M87.83,226.4l-.05,0-.17,1.23Z"/><path class="cls-130" d="M87.83,226.4l-.05,0-.17,1.23Z"/><path class="cls-26" d="M92.35,231.52c-.21-.62-1.78,2.3-2.55,2.82h0l-.27,2.34.82.09c.58-.66,1.35-1.55,1.6-1.93A6.18,6.18,0,0,0,92.35,231.52Z"/><path class="cls-131" d="M92.35,231.52c-.21-.62-1.78,2.3-2.55,2.82h0l-.27,2.34.82.09c.58-.66,1.35-1.55,1.6-1.93A6.18,6.18,0,0,0,92.35,231.52Z"/><path class="cls-26" d="M77,232.77h0c-2.38-2.14-2.67-6.77-2.67-6.77a11.78,11.78,0,0,0,4.16,4,4.77,4.77,0,0,0,3.39.41h0c.58-1.14,1-3.24,1.39-6.48a102,102,0,0,0,.25-11.07l0,0c0-.13,0-.26,0-.39,0-.81-.05-1.62-.1-2.43a15.32,15.32,0,0,1-6.18,2.54c.39,1.75,1.07,6.23-1.19,9.86,0,0-.21-9-3.12-8.12s-1.8,6.82-.62,7.29a1.94,1.94,0,0,0,2.08-.62s-.42,13.12-7.91,12.7a5.07,5.07,0,0,1-1.65-.38c-.16,2-.3,3.92-.4,5.12a47.26,47.26,0,0,1,12.37-2.11A19.93,19.93,0,0,1,77,232.77Z"/><path class="cls-132" d="M77,232.77h0c-2.38-2.14-2.67-6.77-2.67-6.77a11.78,11.78,0,0,0,4.16,4,4.77,4.77,0,0,0,3.39.41h0c.58-1.14,1-3.24,1.39-6.48a102,102,0,0,0,.25-11.07l0,0c0-.13,0-.26,0-.39,0-.81-.05-1.62-.1-2.43a15.32,15.32,0,0,1-6.18,2.54c.39,1.75,1.07,6.23-1.19,9.86,0,0-.21-9-3.12-8.12s-1.8,6.82-.62,7.29a1.94,1.94,0,0,0,2.08-.62s-.42,13.12-7.91,12.7a5.07,5.07,0,0,1-1.65-.38c-.16,2-.3,3.92-.4,5.12a47.26,47.26,0,0,1,12.37-2.11A19.93,19.93,0,0,1,77,232.77Z"/><path class="cls-26" d="M77.25,231.4q.88.08,1.77.08-.88,0-1.76-.08Z"/><path class="cls-133" d="M77.25,231.4q.88.08,1.77.08-.88,0-1.76-.08Z"/><path class="cls-44" d="M78.5,230a11.78,11.78,0,0,1-4.16-4s.29,4.63,2.67,6.77h0c.12-.82.23-1.37.23-1.37h0q.88.08,1.76.08t1.78-.08a1.62,1.62,0,0,0,1.11-1h0A4.77,4.77,0,0,1,78.5,230Z"/><path class="cls-44" d="M82.89,206.41s-2.1,4.18-5.85,5.43c0,0,.09.29.19.76a15.32,15.32,0,0,0,6.18-2.54l0,0A24.24,24.24,0,0,0,82.89,206.41Z"/><path class="cls-16" d="M106.74,252.4l-.46,1.52a12.12,12.12,0,0,1,5,2.52c.11-1.15.23-2.56.35-4Z"/><path class="cls-134" d="M106.74,252.4l-.46,1.52a12.12,12.12,0,0,1,5,2.52c.11-1.15.23-2.56.35-4Z"/><path class="cls-17" d="M106.74,252.4h4.85c.18-2.24.35-4.63.42-6.58h-3.27Z"/><path class="cls-135" d="M106.74,252.4h4.85c.18-2.24.35-4.63.42-6.58h-3.27Z"/><path class="cls-26" d="M114.78,233.83a7.75,7.75,0,0,0,.57-1.79c.21-1.87-2.93-8.52-2.93-8.52l-.21,3.75s.63,3.75-.83,5.83l0,.06-.07.67Z"/><path class="cls-136" d="M114.78,233.83a7.75,7.75,0,0,0,.57-1.79c.21-1.87-2.93-8.52-2.93-8.52l-.21,3.75s.63,3.75-.83,5.83l0,.06-.07.67Z"/><path class="cls-26" d="M110.72,239.31l-2,6.51H112c0-1.11.05-2.08,0-2.78a11.45,11.45,0,0,1,.66-4h-1.93Z"/><path class="cls-137" d="M110.72,239.31l-2,6.51H112c0-1.11.05-2.08,0-2.78a11.45,11.45,0,0,1,.66-4h-1.93Z"/><path class="cls-29" d="M110.74,239.07h1.93c.62-1.93,1.52-3.81,2.1-5.24h-3.51Z"/><path class="cls-138" d="M110.74,239.07h1.93c.62-1.93,1.52-3.81,2.1-5.24h-3.51Z"/><path class="cls-126" d="M107.86,235.73l-.21,2.91-.31,1.19c.91,1.36.84,2.5.1,4.28a27.33,27.33,0,0,0-1.67,9.66l.51.14.46-1.52,2-6.58,2-6.51,0-.24.52-5.24.07-.67A6,6,0,0,1,107.86,235.73Z"/><path class="cls-139" d="M107.86,235.73l-.21,2.91-.31,1.19c.91,1.36.84,2.5.1,4.28a27.33,27.33,0,0,0-1.67,9.66l.51.14.46-1.52,2-6.58,2-6.51,0-.24.52-5.24.07-.67A6,6,0,0,1,107.86,235.73Z"/><path class="cls-26" d="M106.19,241.62c0,.06,0,.12,0,.19a2.11,2.11,0,0,0,0-.24c-.21-2.13-2.83-5.4-2.71-6.66v0C103.36,236.22,106,239.49,106.19,241.62Z"/><path class="cls-140" d="M106.19,241.62c0,.06,0,.12,0,.19a2.11,2.11,0,0,0,0-.24c-.21-2.13-2.83-5.4-2.71-6.66v0C103.36,236.22,106,239.49,106.19,241.62Z"/><path class="cls-26" d="M106.59,235.18c-1.46-2.29-1.47-6.41-2.29-5.41s-.64,3-.82,5a8.78,8.78,0,0,0,2.27,3.3,11,11,0,0,1,1.59,1.81l.31-1.19.21-2.91A1.23,1.23,0,0,1,106.59,235.18Z"/><path class="cls-141" d="M106.59,235.18c-1.46-2.29-1.47-6.41-2.29-5.41s-.64,3-.82,5a8.78,8.78,0,0,0,2.27,3.3,11,11,0,0,1,1.59,1.81l.31-1.19.21-2.91A1.23,1.23,0,0,1,106.59,235.18Z"/><path class="cls-44" d="M107.44,244.12c.74-1.78.82-2.92-.1-4.28a11,11,0,0,0-1.59-1.81,8.78,8.78,0,0,1-2.27-3.3h0v.19c-.12,1.26,2.5,4.53,2.71,6.66a2.11,2.11,0,0,1,0,.24c0,2.23-2.78,9.57-3.46,11.36h.11a26,26,0,0,1,2.93.61A27.33,27.33,0,0,1,107.44,244.12Z"/><path class="cls-33" d="M62.68,427.76,72.12,344l-.48-3.28c-2.13-14.48-4.93-21.07-4.79-31.91A70.81,70.81,0,0,1,55,307.67c-2.68,8.89-2.35,18-1.73,25.13.11,1.32.24,2.58.35,3.76,1.06,11,1.39,27.83-1.53,43.83s3.74,47.46,3.74,47.46h6.8Z"/><path class="cls-33" d="M93.49,303c-.65.35-1.31.7-2,1a42.51,42.51,0,0,1-5,2q-1.27.42-2.57.76a62.67,62.67,0,0,1-17.12,2c-.14,10.84,2.66,17.43,4.79,31.91l.48,3.28c2.36,16.14,3.36,24.71,1.6,38.78-1.88,15,5.41,45,5.41,45H86l6-94.65,1.9-29.87Z"/><path class="cls-27" d="M55.55,300.7l-.17,1.5-.62,5.42.28.06a70.81,70.81,0,0,0,11.81,1.13,62.67,62.67,0,0,0,17.12-2c-.69-8.79,1.59-22.76,2.44-31.08a49.56,49.56,0,0,0-3.75-23.11c.15.2,4.23,5.86,7.91,7.91s4.58,3.12,9.15,11.84c2.14,4.09,4.35,5.28,6.12,5.39a20.16,20.16,0,0,0,2.09-4.8,120.74,120.74,0,0,0,3.47-16.38l-.16-.17a12.12,12.12,0,0,0-5-2.52l-.51-.14a26,26,0,0,0-2.93-.61h-.16v0h.13l1.51,12.12-2.38-9.12v0l-.28-1.18-.08-.33c-.16-.68-.38-1.53-.65-2.51l-.17-.62C99.31,246.25,96.7,238.4,94,237.4a24.36,24.36,0,0,0-3.62-.62l-.82-.09c-.93-.1-2-.19-3.08-.26s-2-.12-3.1-.15c-2.06-.06-4.28-.05-6.54.07a47.26,47.26,0,0,0-12.37,2.11l-.57.19c-7.36,2.67-11.47,5.11-13.65,7.18a7.09,7.09,0,0,0-2,2.82,27.07,27.07,0,0,0-.47,3.76c-.4,4.74-.8,13-.66,20.59.1,5.35.48,10.3,1.31,13.33.5,1.8,1.15,2.93,2,3a9.8,9.8,0,0,0,3.24-.1A5.46,5.46,0,0,0,57,287.12V287a4.9,4.9,0,0,1-3.42,2.19c.87-3.39,1.83-8.11,1.34-10.94-.83-4.79-1.25-8.12,0-14.16a26.21,26.21,0,0,0,0-10.82c4.13,8.61,2.8,26.73,2.08,33.83l0-.05-.05.5-.28,2.5-.84,7.37v.11ZM101.62,255l-.9-3.46C101.11,253,101.42,254.18,101.62,255Z"/><path class="cls-27" d="M101.62,255c-.2-.85-.51-2.06-.9-3.46Z"/><path class="cls-142" d="M101.62,255c-.2-.85-.51-2.06-.9-3.46Z"/><polygon class="cls-16" points="101.97 256.17 102.31 254.74 102.28 254.74 101.95 256.14 101.97 256.23 101.97 256.17"/><polygon class="cls-143" points="101.97 256.17 102.31 254.74 102.28 254.74 101.95 256.14 101.97 256.23 101.97 256.17"/><polygon class="cls-126" points="102.31 254.74 102.52 253.84 102.51 253.76 102.28 254.74 102.31 254.74"/><polygon class="cls-144" points="102.31 254.74 102.52 253.84 102.51 253.76 102.28 254.74 102.31 254.74"/><path class="cls-26" d="M102.51,253.76v.08l.06-.27h0v0l.08-.34h0Z"/><path class="cls-145" d="M102.51,253.76v.08l.06-.27h0v0l.08-.34h0Z"/><path class="cls-44" d="M102.58,253.57h0v0Z"/><path class="cls-146" d="M102.58,253.57h0v0Z"/><polygon class="cls-27" points="102.58 253.57 102.52 253.84 102.31 254.74 101.97 256.17 101.97 256.23 101.95 256.14 101.94 256.19 104.32 265.31 102.81 253.19 102.67 253.19 102.59 253.53 102.58 253.57"/><polygon class="cls-147" points="102.58 253.57 102.52 253.84 102.31 254.74 101.97 256.17 101.97 256.23 101.95 256.14 101.94 256.19 104.32 265.31 102.81 253.19 102.67 253.19 102.59 253.53 102.58 253.57"/><path class="cls-16" d="M95.7,271.39l.31.54Z"/><path class="cls-148" d="M95.7,271.39l.31.54Z"/><path class="cls-2" d="M101.91,278.89a6.62,6.62,0,0,1-.75-.5A6.62,6.62,0,0,0,101.91,278.89Z"/><path class="cls-149" d="M101.91,278.89a6.62,6.62,0,0,1-.75-.5A6.62,6.62,0,0,0,101.91,278.89Z"/><path class="cls-150" d="M101.91,278.89a6.62,6.62,0,0,1-.75-.5A6.62,6.62,0,0,0,101.91,278.89Z"/><path class="cls-2" d="M104.11,279.31a2.94,2.94,0,0,1-2.2-.42,2.94,2.94,0,0,0,2.2.42,3.39,3.39,0,0,0,1.4-1A3.39,3.39,0,0,1,104.11,279.31Z"/><path class="cls-151" d="M104.11,279.31a2.94,2.94,0,0,1-2.2-.42,2.94,2.94,0,0,0,2.2.42,3.39,3.39,0,0,0,1.4-1A3.39,3.39,0,0,1,104.11,279.31Z"/><path class="cls-152" d="M104.11,279.31a2.94,2.94,0,0,1-2.2-.42,2.94,2.94,0,0,0,2.2.42,3.39,3.39,0,0,0,1.4-1A3.39,3.39,0,0,1,104.11,279.31Z"/><path class="cls-2" d="M99,276.25c-.34-.41-.67-.84-1-1.26C98.32,275.41,98.65,275.84,99,276.25Z"/><path class="cls-153" d="M99,276.25c-.34-.41-.67-.84-1-1.26C98.32,275.41,98.65,275.84,99,276.25Z"/><path class="cls-154" d="M99,276.25c-.34-.41-.67-.84-1-1.26C98.32,275.41,98.65,275.84,99,276.25Z"/><path class="cls-2" d="M99.69,277a11.74,11.74,0,0,0,1.47,1.35A11.74,11.74,0,0,1,99.69,277Z"/><path class="cls-155" d="M99.69,277a11.74,11.74,0,0,0,1.47,1.35A11.74,11.74,0,0,1,99.69,277Z"/><path class="cls-156" d="M99.69,277a11.74,11.74,0,0,0,1.47,1.35A11.74,11.74,0,0,1,99.69,277Z"/><path class="cls-2" d="M98,275c-.41-.57-.8-1.13-1.13-1.65C97.22,273.86,97.6,274.42,98,275Z"/><path class="cls-157" d="M98,275c-.41-.57-.8-1.13-1.13-1.65C97.22,273.86,97.6,274.42,98,275Z"/><path class="cls-158" d="M98,275c-.41-.57-.8-1.13-1.13-1.65C97.22,273.86,97.6,274.42,98,275Z"/><path class="cls-33" d="M91.52,304.07a42.53,42.53,0,0,1-5,2A42.51,42.51,0,0,0,91.52,304.07Z"/><path class="cls-159" d="M91.52,304.07a42.53,42.53,0,0,1-5,2A42.51,42.51,0,0,0,91.52,304.07Z"/><path class="cls-27" d="M99.72,272.4c-4.57-8.72-5.47-9.79-9.15-11.84s-7.76-7.71-7.91-7.91a49.56,49.56,0,0,1,3.75,23.11c-.85,8.32-3.13,22.29-2.44,31.08q1.3-.34,2.57-.76a42.53,42.53,0,0,0,5-2c.67-.32,1.32-.67,2-1l.41-.21.05-.64c0-.36.07-.87.12-1.5.09-1.12.21-2.63.33-4.43s.26-3.81.39-6c.31-5.38.59-11.7.58-17.28,0-.75,0-1.5,0-2.22,0,0,.12.23.34.62l.31.54c.18.31.4.67.65,1.06l.22.35c.34.52.72,1.09,1.13,1.65s.64.85,1,1.26.46.54.7.8a11.74,11.74,0,0,0,1.47,1.35,6.62,6.62,0,0,0,.75.5,2.94,2.94,0,0,0,2.2.42,3.39,3.39,0,0,0,1.73-1.52C104.07,277.68,101.86,276.49,99.72,272.4Z"/><path class="cls-160" d="M99.72,272.4c-4.57-8.72-5.47-9.79-9.15-11.84s-7.76-7.71-7.91-7.91a49.56,49.56,0,0,1,3.75,23.11c-.85,8.32-3.13,22.29-2.44,31.08q1.3-.34,2.57-.76a42.53,42.53,0,0,0,5-2c.67-.32,1.32-.67,2-1l.41-.21.05-.64c0-.36.07-.87.12-1.5.09-1.12.21-2.63.33-4.43s.26-3.81.39-6c.31-5.38.59-11.7.58-17.28,0-.75,0-1.5,0-2.22,0,0,.12.23.34.62l.31.54c.18.31.4.67.65,1.06l.22.35c.34.52.72,1.09,1.13,1.65s.64.85,1,1.26.46.54.7.8a11.74,11.74,0,0,0,1.47,1.35,6.62,6.62,0,0,0,.75.5,2.94,2.94,0,0,0,2.2.42,3.39,3.39,0,0,0,1.73-1.52C104.07,277.68,101.86,276.49,99.72,272.4Z"/><path class="cls-161" d="M56.72,290c0-.22.14-1.1.28-2.46h0Z"/><path class="cls-2" d="M57,287.12l0,.43h0l0-.44Z"/><path class="cls-162" d="M57,287.12l0,.43h0l0-.44Z"/><path class="cls-27" d="M55,253.28a26.21,26.21,0,0,1,0,10.82c-1.25,6-.83,9.37,0,14.16.49,2.83-.47,7.55-1.34,10.94A4.9,4.9,0,0,0,57,287v.11h0C57.77,280,59.1,261.88,55,253.28Z"/><path class="cls-163" d="M55,253.28a26.21,26.21,0,0,1,0,10.82c-1.25,6-.83,9.37,0,14.16.49,2.83-.47,7.55-1.34,10.94A4.9,4.9,0,0,0,57,287v.11h0C57.77,280,59.1,261.88,55,253.28Z"/><path class="cls-39" d="M74.38,221a1.94,1.94,0,0,1-2.08.62c-1.18-.47-2.29-6.41.62-7.29S76,222.46,76,222.46c2.26-3.63,1.58-8.11,1.19-9.86-.11-.47-.19-.76-.19-.76,3.75-1.25,5.85-5.43,5.85-5.43a24.85,24.85,0,0,1,.62,6.07c0,.13,0,.26,0,.39l0,0c.35-.47,6.48-8.86-1-15-9-7.4-15-1.71-17.51,1-2.75,3-2,4.93-2,4.93-3.06-1.7-6.16,4.26-6,8.84.19,4.22,1.62,18.2,7.71,20.69a5.07,5.07,0,0,0,1.65.38C74,234.13,74.38,221,74.38,221Z"/></g></g></svg>