<svg xmlns="http://www.w3.org/2000/svg" xmlns:xlink="http://www.w3.org/1999/xlink" viewBox="0 0 132.46 115.38"><defs><style>.cls-1{fill:none;}.cls-2{fill:#21c2c5;}.cls-3{fill:#fff;}.cls-4{fill:#040a38;}.cls-5{fill:#9395c8;}.cls-6{fill:#1ea6a0;}.cls-7{fill:#00e29c;}.cls-8{fill:#dbebfb;}.cls-9{clip-path:url(#clip-path);}</style><clipPath id="clip-path"><path class="cls-1" d="M15,103A195.58,195.58,0,0,1,31.3,61.44a42.74,42.74,0,0,1,6.46-9.65,16.81,16.81,0,0,1,10-5.42,8.87,8.87,0,0,1,7.09,2c.89.85,1.52,1.93,2.37,2.82a3.88,3.88,0,0,0,3.24,1.42,5.1,5.1,0,0,0,2.45-1.48A24.82,24.82,0,0,1,68.5,47.1a9,9,0,0,1,6.7-.72A8.85,8.85,0,0,1,80,50.74a21.07,21.07,0,0,1,1.93,6.32,37.65,37.65,0,0,1,.62,10c-.41,4.42-1.95,8.65-3.47,12.82L73.41,95.28A130.76,130.76,0,0,1,68,108.58a14.08,14.08,0,0,1-3.23,4.62,12.85,12.85,0,0,1-5.41,2.43c-12.59,3-25.68-1.2-37.9-5.48a10,10,0,0,1-4.52-2.55c-1.7-2-1.56-4.93-1.32-7.54"/></clipPath></defs><title>avataruser</title><g id="Layer_2" data-name="Layer 2"><g id="Layer_1-2" data-name="Layer 1"><path class="cls-2" d="M36.16,95.14c-.77.11-.51.69-.52,1.15-.41.44,0,.39.26.46,1.16.34,2.36.44,3.53.76,2.53.67,5.11,1.16,7.67,1.7l11.22,2.37c.29.06.59.15.65-.24s-.23-.37-.48-.43l-7.3-1.71c-1.78-.41-3.56-.83-5.35-1.2-2.16-.45-4.32-.86-6.49-1.26-.76-.14-1-.43-.69-1.21,1.26-3.26,2.29-6.59,3.23-10a1.58,1.58,0,0,0-.07-1.46,31.42,31.42,0,0,0-2.19,4.18c-.73,1.37-1.34,2.8-2,4.18A3.51,3.51,0,0,0,37,94.31c-.39,0-.72,0-.66.54Z"/><path class="cls-2" d="M38.21,53.32a8.7,8.7,0,0,0,2,.53c3.9.05,7.14,4.44,7.62,7.51s-.3,6-1.24,8.91c-.32,1-.54,2-.81,3a1.21,1.21,0,0,0,.72-.66c.6-1.61,1.23-3.21,1.74-4.85a13.86,13.86,0,0,0,.51-6.25,10.07,10.07,0,0,0-4.93-7.27A7.42,7.42,0,0,0,38.21,53.32Z"/><path class="cls-2" d="M61.46,63.45c.46-.19.91-.45.88-1s-.25-.91-.82-.85-1,.22-1,.84S61,63.26,61.46,63.45Z"/><path class="cls-2" d="M62.62,68.61a1.12,1.12,0,0,0-.89-.94.85.85,0,0,0-.92.8.93.93,0,0,0,1,1C62.25,69.48,62.51,69.14,62.62,68.61Z"/><path class="cls-3" d="M51.58,48.36a2.66,2.66,0,0,0,1.7-2.46,35.21,35.21,0,0,0-.1-7.63A1.34,1.34,0,0,0,51.77,37c-2.36-.26-3.59-2-4.54-3.91a6,6,0,0,1,.14-5.61c1.9-.2,3.86-.64,5.32,1.18l.36.67c0,.6.09,1.15.79,1.34l.34.43c-.15.48.15.51.49.51l.53.3c0,.17.05.29.23.26s.11-.15.16-.23c.73-.22.86-.84,1-1.47.42-.07.34-.41.4-.7a24.8,24.8,0,0,0,.16-4.08A7.9,7.9,0,0,0,56.92,22l0-1.13c.07-.17.2-.35.19-.52-.15-1.57.82-1.72,2.05-1.87a12.92,12.92,0,0,0,3.67-.63l.51,0a5.88,5.88,0,0,0,2.09.06c.66,0,1.4.3,2-.32l2.31-.06a8.63,8.63,0,0,0,3.74,0h1.23c1.75.46,1.75.46,1.77,2.48a9.14,9.14,0,0,0,.43,3.79,18.21,18.21,0,0,0,0,3.2c-.34.58.11,1.14,0,1.71a11.66,11.66,0,0,0-.3,2.94c.29,2.69-.45,5.22-.74,7.81a10.59,10.59,0,0,1-2,5.17,5.19,5.19,0,0,1-4.87,2c-.31,0-.72-.12-.89.29a.93.93,0,0,0,.22,1,4,4,0,0,1,.31.33c.11.15.2.31.31.46a2.73,2.73,0,0,0-.18,1.55,15.07,15.07,0,0,1-1.09,6.5,6.09,6.09,0,0,1-4.13,4.08,6.31,6.31,0,0,1-6.31-1.7C54.13,56.13,52.75,52.3,51.58,48.36ZM66.08,25.8a2.91,2.91,0,0,0-4.72-.72c-.1.12-.22.23-.14.39s.33.17.49.08A3.75,3.75,0,0,1,66.08,25.8Zm7.42-2.06a6.32,6.32,0,0,0-2.22.88c-.22.19-.36.41-.24.68s.43.21.66.07a3,3,0,0,1,3.65,0c.14.1.35.21.5,0a.4.4,0,0,0-.11-.59A4.09,4.09,0,0,0,73.5,23.75Zm-8.85,5.37a.88.88,0,0,0,.88-1c0-.54-.2-1-.75-1.09s-.87.38-.92.9A1,1,0,0,0,64.65,29.12Zm10-2.23a1,1,0,0,0-.82,1,.84.84,0,0,0,.75,1c.58,0,.85-.4.87-.95A1,1,0,0,0,74.68,26.89Z"/><path class="cls-4" d="M57.76,22c0,.4-.14,2.43-.13,2.83A12.1,12.1,0,0,0,57.38,28c0,.8-.77.12-1.58.08-2-.09-4,.5-6-.12a1.92,1.92,0,0,0-1.31.16c-.72.37-1,0-1.32-.57-.47-.78-.63-1.76-1.33-2.4l-.19-.58a2.49,2.49,0,0,0-.08-.56c-1.41-3.72-1.91-7.47-.3-11.28l.08-.16a1.34,1.34,0,0,0,.82-1h0c1.14-.6,2.14-1.55,3.55-1.49a.38.38,0,0,0,.4-.45.43.43,0,0,0-.37-.41,1.28,1.28,0,0,1-.49-.18l-.09,0a.78.78,0,0,1-.56-.17l-.41-.08c-.15-.36,0-.5.34-.51a4.08,4.08,0,0,1,2.3.33c.76.43,1,.15,1-.68A10,10,0,0,1,52.45,4h0L53,5.44a3.68,3.68,0,0,0,0,2.11c.1.54.51.78.86.08v0c.71-.2,1.18-.81,1.82-1.16a16.67,16.67,0,0,1,7.52-1.74c2.7-.11,5.42.13,8.11-.21,1.54-.2,3.14-.37,4.16-1.89h0c.73-.28.87-1,1.16-1.62.17-.36.11-.9.66-1h0A16.08,16.08,0,0,0,79.79,2.6h0a.8.8,0,0,0,.57.8.84.84,0,0,0,.09.16,1.13,1.13,0,0,0,.05.34c2.34,4.6,1.85,8.8-1.66,12.55a1.69,1.69,0,0,0-.4,1.29c0,1.84,0,3.69,0,5.53,0,.41.24,1.16-.34,1.17s-1.64,0-1.8-.65a8.45,8.45,0,0,1-.13-1c0-1,0-1.85,0-2.83,0-1.63.12-2.17-1.47-1.72l-1.24,0a7.58,7.58,0,0,0-3.76,0l-2.31.06a8.6,8.6,0,0,0-4.05.27l-.43.06a13.63,13.63,0,0,0-4.81.45C56.45,19.38,57,20.36,57.76,22Z"/><path class="cls-4" d="M76.63,23.33c.71.09,1,1,1.55,1.35a6.28,6.28,0,0,1,0,2,1.5,1.5,0,0,0-.31,1.15l0,.05-1.2.16A34,34,0,0,1,76.63,23.33Z"/><path class="cls-5" d="M20.27,85.55A29.59,29.59,0,0,1,18,91.3,24.73,24.73,0,0,1,20.27,85.55Z"/><path class="cls-5" d="M16.1,98a9,9,0,0,1-.59,3.27A6.17,6.17,0,0,1,16.1,98Z"/><path class="cls-5" d="M16.94,94.87a7.72,7.72,0,0,1-.75,2.62A4,4,0,0,1,16.94,94.87Z"/><path class="cls-5" d="M27.76,68.47a4.65,4.65,0,0,1-1.07,2.23A3.78,3.78,0,0,1,27.76,68.47Z"/><path class="cls-5" d="M15.51,104.47a5.53,5.53,0,0,1,.64,2.2A2.73,2.73,0,0,1,15.51,104.47Z"/><path class="cls-5" d="M17.78,92.19A4.62,4.62,0,0,1,17,94.37,3.4,3.4,0,0,1,17.78,92.19Z"/><path class="cls-5" d="M21.29,83a2.31,2.31,0,0,1-.78,1.81A4,4,0,0,1,21.29,83Z"/><path class="cls-5" d="M24.62,75.32a1.3,1.3,0,0,1-.54,1.21A1.3,1.3,0,0,1,24.62,75.32Z"/><path class="cls-5" d="M26.51,71.18a1.41,1.41,0,0,1-.59,1.21A1.32,1.32,0,0,1,26.51,71.18Z"/><path class="cls-5" d="M15.44,102.63a.7.7,0,0,1,0,.89A.56.56,0,0,1,15.44,102.63Z"/><path class="cls-5" d="M23,79.08c0,.39,0,.78-.42,1A.91.91,0,0,1,23,79.08Z"/><path class="cls-5" d="M22,81.57a.68.68,0,0,1-.38.78A.59.59,0,0,1,22,81.57Z"/><rect class="cls-1" x="3.69" y="105.31" width="124.5" height="10.07" rx="5.03" ry="5.03"/><path class="cls-5" d="M23.79,77.2a.63.63,0,0,1-.36.8A.7.7,0,0,1,23.79,77.2Z"/><path class="cls-5" d="M25.29,73.9c.08.21,0,.32-.21.36C25,74.05,25.06,73.93,25.29,73.9Z"/><path class="cls-5" d="M22.35,80.56c.09.2,0,.3-.18.34C22.08,80.69,22.14,80.59,22.35,80.56Z"/><polygon class="cls-5" points="28.2 66.83 28.23 66.86 28.19 66.88 28.2 66.83"/><path class="cls-4" d="M37.82,106.28l20,0,.54-.08c1.05.06,2.11.08,3.16.19a1.38,1.38,0,0,0,1.7-1.26,19.1,19.1,0,0,1,.65-2c.19-.42.41-.83.56-1.26q3.51-10.18,7-20.36,2.14-6.27,4.2-12.57c.28-.87.75-1.28,1.62-1.12a20.06,20.06,0,0,0,3.77.13q25.09,0,50.17,0c.38,0,.77-.06,1.15-.1.33.64-.12,1.18-.3,1.72-2.71,7.94-5.47,15.87-8.19,23.81-1.4,4.08-2.76,8.18-4.14,12.27-.26.1-.37.26-.22.53l-.21.75c-.26.1-.37.26-.24.53l-.22.73a2.32,2.32,0,0,1-1.61.35c-17.08,0-34.16-.11-51.24,0-9,.08-17.92,0-26.88.12-.5,0-1,0-1.49,0A4.76,4.76,0,0,1,37.82,106.28Z"/><path class="cls-5" d="M119.55,106.57c-.15-.26,0-.42.21-.52A.36.36,0,0,1,119.55,106.57Z"/><path class="cls-5" d="M119.11,107.82c-.13-.27,0-.42.23-.52A.36.36,0,0,1,119.11,107.82Z"/><path class="cls-6" d="M37,94.31a3.52,3.52,0,0,1,.62-1.83c.7-1.38,1.31-2.81,2-4.18a31.42,31.42,0,0,1,2.19-4.18,1.58,1.58,0,0,1,.07,1.46c-.94,3.36-2,6.7-3.23,10-.3.78-.06,1.07.69,1.21,2.17.4,4.33.82,6.49,1.26,1.79.37,3.57.79,5.35,1.2l7.3,1.71c.25.06.53.13.48.43s-.35.3-.65.24L47.1,99.21c-2.56-.54-5.14-1-7.67-1.7-1.17-.31-2.37-.42-3.53-.76-.22-.07-.67,0-.26-.46.31,0,.59.46.92.05.74-.34.32-.94.34-1.45Z"/><path class="cls-6" d="M38.21,53.32a7.42,7.42,0,0,1,5.64.94,10.07,10.07,0,0,1,4.93,7.27,13.86,13.86,0,0,1-.51,6.25c-.51,1.64-1.14,3.24-1.74,4.85a1.21,1.21,0,0,1-.72.66c.27-1,.49-2,.81-3,.94-2.9,1.73-5.78,1.24-8.91s-3.72-7.46-7.62-7.51A8.7,8.7,0,0,1,38.21,53.32Z"/><path class="cls-7" d="M62.79,59.4l.42-.21c.72,3,.62,6.15.85,9.23a13,13,0,0,1-.21,2.47c0,.25-.07.56-.35.56s-.27-.35-.26-.57c0-1.21-.14-2.41-.2-3.61C62.91,64.64,62.87,62,62.79,59.4Z"/><path class="cls-6" d="M61.46,63.45c-.48-.19-.88-.47-.91-1s.48-.79,1-.84.8.41.82.85S61.93,63.26,61.46,63.45Z"/><path class="cls-6" d="M62.62,68.61c-.11.54-.36.88-.84.85a.93.93,0,0,1-1-1,.85.85,0,0,1,.92-.8A1.12,1.12,0,0,1,62.62,68.61Z"/><path class="cls-8" d="M36.9,94.9c0,.51.4,1.11-.34,1.45-.5-.28-.74-.64-.4-1.2l.14-.3Z"/><path class="cls-5" d="M36.16,95.14c-.34.56-.1.92.4,1.2-.33.41-.61-.07-.92-.05C35.65,95.84,35.39,95.26,36.16,95.14Z"/><path class="cls-5" d="M36.9,94.9l-.6-.06c-.06-.53.27-.57.66-.54Z"/><path class="cls-4" d="M51.84,28.28c-.36-.79-.19-1.14.76-1.09a27.71,27.71,0,0,0,3.37,0c1.06-.08,1.59.37,1.42,1.27-.14.72-.4.93-.26,1.67-.14.82-.55,2.16-1.5,2.45l-.51,0-.69-.39c-.07-.36-.37-.49-.64-.66l-.45-.55a3.09,3.09,0,0,0-1-1.75Z"/><path class="cls-3" d="M57.88,106.62a31.68,31.68,0,0,1,.19-4.47c0-.89.55-1.15,1.29-1,2.1.35,4.2.76,6.3,1.15a27,27,0,0,0-.92,2.83,1.94,1.94,0,0,1-2.39,1.78C60.85,106.73,59.36,106.71,57.88,106.62Z"/><path class="cls-2" d="M15.55,98c.6-2.11,1.6-4.09,2.27-6.18.43-1.35.73-2.74,1.08-4.11A83.5,83.5,0,0,1,25.73,70.5a41.44,41.44,0,0,1,5.9-9.2,10.7,10.7,0,0,1-1,4.1L23.1,85l-1.25,3.25c-.31.8-.61,1.6-.93,2.4-1.6,4.06-3.39,8.12-4.07,12.46-.08.5,0,2.37-.46,2.59-.63.3-1.13-.6-1.28-1C14.41,102.77,15,99.92,15.55,98Z"/><path class="cls-3" d="M61,27.76a8.07,8.07,0,0,0,3.18,2.73,3.18,3.18,0,0,0,2.52.42c.65-.25,1.09-.84,1.7-1.18a2.37,2.37,0,0,1,1.68-.23,9.93,9.93,0,0,1,1.36.56,4.5,4.5,0,0,0,2.74.19,2.32,2.32,0,0,0,1-.5,2.55,2.55,0,0,0,.64-1.11,13.66,13.66,0,0,0,.44-4.45,2.3,2.3,0,0,0-.17-1,1.74,1.74,0,0,0-.77-.71,6.44,6.44,0,0,0-2.56-.59,33.67,33.67,0,0,0-8.17.38c-.92.16-1.77,0-2.68.11s-1.33.81-1.57,1.6A4.71,4.71,0,0,0,61,27.76Z"/><g class="cls-9"><path class="cls-7" d="M18.72,108.42l-.94,0a3.41,3.41,0,0,1-1.63-1.74,5.49,5.49,0,0,0-.66-2.23v-1a.69.69,0,0,0-.06-.79l.08-1.36a9,9,0,0,0,.59-3.34l.09-.45a7.45,7.45,0,0,0,.75-2.73l.11-.41a4.57,4.57,0,0,0,.73-2.17L18,91.3a29.59,29.59,0,0,0,2.24-5.75l.24-.71A2.31,2.31,0,0,0,21.29,83l.29-.68a.68.68,0,0,0,.38-.78l.22-.68c.2,0,.28-.14.18-.34l.21-.52c.43-.19.41-.58.4-1L23.43,78a.63.63,0,0,0,.36-.8l.29-.67a1.3,1.3,0,0,0,.54-1.21l.46-1.06c.2,0,.29-.16.21-.36l.64-1.51a1.41,1.41,0,0,0,.59-1.21l.19-.48a4.65,4.65,0,0,0,1.07-2.22l.24-.68c.28-.06.29-.26.26-.48l0-.45,0,0-.38-.18a41.33,41.33,0,0,0-7.24-2.25l-.46-.1A15,15,0,0,0,16.44,63c-2.31-.72-4.49-1.79-6.86-2.33l-.65-.22a.28.28,0,0,0-.4-.22L7.89,60a1.41,1.41,0,0,0-1.25-.61L6,59.18A7.37,7.37,0,0,0,3.14,57.7l-.69-.37c0-.24-.17-.3-.39-.27l-.21-.15a.28.28,0,0,0-.39-.25l-.26-.18c0-.32-.21-.5-.56-.44A1.34,1.34,0,0,1,0,54.73q0-17.8,0-35.61c.64,1.67,1.27,3.35,1.92,5a177.42,177.42,0,0,0,8.28,19.23,1.91,1.91,0,0,0,1.34,1q5.85,1.37,11.61,3.08a6,6,0,0,0,3.17.54c3.09,1.17,6.3,1.95,9.48,2.81.78.21,1.59.73,2.48.42,1.71-.61,3.41-1.26,5.14-1.82,2-.66,4.08-1.23,6.12-1.84,1.79,0,1.79,0,2.37,1.64l.06.13a39.29,39.29,0,0,0,3.18,6c1.93,2.57,4.18,4.36,7.61,4,.08,2.62.12,5.24.25,7.86.06,1.2.24,2.4.2,3.61,0,.22-.08.57.26.57s.32-.31.35-.56a13,13,0,0,0,.21-2.47c-.23-3.08-.13-6.19-.85-9.23l.78-.31c1.71-.61,2.54-2.11,3.22-3.68a16.44,16.44,0,0,0,1.37-6.48c0-.71.26-1,1-.78a2.48,2.48,0,0,0,.65.14,6.56,6.56,0,0,1,1.4.21l.17,0a32.08,32.08,0,0,1,6.79,2.74,4.17,4.17,0,0,0,3.18.25c2.63-.68,5.33-1,8-1.57,1.34-.29,2.71-.44,4.07-.66a1.18,1.18,0,0,0,1.09.11c3-.67,6-1,9.1-1.39,1.06-.13,2.13-.17,2.71-1.35.87-1.77,1.89-3.46,2.69-5.25,2.52-5.65,4.85-11.38,7-17.2q.88-2.44,1.83-4.85c.15-.39.35-1,.94-.75,2.14.74,4.41,1,6.55,1.75a1,1,0,0,1,.78,1.32c-.22,1.88-.37,3.78-.58,5.66a45.54,45.54,0,0,1-.87,5.51c-1.92-.24-2.16-.07-2.49,1.74-.51,2.81-.79,5.66-1.44,8.44a.35.35,0,0,0,.28.47.46.46,0,0,0,.06.15l-.82,1.08c-.29,0-.4.16-.32.46l-.11.17c-.46.11-.77.34-.72.86l-.64.82c-.2,0-.27.19-.21.44l-.11.17c-.36.07-.57.24-.49.65l-.12.19c-.44.11-.54.43-.52.83l-.07.16c-.62.52-1.29,1-1.13,2l-.15.45c-.19.17-.13.43-.17.66-.44,2.17-.43,4.4-1,6.55l-.1.18c-.86.34-1.11,1.24-1.67,1.85-.79.87-.5,1.57.7,1.84.49.38,1,.8,1.48,1.13,1.15.72,2.11,1.75,3.48,2.12.8,1.15-.11,1.86-.7,2.65H107.38a2.27,2.27,0,0,1-1.31-.22c0-.41.3-.6.52-.85l3.29-3.75c.15-.18.41-.36.26-.62s-.42-.12-.65,0a149.32,149.32,0,0,1-20.67,4.48,1,1,0,0,0-.93.8c-2.23.43-4.49.11-6.73.18-.44,0-.51-.35-.43-.67a31.3,31.3,0,0,0,.5-3.27,42.38,42.38,0,0,0,.51-5.14c0-.23.06-.55-.26-.6s-.31.27-.36.49a59.77,59.77,0,0,0-1,7.57c-.14,1.65-.13,1.63-1.85,1.63h-.61a1,1,0,0,0-1,.77c-1,3-2.1,6-3.13,9s-2,5.89-3,8.83c-.64,1.86-1.35,3.7-2,5.57-1,3.08-2.08,6.14-3.14,9.2-.37,1.06-.9,1.26-2,.82a12.59,12.59,0,0,0-2.84-.45c-.6-.1-.91.27-1.05.88a20.57,20.57,0,0,0-.21,3.41l-19.54,0c-.76-.29-.64.35-.6.67.11,1.08-.44,1.25-1.36,1.24-5.73,0-11.47,0-17.2,0A7.19,7.19,0,0,1,18.72,108.42Z"/></g><path class="cls-7" d="M79,68.66a18.74,18.74,0,0,1,.8-5.9c.34-1.31.7-2.61,1.06-3.91a1.37,1.37,0,0,1,.44-.8.25.25,0,0,1,.18-.06c.1,0,.16.13.19.23A10.23,10.23,0,0,1,82,61.46l0,3.86a5.63,5.63,0,0,1-.67,3,.32.32,0,0,1-.37.25H78"/><path class="cls-4" d="M47.83,28.31c1,.54,2.34-.17,3.36.35a3.68,3.68,0,0,1,1.28,1.56,9.5,9.5,0,0,0,1.12,1.52,4.14,4.14,0,0,0,.58.55,2.67,2.67,0,0,0,1.63.53.85.85,0,0,0,.89-.57A5.08,5.08,0,0,0,57,31.1a22.26,22.26,0,0,0,.66-5.57A3.64,3.64,0,0,0,57.33,24c-.07-.12-.17-.25-.31-.25a.4.4,0,0,0-.26.17c-.42.48-.72,1-1.15,1.51a4.77,4.77,0,0,1-2.9,1.37,11,11,0,0,1-3.26-.18,11,11,0,0,0-1.27-.17,2.26,2.26,0,0,0-1.28.17C46.45,26.93,47.46,28.11,47.83,28.31Z"/><path class="cls-4" d="M57.42,19.17a3.09,3.09,0,0,1,1.18-.3c1.32-.15,2.64-.23,4-.25a12.5,12.5,0,0,1,2.29.12c.44.07.87.19,1.32.26a10.31,10.31,0,0,0,1.6.08,41.9,41.9,0,0,0,6.17-.52,3.89,3.89,0,0,0,2.48-1.06c-2.46.08-4.92-.27-7.38-.36a70.6,70.6,0,0,0-7.1.22,6.08,6.08,0,0,0-1.44.21,9,9,0,0,0-1.19.54,15.42,15.42,0,0,0-1.52.75,2.25,2.25,0,0,0-.94,1A1.31,1.31,0,0,1,57.42,19.17Z"/><path class="cls-4" d="M58.11,21.87a4.53,4.53,0,0,1,.19,1.83,18.91,18.91,0,0,1-1.6,7.57,59,59,0,0,0,.6-6.63,11.72,11.72,0,0,0-.07-2.14C57.07,21.41,56.47,20,57,19c.17.2,0,.42,0,.64a1.82,1.82,0,0,0,.26.76A15.38,15.38,0,0,1,58.11,21.87Z"/><path class="cls-4" d="M75.92,20a13.26,13.26,0,0,1,.22,3.08c0,2.47.3,5.14.39,7.61a14.72,14.72,0,0,1,.56-2.28c.71-2,.49-4.1.49-6.19a14.21,14.21,0,0,0-.23-3.71,1.54,1.54,0,0,0-.42-.8c-.38-.33-1.17-.36-1.36.18S75.78,19.44,75.92,20Z"/></g></g></svg>