<svg xmlns="http://www.w3.org/2000/svg" viewBox="0 0 121.03 102.22"><defs><style>.cls-1{fill:#000bdb;}.cls-2{fill:#00e29c;}.cls-3{fill:#fff;}</style></defs><title>creditcard</title><g id="Layer_2" data-name="Layer 2"><g id="Layer_1-2" data-name="Layer 1"><path class="cls-1" d="M115.14,19.35l-5.77,44.56a18.5,18.5,0,0,1-.82,3.59A19.56,19.56,0,0,1,87.42,80.83l-82-10.62a6.21,6.21,0,0,1-5.36-7L7.54,5.42a6.21,6.21,0,0,1,7-5.36l95.28,12.34A6.21,6.21,0,0,1,115.14,19.35Z"/><rect class="cls-2" x="52.88" y="-31.91" width="14.34" height="108.5" transform="translate(30.19 79.03) rotate(-82.62)"/><path class="cls-2" d="M108.55,67.49a19.4,19.4,0,0,1-4.6,7.6l-73.2-9.48,1-8.06Z"/><path class="cls-2" d="M30.07,51,28.42,63.75a1.62,1.62,0,0,1-1.72,1.51L4.9,62.43a1.62,1.62,0,0,1-1.28-1.9L5.26,47.82A1.62,1.62,0,0,1,7,46.31l21.81,2.82A1.62,1.62,0,0,1,30.07,51Z"/><rect class="cls-2" x="43.11" y="-2.08" width="7.91" height="80.06" transform="translate(3.39 79.75) rotate(-82.62)"/><rect class="cls-2" x="94.7" y="35.27" width="7.91" height="18.72" transform="translate(41.73 136.74) rotate(-82.62)"/><rect class="cls-3" x="32.56" y="50.9" width="11.95" height="4.78" transform="translate(7.16 -4.51) rotate(7.38)"/><rect class="cls-3" x="8.81" y="35.38" width="75.36" height="4.78" transform="translate(5.23 -5.66) rotate(7.38)"/><rect class="cls-3" x="90.59" y="42.11" width="15.77" height="4.78" transform="translate(6.53 -12.28) rotate(7.38)"/><rect class="cls-3" x="47.25" y="52.8" width="11.95" height="4.78" transform="translate(7.53 -6.38) rotate(7.38)"/><rect class="cls-3" x="61.95" y="54.7" width="11.95" height="4.78" transform="translate(7.89 -8.25) rotate(7.38)"/><rect class="cls-3" x="88.93" y="17.55" width="22.07" height="1.75" transform="translate(3.19 -12.68) rotate(7.38)"/><circle class="cls-3" cx="102.45" cy="83.63" r="18.58" transform="translate(6.35 174.49) rotate(-82.62)"/><path class="cls-3" d="M120.87,86a18.58,18.58,0,0,0-8.35-18c-5.09,10.35-8,22.54-6.64,33.87A18.59,18.59,0,0,0,120.87,86Z"/><path class="cls-3" d="M104.83,65.21A18.58,18.58,0,0,0,88.5,95.91C92,84.76,100.51,74.48,110,66.64A18.58,18.58,0,0,0,104.83,65.21Z"/><path class="cls-2" d="M103.51,92.29l-.39,3-2.7-.35L100.8,92a12.92,12.92,0,0,1-6.45-3l1.91-3.11a11,11,0,0,0,5,2.6l.58-4.51c-2.91-1.12-6.13-2.55-5.63-6.42.37-2.87,2.77-5.06,7.11-5l.39-3,2.7.35L106,72.85a12.32,12.32,0,0,1,5.27,2.36l-1.78,3.15a11.14,11.14,0,0,0-4-1.94L105,81c2.91,1.09,6.08,2.52,5.59,6.33C110.19,90.16,107.82,92.32,103.51,92.29ZM102.35,80l.5-3.84c-1.47.14-2.14.85-2.26,1.74S101.21,79.46,102.35,80Zm3.81,7.12c.12-.95-.6-1.56-1.71-2.12L104,88.72C105.36,88.6,106,88,106.16,87.11Z"/></g></g></svg>