<svg xmlns="http://www.w3.org/2000/svg" viewBox="0 0 47.16 42.89"><defs><style>.cls-1{fill:#040a38;}</style></defs><title>elektronike_1</title><g id="Layer_2" data-name="Layer 2"><g id="Layer_1-2" data-name="Layer 1"><path class="cls-1" d="M46.82,40.09l-4.38-6A1.76,1.76,0,0,0,41,33.39H6.79A1.76,1.76,0,0,0,5.45,34l-5,6a1.76,1.76,0,0,0,1.35,2.9H45.4a1.76,1.76,0,0,0,1.42-2.81Zm-11.88.15H12.18a1,1,0,1,1,0-2H34.92a1,1,0,0,1,0,2Z"/><path class="cls-1" d="M38.71,7.5H27.06V20.26a3.64,3.64,0,0,1-3.64,3.64h-8.3a3.64,3.64,0,0,1-3.64-3.64h0V7.5H9.18A3.16,3.16,0,0,0,6,10.66H6V29a3.16,3.16,0,0,0,3.16,3.16H38.71A3.16,3.16,0,0,0,41.87,29h0V10.66A3.16,3.16,0,0,0,38.71,7.5ZM38,27.62a1,1,0,0,1-1,1H12.18a1,1,0,0,1-1-1h0a1,1,0,0,1,1-1H36v-12a1,1,0,1,1,2,0h0Z"/><path class="cls-1" d="M23.19,0h-8a1.88,1.88,0,0,0-1.85,1.88V20a1.88,1.88,0,0,0,1.88,1.88h8A1.88,1.88,0,0,0,25.07,20V1.88A1.88,1.88,0,0,0,23.2,0Zm-4,20.36a1.26,1.26,0,1,1,1.26-1.26,1.26,1.26,0,0,1-1.26,1.26ZM21.66,5.6,18.4,15.14a1,1,0,1,1-1.87-.56l0-.07L19.82,5a1,1,0,0,1,1.85.63Z"/></g></g></svg>