<?xml version="1.0" encoding="utf-8"?>
<!-- Generator: Adobe Illustrator 21.0.2, SVG Export Plug-In . SVG Version: 6.00 Build 0)  -->
<svg version="1.1" id="Layer_1" xmlns="http://www.w3.org/2000/svg" xmlns:xlink="http://www.w3.org/1999/xlink" x="0px" y="0px"
	 viewBox="0 0 47.2 42.9" style="enable-background:new 0 0 47.2 42.9;" xml:space="preserve">
<style type="text/css">
	.st0{fill:#FFFFFF;}
</style>
<title>elektronike_1</title>
<path class="st0" d="M46.8,40.1l-4.4-6c-0.3-0.5-0.9-0.7-1.4-0.7H6.8c-0.5,0-1,0.2-1.3,0.6l-5,6c-0.6,0.7-0.5,1.9,0.2,2.5
	c0.3,0.3,0.7,0.4,1.1,0.4h43.6c1,0,1.8-0.8,1.8-1.8C47.2,40.8,47,40.4,46.8,40.1z M34.9,40.2H12.2c-0.6,0-1-0.4-1-1c0-0.6,0.4-1,1-1
	h22.7c0.6,0,1,0.4,1,1C35.9,39.8,35.5,40.2,34.9,40.2z"/>
<path class="st0" d="M38.7,7.5H27.1v12.8c0,2-1.6,3.6-3.6,3.6h-8.3c-2,0-3.6-1.6-3.6-3.6V7.5H9.2C7.4,7.5,6,8.9,6,10.6c0,0,0,0,0,0
	V29c0,1.7,1.4,3.2,3.2,3.2h29.6c1.7,0,3.2-1.4,3.2-3.2V10.7C41.9,8.9,40.5,7.5,38.7,7.5z M38,27.6c0,0.6-0.4,1-1,1H12.2
	c-0.6,0-1-0.4-1-1c0-0.6,0.4-1,1-1H36v-12c0-0.6,0.4-1,1-1s1,0.4,1,1V27.6z"/>
<path class="st0" d="M23.2,0L23.2,0h-8c-1,0-1.9,0.9-1.8,1.9V20c0,1,0.8,1.9,1.9,1.9h8c1,0,1.9-0.9,1.8-1.9V1.9
	C25.1,0.8,24.2,0,23.2,0z M19.2,20.4c-0.7,0-1.3-0.6-1.3-1.3c0-0.7,0.6-1.3,1.3-1.3s1.3,0.6,1.3,1.3C20.5,19.8,19.9,20.4,19.2,20.4z
	 M21.7,5.6l-3.3,9.5c0,0.6-0.5,1-1.1,0.9c-0.6,0-1-0.5-0.9-1.1c0-0.1,0.1-0.3,0.1-0.4v-0.1L19.8,5c0.3-0.5,0.9-0.6,1.4-0.3
	C21.5,4.9,21.7,5.2,21.7,5.6L21.7,5.6z"/>
</svg>
