<svg xmlns="http://www.w3.org/2000/svg" viewBox="0 0 520.15 141.93"><defs><style>.cls-1{fill:none;}.cls-2{fill:#00e29c;}.cls-3{fill:#2f43f7;}.cls-4{fill:#fff;}</style></defs><title>element1_2</title><g id="Layer_2" data-name="Layer 2"><g id="Layer_1-2" data-name="Layer 1"><path class="cls-1" d="M486.61,42H274.23A33.53,33.53,0,0,1,240.7,8.43h0A33.58,33.58,0,0,1,241.77,0H0V34.84a30.76,30.76,0,0,1,7.62-1H202.1a30.71,30.71,0,0,1,30.71,30.71h0A30.71,30.71,0,0,1,202.1,95.3H184.74a33.52,33.52,0,0,1,1.45,9.78h0a33.53,33.53,0,0,1-33.53,33.53H0v3.31H520.15V8.43A33.53,33.53,0,0,1,486.61,42Z"/><path class="cls-1" d="M519.08,0a33.58,33.58,0,0,1,1.07,8.43V0Z"/><path class="cls-2" d="M186.19,105.08h0a33.52,33.52,0,0,0-1.45-9.78H7.62a30.76,30.76,0,0,1-7.62-1v44.27H152.66A33.53,33.53,0,0,0,186.19,105.08Z"/><path class="cls-2" d="M241.77,0a33.58,33.58,0,0,0-1.07,8.43h0A33.53,33.53,0,0,0,274.23,42H486.61A33.53,33.53,0,0,0,520.15,8.43h0A33.58,33.58,0,0,0,519.08,0Z"/><path class="cls-3" d="M184.74,95.3H202.1a30.71,30.71,0,0,0,30.71-30.71h0A30.71,30.71,0,0,0,202.1,33.88H7.62a30.76,30.76,0,0,0-7.62,1v59.5a30.76,30.76,0,0,0,7.62,1Zm15.47-52A21.25,21.25,0,1,1,179,64.59,21.25,21.25,0,0,1,200.21,43.34Z"/><circle class="cls-4" cx="200.21" cy="64.59" r="21.25"/></g></g></svg>