<svg xmlns="http://www.w3.org/2000/svg" viewBox="0 0 222.46 187.11"><defs><style>.cls-1{fill:#2f43f7;}.cls-2{fill:#00e29c;}.cls-3{fill:#000bdb;}.cls-4{fill:none;stroke:#000bdb;stroke-linecap:round;stroke-linejoin:round;stroke-width:5.67px;}</style></defs><title>element3_1</title><g id="Layer_2" data-name="Layer 2"><g id="Layer_1-2" data-name="Layer 1"><path class="cls-1" d="M33.65,4.24a10.46,10.46,0,0,0-8.73,10.32V67.11A10.46,10.46,0,0,0,37.08,77.44h0a10.46,10.46,0,0,0,8.73-10.32V14.57A10.46,10.46,0,0,0,33.65,4.24Z"/><path class="cls-1" d="M8.73,20.05A10.46,10.46,0,0,0,0,30.38v72.37a10.46,10.46,0,0,0,20.93,0V30.44A10.47,10.47,0,0,0,8.73,20.05Z"/><path class="cls-1" d="M58.58.14a10.46,10.46,0,0,0-8.73,10.32V63a10.46,10.46,0,1,0,20.93,0V10.46A10.47,10.47,0,0,0,58.58.14Z"/><path class="cls-1" d="M83.47,7.68A10.46,10.46,0,0,0,74.74,18V49a10.47,10.47,0,0,0,20.93,0V18A10.47,10.47,0,0,0,83.47,7.68Z"/><circle class="cls-2" cx="10.46" cy="102.45" r="9.18"/><path class="cls-3" d="M0,183.53v-21.2H10.59a7.47,7.47,0,0,1,3.32.74A8.64,8.64,0,0,1,16.52,165a9.05,9.05,0,0,1,1.71,2.73,8.2,8.2,0,0,1,.62,3.1,9,9,0,0,1-2.23,5.9,7.83,7.83,0,0,1-2.56,1.9,7.65,7.65,0,0,1-3.3.71h-4v4.17a3.37,3.37,0,0,1-3.37,3.37h0A3.37,3.37,0,0,1,0,183.53Zm6.75-10.05h3.56a1.58,1.58,0,0,0,1.16-.57,3,3,0,0,0,.54-2.06,2.72,2.72,0,0,0-.62-2.08,1.89,1.89,0,0,0-1.25-.55H6.75Z"/><path class="cls-3" d="M32.29,181.13a3.71,3.71,0,0,0,2-.52,4.13,4.13,0,0,0,1.35-1.37,6.29,6.29,0,0,0,.76-2,10.85,10.85,0,0,0,.24-2.32v-9.26A3.37,3.37,0,0,1,40,162.33h0a3.37,3.37,0,0,1,3.37,3.37V175a16.89,16.89,0,0,1-.66,4.79,10.41,10.41,0,0,1-2,3.86,9.66,9.66,0,0,1-3.48,2.56,12,12,0,0,1-4.93.93,11.74,11.74,0,0,1-5-1,9.66,9.66,0,0,1-3.44-2.65,10.64,10.64,0,0,1-2-3.86,17,17,0,0,1-.62-4.65v-9.26a3.37,3.37,0,0,1,3.37-3.37h0A3.37,3.37,0,0,1,28,165.71V175a11.06,11.06,0,0,0,.24,2.34,6.27,6.27,0,0,0,.76,2,4,4,0,0,0,1.33,1.35A3.72,3.72,0,0,0,32.29,181.13Z"/><path class="cls-3" d="M68.17,180.61a5.37,5.37,0,0,1-2.6,4.81,9,9,0,0,1-2.82,1.12,15.45,15.45,0,0,1-3.41.36H47.27V162.33H61.53a4.85,4.85,0,0,1,2.32.55,5.79,5.79,0,0,1,1.77,1.44,6.59,6.59,0,0,1,1.12,2,6.86,6.86,0,0,1,.4,2.3,6.66,6.66,0,0,1-.88,3.31,5.54,5.54,0,0,1-2.65,2.37,6,6,0,0,1,4.57,6.3ZM54,168.08v3.77h4.6a2.23,2.23,0,0,0,1.26-.38,1.71,1.71,0,0,0,.57-1.52,1.85,1.85,0,0,0-.48-1.44,1.66,1.66,0,0,0-1.14-.43Zm7.3,11.14a2.33,2.33,0,0,0-.48-1.51,1.53,1.53,0,0,0-1.25-.61H54v4.12h5.33a2,2,0,0,0,1.4-.52A1.91,1.91,0,0,0,61.32,179.22Z"/><path class="cls-3" d="M71.15,186.91v-21.2a3.37,3.37,0,0,1,3.37-3.37h0a3.37,3.37,0,0,1,3.37,3.37V181h8.2A2.94,2.94,0,0,1,89,184h0a2.94,2.94,0,0,1-2.94,2.94Z"/><path class="cls-3" d="M91.4,183.53V165.71a3.37,3.37,0,0,1,3.37-3.37h0a3.37,3.37,0,0,1,3.37,3.37v17.82a3.37,3.37,0,0,1-3.37,3.37h0A3.37,3.37,0,0,1,91.4,183.53Z"/><path class="cls-3" d="M102.37,183.53V165.71a3.37,3.37,0,0,1,3.37-3.37h0a3.37,3.37,0,0,1,3.37,3.37v6l6.59-8.24a3,3,0,0,1,2.3-1.11h0a3,3,0,0,1,2.29,4.81l-5,6.19,6.05,8.6a3.15,3.15,0,0,1-2.58,5h0a3.15,3.15,0,0,1-2.61-1.39L111,177.87l-1.87,1.94v3.72a3.37,3.37,0,0,1-3.37,3.37h0A3.37,3.37,0,0,1,102.37,183.53Z"/><path class="cls-3" d="M135.83,187.11a11.82,11.82,0,0,1-5.09-1.07,12.58,12.58,0,0,1-3.91-2.82,12.77,12.77,0,0,1-2.53-4,12.37,12.37,0,0,1-.9-4.64,12.07,12.07,0,0,1,.93-4.67,12.4,12.4,0,0,1,2.61-4,12.74,12.74,0,0,1,4-2.73,12.29,12.29,0,0,1,5-1,11.83,11.83,0,0,1,5.09,1.07,12.46,12.46,0,0,1,3.91,2.84,12.74,12.74,0,0,1,2.51,4,12.5,12.5,0,0,1,.88,4.6,11.94,11.94,0,0,1-.93,4.65,12.61,12.61,0,0,1-2.6,3.95,12.77,12.77,0,0,1-4,2.75A12.1,12.1,0,0,1,135.83,187.11Zm-5.57-12.46a8.36,8.36,0,0,0,.35,2.41,6.28,6.28,0,0,0,1,2.06,5.23,5.23,0,0,0,1.75,1.45,5.92,5.92,0,0,0,5,0,5.12,5.12,0,0,0,1.75-1.49,6.41,6.41,0,0,0,1-2.09,8.83,8.83,0,0,0,.33-2.39,8.38,8.38,0,0,0-.35-2.41,5.94,5.94,0,0,0-1.06-2,5.34,5.34,0,0,0-1.76-1.42,5.4,5.4,0,0,0-2.47-.54,5.34,5.34,0,0,0-2.51.55,5.15,5.15,0,0,0-1.75,1.47,6.23,6.23,0,0,0-1,2.08A8.63,8.63,0,0,0,130.26,174.65Z"/><path class="cls-2" d="M190.93,162h0a4.33,4.33,0,0,1,4.09,2.91l6,17.41a3.2,3.2,0,0,1-3,4.25h0a3.2,3.2,0,0,1-3.06-2.25l-.79-2.56h-6.54l-.77,2.53a3.2,3.2,0,0,1-3.07,2.28h0a3.2,3.2,0,0,1-3-4.26l6.06-17.41A4.33,4.33,0,0,1,190.93,162Zm2.18,15.26-2.18-7.61-2.28,7.61Z"/><path class="cls-2" d="M204.57,186.6V165.4a3.37,3.37,0,0,1,3.37-3.37h0a3.37,3.37,0,0,1,3.37,3.37v15.31h8.2a2.94,2.94,0,0,1,2.94,2.94h0a2.94,2.94,0,0,1-2.94,2.94Z"/><rect class="cls-2" x="151.81" y="173.49" width="12.92" height="12.92"/><polyline class="cls-4" points="154.83 166.18 173.44 166.18 173.44 184.17"/></g></g></svg>