<svg xmlns="http://www.w3.org/2000/svg" viewBox="0 0 520.15 140.87"><defs><style>.cls-1{fill:none;}.cls-2{fill:#00e29c;}.cls-3{fill:#2f43f7;}</style></defs><title>element4_2</title><g id="Layer_2" data-name="Layer 2"><g id="Layer_1-2" data-name="Layer 1"><path class="cls-1" d="M519.26,104.19H324.78a30.71,30.71,0,0,1-30.71-30.71h0a30.71,30.71,0,0,1,30.71-30.71H342a33.54,33.54,0,0,1-1.26-9.1h0A33.53,33.53,0,0,1,374.23.14H520.15V0H0V140.87H8.44a33.48,33.48,0,0,1-1.7-10.55h0A33.53,33.53,0,0,1,40.27,96.79H252.66a33.53,33.53,0,0,1,33.53,33.53h0a33.47,33.47,0,0,1-1.7,10.55H520.15V104.17Z"/><path class="cls-2" d="M340.7,35.67h0a33.54,33.54,0,0,0,1.26,9.1H519.26l.89,0V2.14H374.23A33.53,33.53,0,0,0,340.7,35.67Z"/><path class="cls-2" d="M286.19,130.33a33.53,33.53,0,0,0-33.53-33.53H40.27A33.53,33.53,0,0,0,6.74,130.33h0a33.48,33.48,0,0,0,1.7,10.55h276a33.47,33.47,0,0,0,1.7-10.55Z"/><path class="cls-3" d="M342,43.46H324.78a30.71,30.71,0,0,0-30.71,30.71h0a30.71,30.71,0,0,0,30.71,30.71H519.26l.89,0V43.48l-.89,0ZM326.68,96.78a21.25,21.25,0,1,1,21.25-21.25A21.25,21.25,0,0,1,326.68,96.78Z"/><circle class="cls-2" cx="326.68" cy="75.51" r="21.25"/></g></g></svg>