<svg xmlns="http://www.w3.org/2000/svg" viewBox="0 0 42.95 42.84"><defs><style>.cls-1{fill:#fff;}</style></defs><title>fb</title><g id="Layer_2" data-name="Layer 2"><g id="Layer_1-2" data-name="Layer 1"><g id="li7Fnv"><path class="cls-1" d="M42.95,21.38c-.07,3.13-.11,6.26-.24,9.39a12.84,12.84,0,0,1-2,6.77,10.92,10.92,0,0,1-8.06,4.93,62.81,62.81,0,0,1-7.09.37c-3.89,0-7.78,0-11.67-.06a17.53,17.53,0,0,1-6.49-1.06A11,11,0,0,1,.47,33.25,35.64,35.64,0,0,1,0,26.12c0-3.79,0-7.57,0-11.36a23.54,23.54,0,0,1,.59-5.9A11,11,0,0,1,9.15.53,21.62,21.62,0,0,1,14.3,0q7.29,0,14.58,0a19.28,19.28,0,0,1,5.44.66,10.85,10.85,0,0,1,8.09,9.13,45.1,45.1,0,0,1,.44,6c.07,1.85,0,3.7,0,5.55ZM21.4,39V39c1.62,0,3.25,0,4.87,0,1.95-.06,3.91-.1,5.84-.34A7.1,7.1,0,0,0,38,34.42a10.73,10.73,0,0,0,.89-4.35c.06-2.55.14-5.1.13-7.64,0-3.38-.08-6.77-.16-10.15a9.69,9.69,0,0,0-.94-4.07,7.07,7.07,0,0,0-5.54-4,28.31,28.31,0,0,0-4.14-.33c-4.08,0-8.17-.07-12.25,0a41.11,41.11,0,0,0-5.48.36,7,7,0,0,0-6.16,5.83,22.58,22.58,0,0,0-.42,4.26q-.08,6.88,0,13.77a29.46,29.46,0,0,0,.34,4.27A7.08,7.08,0,0,0,7.7,37.59a9.42,9.42,0,0,0,4.58,1.22C15.32,38.92,18.36,39,21.4,39Z"/><path class="cls-1" d="M17.36,28.79q0-3.33,0-6.66c0-.62,0-.63-.62-.63s-1.25,0-1.88,0c-.31,0-.46-.09-.46-.43,0-1.39,0-2.77,0-4.16,0-.35.15-.48.47-.48.64,0,1.28,0,1.92,0,.43,0,.56-.16.57-.58,0-1.44,0-2.89.15-4.33a4.48,4.48,0,0,1,1.7-3.28A4.54,4.54,0,0,1,21.7,7.18C23.62,7,25.54,7,27.46,7c.26,0,.38.11.38.37,0,1.48,0,3,0,4.43,0,.34-.21.38-.47.38-.88,0-1.76,0-2.64,0-1.08,0-1.32.29-1.35,1.38,0,.76,0,1.52,0,2.28,0,.43.1.61.57.6,1.06,0,2.12,0,3.17,0,.68,0,.73.07.69.73-.09,1.23-.22,2.46-.31,3.7,0,.39-.19.53-.59.53-1,0-1.94,0-2.91.07-.58,0-.61,0-.61.61q0,5,0,10c0,1.13,0,2.27,0,3.4,0,.58-.08.66-.64.66q-2.39,0-4.79,0c-.49,0-.55-.1-.55-.69q0-3.35,0-6.71Z"/></g></g></g></svg>