<svg xmlns="http://www.w3.org/2000/svg" viewBox="0 0 125.74 130.52"><defs><style>.cls-1{fill:#00e29c;}.cls-2{fill:#fff;}.cls-3{fill:#000bdb;}</style></defs><title>giftbox_1</title><g id="Layer_2" data-name="Layer 2"><g id="Layer_1-2" data-name="Layer 1"><rect class="cls-1" x="22.2" y="54.04" width="76.48" height="76.48"/><rect class="cls-2" x="22.2" y="54.04" width="76.48" height="26.72"/><path class="cls-3" d="M70.95,50.35a109.48,109.48,0,0,0,8.71-8.51c3.08-3.34,6.31-7.45,7-12.61a13,13,0,0,0-2.84-9.75,10.08,10.08,0,0,0-7.12-3.77c-3-.19-6,1-9,3.39a30.4,30.4,0,0,0-9.71,15.49A38.11,38.11,0,0,0,37.66,19.9a8.35,8.35,0,0,0-5.88.11c-3.63,1.65-4.95,6-3.27,10.85h0A36.83,36.83,0,0,0,42.89,49.2a19.06,19.06,0,0,0,2,1.15H15.75v23h89.38v-23ZM72.9,25.53A5.71,5.71,0,0,1,76,24h.1a1.94,1.94,0,0,1,1.27.78,4.8,4.8,0,0,1,1,3.44c-.35,2.83-2.52,5.52-4.82,8a98.71,98.71,0,0,1-9,8.66C65,38.41,66.85,30.45,72.9,25.53ZM36.36,28.18a30.71,30.71,0,0,1,18,17.07c-.69-.28-1.37-.53-2-.77a23.78,23.78,0,0,1-4.87-2.18A28.49,28.49,0,0,1,36.36,28.18Z"/><circle class="cls-3" cx="6.04" cy="34.11" r="6.04"/><circle class="cls-3" cx="86.3" cy="106.37" r="6.04"/><circle class="cls-3" cx="119.7" cy="72.97" r="6.04"/><circle class="cls-3" cx="53.24" cy="9.41" r="9.41"/></g></g></svg>