<svg xmlns="http://www.w3.org/2000/svg" viewBox="0 0 42.95 42.84"><defs><style>.cls-1{fill:#fff;}</style></defs><title>google</title><g id="Layer_2" data-name="Layer 2"><g id="Layer_1-2" data-name="Layer 1"><g id="NO7NjC.tif"><path class="cls-1" d="M22.69,24.25V19h.49c3.91,0,7.82,0,11.73,0,.41,0,.53.15.6.5a13.29,13.29,0,0,1-.08,5,12.52,12.52,0,0,1-6,8.79A12.81,12.81,0,0,1,21.35,35a13.06,13.06,0,0,1-11.1-7.85,13.51,13.51,0,0,1,6.39-18,13.63,13.63,0,0,1,7.69-1.34,14.44,14.44,0,0,1,7,3.12l.14.13L27.61,15l-1.06-.61a8.06,8.06,0,1,0-4.9,15,7.73,7.73,0,0,0,6.61-2,5.73,5.73,0,0,0,1.68-3.19Z"/><path class="cls-1" d="M42.95,21.38c-.07,3.13-.11,6.26-.24,9.39a12.84,12.84,0,0,1-2,6.77,10.92,10.92,0,0,1-8.06,4.93,62.81,62.81,0,0,1-7.09.37c-3.89,0-7.78,0-11.67-.06a17.53,17.53,0,0,1-6.49-1.06A11,11,0,0,1,.47,33.25,35.64,35.64,0,0,1,0,26.12c0-3.79,0-7.57,0-11.36a23.54,23.54,0,0,1,.59-5.9A11,11,0,0,1,9.15.53,21.62,21.62,0,0,1,14.3,0q7.29,0,14.58,0a19.28,19.28,0,0,1,5.44.66,10.85,10.85,0,0,1,8.09,9.13,45.1,45.1,0,0,1,.44,6c.07,1.85,0,3.7,0,5.55ZM21.4,39V39c1.62,0,3.25,0,4.87,0,1.95-.06,3.91-.1,5.84-.34A7.1,7.1,0,0,0,38,34.42a10.73,10.73,0,0,0,.89-4.35c.06-2.55.14-5.1.13-7.64,0-3.38-.08-6.77-.16-10.15a9.69,9.69,0,0,0-.94-4.07,7.07,7.07,0,0,0-5.54-4,28.31,28.31,0,0,0-4.14-.33c-4.08,0-8.17-.07-12.25,0a41.11,41.11,0,0,0-5.48.36,7,7,0,0,0-6.16,5.83,22.58,22.58,0,0,0-.42,4.26q-.08,6.88,0,13.77a29.46,29.46,0,0,0,.34,4.27A7.08,7.08,0,0,0,7.7,37.59a9.42,9.42,0,0,0,4.58,1.22C15.32,38.92,18.36,39,21.4,39Z"/></g></g></g></svg>