<svg xmlns="http://www.w3.org/2000/svg" viewBox="0 0 184.65 35.34"><defs><style>.cls-1{fill:#fff;}.cls-2{fill:#00e29c;}.cls-3{fill:none;stroke:#fff;stroke-linecap:round;stroke-linejoin:round;stroke-width:3.2px;}.cls-4{fill:#22d876;}</style></defs><title>logo-publiko_2</title><g id="Layer_2" data-name="Layer 2"><g id="Layer_1-2" data-name="Layer 1"><path class="cls-1" d="M59.16,22.72v-12h6a4.21,4.21,0,0,1,1.88.42,4.87,4.87,0,0,1,1.47,1.09,5.11,5.11,0,0,1,1,1.54,4.62,4.62,0,0,1,.35,1.75,5.08,5.08,0,0,1-1.26,3.33A4.42,4.42,0,0,1,67.1,20a4.32,4.32,0,0,1-1.86.4H63v2.35a1.9,1.9,0,0,1-1.9,1.9h0A1.9,1.9,0,0,1,59.16,22.72ZM63,17h2a.89.89,0,0,0,.65-.32,1.7,1.7,0,0,0,.3-1.16,1.52,1.52,0,0,0-.35-1.17,1.07,1.07,0,0,0-.7-.31H63Z"/><path class="cls-1" d="M77.38,21.36a2.1,2.1,0,0,0,1.14-.29,2.33,2.33,0,0,0,.76-.76,3.55,3.55,0,0,0,.43-1.1,6.12,6.12,0,0,0,.14-1.31V12.66a1.9,1.9,0,0,1,1.9-1.9h0a1.9,1.9,0,0,1,1.9,1.9v5.22a9.53,9.53,0,0,1-.38,2.7,5.87,5.87,0,0,1-1.14,2.18,5.45,5.45,0,0,1-2,1.45,6.78,6.78,0,0,1-2.78.53,6.62,6.62,0,0,1-2.84-.56,5.45,5.45,0,0,1-1.94-1.49,6,6,0,0,1-1.11-2.18,9.58,9.58,0,0,1-.35-2.63V12.66a1.9,1.9,0,0,1,1.9-1.9h0a1.9,1.9,0,0,1,1.9,1.9v5.22a6.24,6.24,0,0,0,.14,1.32,3.54,3.54,0,0,0,.43,1.11,2.28,2.28,0,0,0,.76.76A2.1,2.1,0,0,0,77.38,21.36Z"/><path class="cls-1" d="M97.63,21.07a3,3,0,0,1-1.47,2.71,5.06,5.06,0,0,1-1.59.63,8.73,8.73,0,0,1-1.92.21H85.83V10.76h8a2.74,2.74,0,0,1,1.31.31,3.27,3.27,0,0,1,1,.81A3.72,3.72,0,0,1,96.82,13a3.87,3.87,0,0,1,.22,1.3,3.76,3.76,0,0,1-.5,1.86,3.13,3.13,0,0,1-1.49,1.34,3.38,3.38,0,0,1,2.58,3.55Zm-8-7.06v2.13h2.6a1.26,1.26,0,0,0,.71-.22,1,1,0,0,0,.32-.86,1,1,0,0,0-.27-.81.94.94,0,0,0-.65-.24Zm4.13,6.3a1.32,1.32,0,0,0-.27-.85.86.86,0,0,0-.7-.34H89.63v2.32h3a1.14,1.14,0,0,0,.79-.29A1.08,1.08,0,0,0,93.76,20.31Z"/><path class="cls-1" d="M99.3,24.62v-12a1.9,1.9,0,0,1,1.9-1.9h0a1.9,1.9,0,0,1,1.9,1.9V21.3h4.63A1.66,1.66,0,0,1,109.39,23h0a1.66,1.66,0,0,1-1.66,1.66Z"/><path class="cls-1" d="M110.72,22.72V12.66a1.9,1.9,0,0,1,1.9-1.9h0a1.9,1.9,0,0,1,1.9,1.9V22.72a1.9,1.9,0,0,1-1.9,1.9h0A1.9,1.9,0,0,1,110.72,22.72Z"/><path class="cls-1" d="M116.91,22.72V12.66a1.9,1.9,0,0,1,1.9-1.9h0a1.9,1.9,0,0,1,1.9,1.9V16l3.72-4.65a1.67,1.67,0,0,1,1.3-.63h0A1.67,1.67,0,0,1,127,13.47L124.18,17l3.41,4.86a1.78,1.78,0,0,1-1.45,2.8h0a1.78,1.78,0,0,1-1.47-.79l-2.91-4.31-1.06,1.09v2.1a1.9,1.9,0,0,1-1.9,1.9h0A1.9,1.9,0,0,1,116.91,22.72Z"/><path class="cls-1" d="M135.79,24.74a6.67,6.67,0,0,1-2.87-.6,7.1,7.1,0,0,1-2.21-1.59,7.21,7.21,0,0,1-1.42-2.26,7,7,0,0,1-.51-2.62,6.81,6.81,0,0,1,.53-2.63,7,7,0,0,1,1.47-2.24A7.19,7.19,0,0,1,133,11.26a6.93,6.93,0,0,1,2.84-.58,6.67,6.67,0,0,1,2.87.6,7,7,0,0,1,2.21,1.6,7.18,7.18,0,0,1,1.42,2.28,7.05,7.05,0,0,1,.5,2.6,6.74,6.74,0,0,1-.53,2.63,7.11,7.11,0,0,1-1.44,2.19,7.21,7.21,0,0,1-2.24,1.55A6.83,6.83,0,0,1,135.79,24.74Zm-3.14-7a4.72,4.72,0,0,0,.19,1.36,3.54,3.54,0,0,0,.58,1.16,3,3,0,0,0,1,.84,3.34,3.34,0,0,0,2.84,0,2.89,2.89,0,0,0,1-.84,3.61,3.61,0,0,0,.57-1.18A5,5,0,0,0,139,17.7a4.73,4.73,0,0,0-.19-1.36,3.35,3.35,0,0,0-.6-1.14,3.22,3.22,0,0,0-3.81-.79,2.91,2.91,0,0,0-1,.83,3.52,3.52,0,0,0-.58,1.17,4.87,4.87,0,0,0-.2,1.29Z"/><path class="cls-2" d="M166.88,10.59h0a2.44,2.44,0,0,1,2.31,1.64l3.42,9.82a1.8,1.8,0,0,1-1.7,2.4h0a1.8,1.8,0,0,1-1.72-1.27l-.45-1.44H165l-.43,1.43a1.81,1.81,0,0,1-1.73,1.28h0a1.81,1.81,0,0,1-1.71-2.4l3.42-9.82A2.44,2.44,0,0,1,166.88,10.59Zm1.23,8.61-1.23-4.29-1.29,4.29Z"/><path class="cls-2" d="M174.57,24.45v-12a1.9,1.9,0,0,1,1.9-1.9h0a1.9,1.9,0,0,1,1.9,1.9v8.64H183a1.66,1.66,0,0,1,1.66,1.66h0A1.66,1.66,0,0,1,183,24.45Z"/><rect class="cls-2" x="144.81" y="17.06" width="7.29" height="7.29"/><polyline class="cls-3" points="146.51 12.93 157.01 12.93 157.01 23.08"/><path class="cls-1" d="M10.51,1.32A3.27,3.27,0,0,0,7.78,4.55V21a3.27,3.27,0,0,0,3.8,3.22h0A3.27,3.27,0,0,0,14.3,21V4.55a3.27,3.27,0,0,0-3.8-3.22Z"/><path class="cls-1" d="M2.73,6.26A3.27,3.27,0,0,0,0,9.48V32.08a3.27,3.27,0,0,0,6.53,0V9.5A3.27,3.27,0,0,0,2.73,6.26Z"/><path class="cls-1" d="M18.29,0a3.27,3.27,0,0,0-2.73,3.22V19.66a3.27,3.27,0,1,0,6.53,0V3.26A3.27,3.27,0,0,0,18.29,0Z"/><path class="cls-1" d="M26.06,2.4a3.27,3.27,0,0,0-2.73,3.22v9.69a3.27,3.27,0,0,0,6.53,0V5.62A3.27,3.27,0,0,0,26.06,2.4Z"/><circle class="cls-4" cx="3.27" cy="31.99" r="2.87"/></g></g></svg>