<svg xmlns="http://www.w3.org/2000/svg" viewBox="0 0 109.08 105.98"><defs><style>.cls-1{fill:#fff;}.cls-2{fill:#00e29c;}.cls-3{fill:#263238;}.cls-4{fill:#ebebeb;}.cls-5{fill:#455a64;}.cls-6{fill:none;stroke:#ebebeb;stroke-miterlimit:10;stroke-width:0.42px;}.cls-7{fill:#000bdb;}.cls-8{fill:#040a38;}.cls-9{opacity:0.2;}</style></defs><title>loop</title><g id="Layer_2" data-name="Layer 2"><g id="Layer_1-2" data-name="Layer 1"><path class="cls-1" d="M12.62,6.11H74.94a3.14,3.14,0,0,1,3.14,3.14V96.8A3.16,3.16,0,0,1,74.92,100H12.5A3.16,3.16,0,0,1,9.34,96.8V9.38a3.28,3.28,0,0,1,3.28-3.28Z" transform="translate(-11.05 11.51) rotate(-13.33)"/><path class="cls-2" d="M2,7.28H65.31A2.71,2.71,0,0,1,68,10v3.86a0,0,0,0,1,0,0H-.72a0,0,0,0,1,0,0V10A2.71,2.71,0,0,1,2,7.28Z" transform="translate(-1.53 8.04) rotate(-13.33)"/><path class="cls-3" d="M6.09,16.76a1.66,1.66,0,0,1-1.48,2.4,1.64,1.64,0,0,1-1.48-.92,1.66,1.66,0,0,1,1.48-2.4A1.64,1.64,0,0,1,6.09,16.76Z"/><path class="cls-4" d="M12.66,15.2a1.66,1.66,0,0,1-1.48,2.4,1.64,1.64,0,0,1-1.48-.92,1.66,1.66,0,0,1,1.48-2.4A1.64,1.64,0,0,1,12.66,15.2Z"/><path class="cls-5" d="M19.23,13.65A1.66,1.66,0,0,1,17.76,16a1.64,1.64,0,0,1-1.48-.92,1.66,1.66,0,0,1,1.48-2.4A1.64,1.64,0,0,1,19.23,13.65Z"/><line class="cls-6" x1="0.96" y1="21.69" x2="67.86" y2="5.85"/><rect class="cls-7" x="21.05" y="82.16" width="33.72" height="3.15" rx="1.57" ry="1.57" transform="translate(-18.28 10.99) rotate(-13.33)"/><rect class="cls-7" x="21.98" y="85.2" width="59.17" height="1.9" rx="0.95" ry="0.95" transform="translate(-18.47 14.21) rotate(-13.33)"/><rect class="cls-7" x="22.81" y="88.73" width="59.17" height="1.9" rx="0.95" ry="0.95" transform="translate(-19.26 14.49) rotate(-13.33)"/><rect class="cls-7" x="23.64" y="92.25" width="59.17" height="1.9" rx="0.95" ry="0.95" transform="translate(-20.05 14.78) rotate(-13.33)"/><rect class="cls-7" x="12.57" y="16.85" width="59.17" height="59.17" transform="translate(-9.57 10.97) rotate(-13.33)"/><rect class="cls-8" x="71.5" y="57.98" width="8.01" height="29.44" transform="translate(-28.68 84.13) rotate(-50.17)"/><rect class="cls-8" x="87.67" y="71.56" width="12.12" height="32.66" rx="2.62" ry="2.62" transform="translate(-33.8 103.58) rotate(-50.17)"/><g class="cls-9"><circle class="cls-1" cx="37.69" cy="41.42" r="32.33" transform="translate(-18.26 43.84) rotate(-50.17)"/><path class="cls-4" d="M64.53,23.38A32.37,32.37,0,0,1,56,68.1Z"/><path class="cls-4" d="M35.15,9.19,23.43,70.44A32.31,32.31,0,0,1,17,66.25a31.79,31.79,0,0,1-5.92-6.5l8.65-45.22A32.31,32.31,0,0,1,35.15,9.19Z"/><path class="cls-4" d="M55.82,14.65,44.65,73a32.82,32.82,0,0,1-6.3.75L50.25,11.62A31.25,31.25,0,0,1,55.82,14.65Z"/><path class="cls-4" d="M39.57,9.15l-12,63-1.11-.39L38.4,9.1C38.79,9.11,39.18,9.12,39.57,9.15Z"/><path class="cls-4" d="M11.85,22,6.5,49.93C6.25,49,6,48.05,5.87,47.1l4.35-22.73Q11,23.15,11.85,22Z"/></g><path class="cls-8" d="M46.35,76.89A36.51,36.51,0,1,1,73.46,32.95,36.55,36.55,0,0,1,46.35,76.89Zm-15.87-67a32.32,32.32,0,1,0,38.91,24A32.36,32.36,0,0,0,30.48,9.91Z"/></g></g></svg>