<svg xmlns="http://www.w3.org/2000/svg" viewBox="0 0 118.44 124.78"><defs><style>.cls-1{isolation:isolate;}.cls-2{fill:#0822d6;}.cls-3{fill:#fff;}.cls-4{fill:#040a38;}.cls-5{fill:#00e29c;}.cls-6{fill:#c9d6d7;}.cls-7{fill:#00496a;}.cls-8{opacity:0.1;mix-blend-mode:hard-light;}.cls-9{fill:#560000;}</style></defs><title>mobile</title><g class="cls-1"><g id="Layer_2" data-name="Layer 2"><g id="Layer_1-2" data-name="Layer 1"><path class="cls-2" d="M0,124.78,12.29,95.25C9.51,86,8.66,77.49,9.44,72.58c.53-3.36,3.18-11.9,3-24.29-.09-5.18-2.51-21.76-.88-23.07s9.78-1.81,13.68,15.2S66.44,87.67,66.44,87.67s-3.21,11.09-20.3,15.53a24.51,24.51,0,0,1-5.41.75L40,124.78Z"/><path class="cls-3" d="M76.73,24.83c2.21,1.79,2.74,4.8,1.19,6.72L70.19,42.18c-1.55,1.92-4.61,2-6.82.23h0c-2.21-1.79-2.74-4.8-1.19-6.72l7.74-10.63c1.55-1.92,4.61-2,6.82-.23Z"/><rect class="cls-4" x="-3.85" y="22.43" width="97.77" height="53.07" rx="4.11" ry="4.11" transform="translate(-4.08 93.83) rotate(-89.8)"/><rect class="cls-5" x="8.24" y="18.46" width="73.62" height="53.07" transform="translate(-0.1 89.89) rotate(-89.8)"/><rect class="cls-4" x="23.3" y="59.14" width="43.51" height="15.05" rx="2.7" ry="2.7"/><path class="cls-3" d="M52.67,4a.55.55,0,0,1-.56.55l-13.43,0A.55.55,0,0,1,38.13,4h0a.55.55,0,0,1,.56-.55l13.43,0a.55.55,0,0,1,.55.56Z"/><circle class="cls-6" cx="44.9" cy="89.83" r="5.28" transform="translate(-45.09 134.42) rotate(-89.8)"/><circle class="cls-3" cx="44.9" cy="89.83" r="5.28" transform="translate(-45.09 134.42) rotate(-89.8)"/><circle class="cls-7" cx="44.9" cy="89.83" r="3.96" transform="translate(-45.09 134.41) rotate(-89.8)"/><circle class="cls-3" cx="43.73" cy="37.63" r="13.33"/><g class="cls-8"><path class="cls-9" d="M63.73,47.79c-2,1.49-2.18,4.53-.47,6.81a5.31,5.31,0,0,0,4.61,2.21l-2.5,1.86c-2,1.49-2.18,4.53-.47,6.81a5.14,5.14,0,0,0,5.38,2.06l-3,2.29c-2,1.49-2.18,4.53-.47,6.81a5.3,5.3,0,0,0,4.65,2.2l.13-36.93Z"/><path class="cls-9" d="M71,25.67l-7.19,5.42c-2,1.49-2.18,4.53-.47,6.81S68,40.8,70,39.32l1.62-1.22,0-12.84A3.92,3.92,0,0,0,71,25.67Z"/></g><path class="cls-2" d="M81.53,39.39c1.71,2.27,1.5,5.32-.47,6.81L69.94,54.5c-2,1.49-5,.85-6.67-1.42h0c-1.71-2.27-1.5-5.32.47-6.81L74.86,38c2-1.49,5-.85,6.67,1.42Z"/><path class="cls-2" d="M83.17,50.27c1.71,2.27,1.5,5.32-.47,6.81L71.57,65.38c-2,1.49-5,.85-6.67-1.42h0c-1.71-2.27-1.5-5.32.47-6.81L76.5,48.84c2-1.49,5-.85,6.67,1.42Z"/><path class="cls-2" d="M82.17,63.45c1.71,2.27,1.5,5.32-.47,6.81l-8.2,6.29c-2,1.49-5,.85-6.67-1.42h0c-1.71-2.27-1.5-5.32.47-6.81L75.5,62c2-1.49,5-.85,6.67,1.42Z"/><path class="cls-2" d="M77.66,25.58c1.71,2.27,1.5,5.32-.47,6.81L70,37.8c-2,1.49-5,.85-6.67-1.42h0c-1.71-2.27-1.5-5.32.47-6.81L71,24.15c2-1.49,5-.85,6.67,1.42Z"/><path class="cls-3" d="M17.81,26.16a14.71,14.71,0,0,1,4.62,9c.64,5.64-3.93,14.33-3.93,14.33l-1.75-14Z"/><path class="cls-2" d="M59.16,124.78h59.28a31.12,31.12,0,0,0-1.78-6.7c-3-6.91-5.26-17.3-9-18.71s-6.43,3.2-6.43,3.2S99,94.93,93,95.87c-4,.62-5.37,7.78-5.37,7.78s-3.37-11.18-9.14-9.43c-2.24.68-3.51,3.11-4.24,5.84L63.76,72a4.51,4.51,0,1,0-8.45,3.16l10.82,37.51a48.49,48.49,0,0,0-5.45-7c-2.62-2.57-6.23-3-8.75-2.84a2.06,2.06,0,0,0-1.77,3C52,109.66,55.67,117.33,59.16,124.78Z"/></g></g></g></svg>