<svg xmlns="http://www.w3.org/2000/svg" viewBox="0 0 45.43 47.42"><defs><style>.cls-1{fill:#040a38;}</style></defs><title>prona_1</title><g id="Layer_2" data-name="Layer 2"><g id="Layer_1-2" data-name="Layer 1"><path class="cls-1" d="M30.44,17.43h0a15,15,0,0,0-15,15v15h9.91v-10H35.51v10h9.92v-15A15,15,0,0,0,30.44,17.43ZM41,31.16H19.36a1.24,1.24,0,1,1,0-2.48H41a1.24,1.24,0,0,1,0,2.48Z"/><path class="cls-1" d="M12.91,42.38H3.19a1.24,1.24,0,0,1,0-2.48H12.9V33.55H3.19a1.24,1.24,0,1,1,0-2.48H12.9a15.9,15.9,0,0,1,1.47-6.35H3.19a1.24,1.24,0,0,1-1.24-1.24h0a1.24,1.24,0,0,1,1.24-1.24H15.81a16,16,0,0,1,9.34-6.35h-22a1.24,1.24,0,0,1-1.24-1.24h0a1.24,1.24,0,0,1,1.24-1.24h24.1a1.24,1.24,0,0,1,1.24,1.24h0a1.23,1.23,0,0,1-.31.82h.66a16.16,16.16,0,0,1,1.64.08V5.2A5.2,5.2,0,0,0,25.32,0H5.2A5.2,5.2,0,0,0,0,5.2V42.14a5.2,5.2,0,0,0,5.2,5.2h7.69ZM3.19,4.57h24.1a1.24,1.24,0,0,1,0,2.48H3.19a1.24,1.24,0,0,1,0-2.48Z"/></g></g></svg>