<?xml version="1.0" encoding="utf-8"?>
<!-- Generator: Adobe Illustrator 21.0.2, SVG Export Plug-In . SVG Version: 6.00 Build 0)  -->
<svg version="1.1" id="Layer_1" xmlns="http://www.w3.org/2000/svg" xmlns:xlink="http://www.w3.org/1999/xlink" x="0px" y="0px"
	 viewBox="0 0 45.4 47.4" style="enable-background:new 0 0 45.4 47.4;" xml:space="preserve">
<style type="text/css">
	.st0{fill:#FFFFFF;}
</style>
<title>prona_1</title>
<path class="st0" d="M30.4,17.4L30.4,17.4c-8.3,0-15,6.7-15,15v15h9.9v-10h10.2v10h9.9v-15C45.4,24.1,38.7,17.4,30.4,17.4z M41,31.2
	H19.4c-0.7,0-1.2-0.6-1.2-1.2s0.6-1.2,1.2-1.2c0,0,0,0,0,0H41c0.7,0,1.2,0.6,1.2,1.2C42.2,30.6,41.7,31.2,41,31.2z"/>
<path class="st0" d="M12.9,42.4H3.2c-0.7,0-1.2-0.6-1.2-1.2c0-0.7,0.6-1.2,1.2-1.2h9.7v-6.4H3.2c-0.7,0-1.2-0.6-1.2-1.2
	c0-0.7,0.6-1.2,1.2-1.2c0,0,0,0,0,0h9.7c0-2.2,0.5-4.4,1.5-6.4H3.2c-0.7,0-1.2-0.6-1.2-1.2l0,0c0-0.7,0.6-1.2,1.2-1.2h12.6
	c2.2-3.2,5.6-5.4,9.3-6.4h-22c-0.7,0-1.2-0.6-1.2-1.2l0,0c0-0.7,0.6-1.2,1.2-1.2h24.1c0.7,0,1.2,0.6,1.2,1.2l0,0
	c0,0.3-0.1,0.6-0.3,0.8h0.7c0.5,0,1.1,0,1.6,0.1V5.2c0-2.9-2.3-5.2-5.2-5.2H5.2C2.3,0,0,2.3,0,5.2c0,0,0,0,0,0v36.9
	c0,2.9,2.3,5.2,5.2,5.2c0,0,0,0,0,0h7.7L12.9,42.4z M3.2,4.6h24.1c0.7,0,1.2,0.6,1.2,1.2c0,0.7-0.6,1.2-1.2,1.2H3.2
	C2.5,7,2,6.5,2,5.8C2,5.1,2.5,4.6,3.2,4.6z"/>
</svg>
