<svg xmlns="http://www.w3.org/2000/svg" viewBox="0 0 44.62 43.71"><defs><style>.cls-1{fill:#040a38;}</style></defs><title>sportive_1</title><g id="Layer_2" data-name="Layer 2"><g id="Layer_1-2" data-name="Layer 1"><path class="cls-1" d="M43.35,36.32,42,35l0,0a4.33,4.33,0,0,0-6.1,0h0a4.33,4.33,0,0,0,0,6.1l0,0-1.37-1.37a4.33,4.33,0,0,1,0-6.12h0a4.33,4.33,0,0,1,6.12,0L30.1,23.07a4.33,4.33,0,0,0-6.12,0h0a4.33,4.33,0,0,0,0,6.12L37.23,42.45a4.33,4.33,0,0,0,6.12,0h0A4.33,4.33,0,0,0,43.35,36.32Z"/><path class="cls-1" d="M21.37,20.46h.19a8.22,8.22,0,0,1,1.87-1.39V17.43H21.37Z"/><path class="cls-1" d="M19.16,25.49a8.25,8.25,0,0,1,.18-1.09V22.47H16.86v3Z"/><rect class="cls-1" x="16.86" y="12.39" width="2.49" height="3.03"/><rect class="cls-1" x="21.36" y="12.39" width="2.07" height="3.03"/><path class="cls-1" d="M34,16.24A17,17,0,1,0,2,25a10.25,10.25,0,0,1,8.05-1.86v-.71H7.92a11.2,11.2,0,0,1-.87-2h3v-3H6.52V17a11.36,11.36,0,0,1,.11-1.6h3.44v-3H7.51a11.24,11.24,0,0,1,1.17-2h1.39V8.78A11.3,11.3,0,0,1,12,7.32a1,1,0,0,1,.09.41v2.62h2.77V6.11a11.22,11.22,0,0,1,2-.35v4.58h2.49V5.84a11.19,11.19,0,0,1,2,.47v4h2.07V7.24a11.3,11.3,0,0,1,2,1.49v1.61h1.43a11.24,11.24,0,0,1,1.17,2h-2.6v3h3.49A11.36,11.36,0,0,1,29,17v.41H25.46v.86a8.22,8.22,0,0,1,7.73,2.18l.45.45A17.12,17.12,0,0,0,34,16.24Z"/><path class="cls-1" d="M18.39,34a17,17,0,0,0,4.18-.87l-1-1a8.19,8.19,0,0,1-2.32-4.6H16.86v.31a10.21,10.21,0,0,1,1.56,5.44C18.42,33.51,18.41,33.75,18.39,34Z"/><rect class="cls-1" x="12.08" y="12.39" width="2.77" height="3.03"/><path class="cls-1" d="M14.85,22.47H12.07v1.31a10.25,10.25,0,0,1,2.77,1.71Z"/><rect class="cls-1" x="12.08" y="17.43" width="2.77" height="3.03"/><rect class="cls-1" x="16.77" y="17.43" width="2.77" height="3.03"/><path class="cls-1" d="M15.68,32.3a7.42,7.42,0,0,0-.13-1.37.38.38,0,0,0-.68-.13,8,8,0,0,1-4.1,3.27.38.38,0,0,0-.24.45A8.31,8.31,0,0,0,12.47,38,.38.38,0,0,0,13,38,7.41,7.41,0,0,0,15.68,32.3Z"/><path class="cls-1" d="M8.14,34.51a8,8,0,0,1-6.56-3.45.38.38,0,0,0-.68.15,7.43,7.43,0,0,0,10,8,.38.38,0,0,0,.15-.6A9.49,9.49,0,0,1,9,34.77a.38.38,0,0,0-.38-.27Z"/><path class="cls-1" d="M10.23,32.31h0a.38.38,0,0,0,.39.37l.1,0a7.45,7.45,0,0,0,4.08-3.51.38.38,0,0,0,0-.35A7.46,7.46,0,0,0,13,26.59a.38.38,0,0,0-.52,0A8.3,8.3,0,0,0,10.23,32.31Z"/><path class="cls-1" d="M11.1,26a.38.38,0,0,0,0-.54l-.1-.06A7.43,7.43,0,0,0,1.7,28.81a.38.38,0,0,0,0,.35,7.42,7.42,0,0,0,6.55,3.93h.05a.38.38,0,0,0,.38-.38v-.35A9.49,9.49,0,0,1,11.1,26Z"/></g></g></svg>