<?xml version="1.0" encoding="utf-8"?>
<!-- Generator: Adobe Illustrator 21.0.2, SVG Export Plug-In . SVG Version: 6.00 Build 0)  -->
<svg version="1.1" id="Layer_1" xmlns="http://www.w3.org/2000/svg" xmlns:xlink="http://www.w3.org/1999/xlink" x="0px" y="0px"
	 viewBox="0 0 44.6 43.7" style="enable-background:new 0 0 44.6 43.7;" xml:space="preserve">
<style type="text/css">
	.st0{fill:#FFFFFF;}
</style>
<title>sportive_1</title>
<path class="st0" d="M43.3,36.3L42,35l0,0c-1.7-1.7-4.4-1.7-6.1,0l0,0c-1.7,1.7-1.7,4.4,0,6.1l0,0l-1.4-1.4c-1.7-1.7-1.7-4.4,0-6.1
	l0,0c1.7-1.7,4.4-1.7,6.1,0L30.1,23.1c-1.7-1.7-4.4-1.7-6.1,0l0,0c-1.7,1.7-1.7,4.4,0,6.1l13.2,13.3c1.7,1.7,4.4,1.7,6.1,0l0,0
	C45,40.8,45,38,43.3,36.3C43.4,36.3,43.4,36.3,43.3,36.3z"/>
<path class="st0" d="M21.4,20.5h0.2c0.6-0.5,1.2-1,1.9-1.4v-1.6h-2.1V20.5z"/>
<path class="st0" d="M19.2,25.5c0-0.4,0.1-0.7,0.2-1.1v-1.9h-2.5v3L19.2,25.5z"/>
<rect x="16.9" y="12.4" class="st0" width="2.5" height="3"/>
<rect x="21.4" y="12.4" class="st0" width="2.1" height="3"/>
<path class="st0" d="M34,16.2C33.6,6.9,25.6-0.4,16.2,0.1S-0.4,8.5,0,17.8c0.1,2.5,0.8,5,2,7.2c2.3-1.7,5.2-2.4,8.1-1.9v-0.7H7.9
	c-0.4-0.6-0.6-1.3-0.9-2h3v-3H6.5V17c0-0.5,0-1.1,0.1-1.6h3.4v-3H7.5c0.3-0.7,0.7-1.4,1.2-2h1.4V8.8c0.6-0.6,1.2-1,1.9-1.5
	c0.1,0.1,0.1,0.3,0.1,0.4v2.6h2.8V6.1c0.7-0.2,1.3-0.3,2-0.3v4.6h2.5V5.8c0.7,0.1,1.3,0.3,2,0.5v4h2.1V7.2c0.7,0.4,1.4,0.9,2,1.5
	v1.6h1.4c0.5,0.6,0.8,1.3,1.2,2h-2.6v3h3.5C29,15.9,29,16.4,29,17v0.4h-3.5v0.9c2.8-0.7,5.7,0.2,7.7,2.2l0.5,0.5
	C34,19.4,34.1,17.8,34,16.2z"/>
<path class="st0" d="M18.4,34c1.4-0.1,2.8-0.4,4.2-0.9l-1-1c-1.2-1.2-2.1-2.9-2.3-4.6h-2.4v0.3c1,1.6,1.6,3.5,1.6,5.4
	C18.4,33.5,18.4,33.8,18.4,34z"/>
<rect x="12.1" y="12.4" class="st0" width="2.8" height="3"/>
<path class="st0" d="M14.9,22.5h-2.8v1.3c1,0.4,1.9,1,2.8,1.7L14.9,22.5z"/>
<rect x="12.1" y="17.4" class="st0" width="2.8" height="3"/>
<rect x="16.8" y="17.4" class="st0" width="2.8" height="3"/>
<path class="st0" d="M15.7,32.3c0-0.5,0-0.9-0.1-1.4c0-0.2-0.3-0.3-0.5-0.3c-0.1,0-0.2,0.1-0.2,0.2c-1,1.5-2.4,2.7-4.1,3.3
	c-0.2,0.1-0.3,0.3-0.2,0.5c0.4,1.3,1,2.5,1.9,3.5c0.1,0.1,0.4,0.1,0.5,0C14.7,36.6,15.7,34.5,15.7,32.3z"/>
<path class="st0" d="M8.1,34.5c-2.6,0-5.1-1.3-6.6-3.5C1.5,30.9,1.2,30.9,1,31C1,31,0.9,31.1,0.9,31.2c-0.6,4.1,2.2,7.8,6.3,8.4
	c1.2,0.2,2.5,0,3.7-0.4c0.2-0.1,0.3-0.3,0.2-0.5c0,0,0-0.1-0.1-0.1c-1-1.1-1.7-2.4-2.1-3.8c-0.1-0.2-0.2-0.3-0.4-0.3L8.1,34.5z"/>
<path class="st0" d="M10.2,32.3L10.2,32.3c0,0.2,0.2,0.4,0.4,0.4c0,0,0,0,0,0h0.1c1.7-0.6,3.2-1.9,4.1-3.5c0.1-0.1,0.1-0.2,0-0.4
	c-0.5-0.9-1.1-1.6-1.8-2.2c-0.1-0.1-0.4-0.1-0.5,0C11,28.1,10.2,30.2,10.2,32.3z"/>
<path class="st0" d="M11.1,26c0.1-0.1,0.2-0.4,0-0.5c0,0,0,0,0,0L11,25.4c-3.5-1.4-7.5,0.1-9.3,3.4c-0.1,0.1-0.1,0.2,0,0.4
	c1.3,2.4,3.8,3.9,6.6,3.9h0.1c0.2,0,0.4-0.2,0.4-0.4l0,0v-0.3C8.7,30,9.5,27.7,11.1,26z"/>
</svg>
