<svg xmlns="http://www.w3.org/2000/svg" viewBox="0 0 30.41 30.06"><defs><style>.cls-1{fill:#fff;}</style></defs><title>user</title><g id="Layer_2" data-name="Layer 2"><g id="Layer_1-2" data-name="Layer 1"><g id="f5dh94.tif"><path class="cls-1" d="M15.21,30.06H1.42a1.46,1.46,0,0,1-1.07-.33,1.07,1.07,0,0,1-.34-1,15.79,15.79,0,0,1,1.19-4.2A15.48,15.48,0,0,1,7.9,17.3a.27.27,0,0,1,.39,0A9.8,9.8,0,0,0,12,19.61a9.92,9.92,0,0,0,4.5.42,9.54,9.54,0,0,0,4.09-1.52,17,17,0,0,0,1.46-1.15.31.31,0,0,1,.43,0,15.41,15.41,0,0,1,6.91,7.81,15.1,15.1,0,0,1,1,3.68,1.12,1.12,0,0,1-1,1.24,4,4,0,0,1-.5,0Z"/><path class="cls-1" d="M15.65,15.53a7.77,7.77,0,1,1,7.76-7.76A7.8,7.8,0,0,1,15.65,15.53Z"/></g></g></g></svg>