<svg xmlns="http://www.w3.org/2000/svg" viewBox="0 0 45.76 46.95"><defs><style>.cls-1{fill:#040a38;}</style></defs><title>veglapune_1</title><g id="Layer_2" data-name="Layer 2"><g id="Layer_1-2" data-name="Layer 1"><path class="cls-1" d="M14.65,38,36.86,15.83A6.56,6.56,0,0,0,45.76,10a1.26,1.26,0,0,0-2.16-.95l-1.26,1.26a2.66,2.66,0,0,1-3.76,0l0,0h0a2.66,2.66,0,0,1,0-3.76l0,0L39.81,5.3a1.26,1.26,0,0,0-.95-2.16A6.56,6.56,0,0,0,33.07,12L10.87,34.25A6.56,6.56,0,0,0,2,40,1.26,1.26,0,0,0,4.13,41l1.26-1.26a2.66,2.66,0,0,1,3.76,0l0,0h0a2.66,2.66,0,0,1,0,3.76l0,0L7.92,44.78a1.26,1.26,0,0,0,.95,2.16A6.56,6.56,0,0,0,14.65,38Z"/><path class="cls-1" d="M16.38,8.89a8,8,0,0,0-.13,15.92l8.09-8.09A8,8,0,0,0,16.38,8.89Z"/><path class="cls-1" d="M8.42,16.85a8,8,0,0,1,15.92-.13l6.36-6.36-1.08-4A4,4,0,0,0,26.8,3.5L14.23.14a4,4,0,0,0-3.85,1l-9.2,9.2a4,4,0,0,0-1,3.85L3.5,26.8a4,4,0,0,0,2.82,2.82l4,1.08,5.88-5.88A8,8,0,0,1,8.42,16.85Z"/><path class="cls-1" d="M25.33,32.75h4.46a3,3,0,0,0,3-3V25.41a1,1,0,0,0-1.74-.74L24.6,30.92a1.06,1.06,0,0,0,.73,1.84Z"/></g></g></svg>