<?xml version="1.0" encoding="utf-8"?>
<!-- Generator: Adobe Illustrator 21.0.2, SVG Export Plug-In . SVG Version: 6.00 Build 0)  -->
<svg version="1.1" id="Layer_1" xmlns="http://www.w3.org/2000/svg" xmlns:xlink="http://www.w3.org/1999/xlink" x="0px" y="0px"
	 viewBox="0 0 45.8 47" style="enable-background:new 0 0 45.8 47;" xml:space="preserve">
<style type="text/css">
	.st0{fill:#FFFFFF;}
</style>
<title>veglapune_1</title>
<g id="Layer_2">
	<g id="Layer_1-2">
		<path class="st0" d="M14.6,38l22.2-22.2c3.4,1.3,7.2-0.4,8.5-3.8c0.3-0.7,0.4-1.3,0.4-2.1c0-0.7-0.5-1.3-1.2-1.3
			c-0.4,0-0.7,0.1-1,0.4l-1.3,1.3c-1,1-2.7,1-3.8,0l0,0l0,0c-1-1-1-2.7,0-3.8l0,0l1.2-1.2c0.5-0.5,0.5-1.3,0-1.8
			c-0.3-0.3-0.6-0.4-1-0.4c-3.6,0.2-6.4,3.3-6.2,6.9c0,0.7,0.2,1.3,0.4,2L10.9,34.2c-3.4-1.3-7.2,0.4-8.5,3.8C2.2,38.7,2,39.3,2,40
			c-0.1,0.7,0.5,1.3,1.2,1.3c0.4,0,0.7-0.1,1-0.3l1.3-1.3c1-1,2.7-1,3.8,0l0,0l0,0c1,1,1,2.7,0,3.8l0,0l-1.2,1.3
			c-0.5,0.5-0.5,1.3,0,1.8c0.3,0.3,0.6,0.4,1,0.4c3.6-0.2,6.4-3.3,6.2-6.9C15.1,39.4,14.9,38.7,14.6,38z"/>
		<path class="st0" d="M16.4,8.9c-4.4,0.4-7.6,4.3-7.2,8.7c0.3,3.8,3.3,6.8,7.1,7.2l8.1-8.1C24.2,12.4,20.7,8.9,16.4,8.9z"/>
		<path class="st0" d="M8.4,16.9c0.4-4.4,4.3-7.6,8.7-7.2c3.8,0.3,6.8,3.3,7.2,7.1l6.4-6.4l-1.1-4c-0.4-1.4-1.4-2.5-2.8-2.9
			L14.2,0.1c-1.4-0.4-2.8,0-3.9,1l-9.2,9.2c-1,1-1.4,2.5-1,3.9l3.3,12.6c0.4,1.4,1.4,2.4,2.8,2.8l4,1.1l5.9-5.9
			C11.9,24.7,8.4,21.2,8.4,16.9z"/>
		<path class="st0" d="M25.3,32.8h4.5c1.7,0,3-1.3,3-3v-4.3c0-0.6-0.4-1-0.9-1.1c-0.3,0-0.6,0.1-0.8,0.3l-6.5,6.2
			c-0.4,0.4-0.5,1.1-0.1,1.5C24.7,32.6,25,32.8,25.3,32.8L25.3,32.8z"/>
	</g>
</g>
</svg>
