<svg xmlns="http://www.w3.org/2000/svg" viewBox="0 0 40.4 43.27"><defs><style>.cls-1{fill:#040a38;}</style></defs><title>vendepune_1</title><g id="Layer_2" data-name="Layer 2"><g id="Layer_1-2" data-name="Layer 1"><path class="cls-1" d="M17,0h6.49a.4.4,0,0,1,.4.4h0V7.84a3.65,3.65,0,0,1-3.65,3.65h0a3.65,3.65,0,0,1-3.65-3.65h0V.4A.4.4,0,0,1,17,0h0Z"/><path class="cls-1" d="M34.25,2.87H25.93v5a5.76,5.76,0,0,1-5.76,5.76h0a5.76,5.76,0,0,1-5.78-5.74V2.87H6.17A6.17,6.17,0,0,0,0,9H0V37.1a6.17,6.17,0,0,0,6.17,6.17H34.23A6.17,6.17,0,0,0,40.4,37.1h0V9A6.17,6.17,0,0,0,34.25,2.87ZM29.08,17.55a4.6,4.6,0,1,1-4.6,4.6,4.6,4.6,0,0,1,4.6-4.6h0Zm-25.8-5A1.07,1.07,0,0,1,4.35,11.5H8.53a1.07,1.07,0,0,1,1.07,1.07h0v4.18a1.07,1.07,0,0,1-1.07,1.07H4.35a1.07,1.07,0,0,1-1.07-1.07h0Zm.32,7.79H17.67a1,1,0,0,1,0,1.95H3.6a1,1,0,0,1,0-1.95Zm0,4.79H17.67a1,1,0,0,1,0,1.95H3.6a1,1,0,0,1,0-1.95Zm0,4.79H17.67a1,1,0,0,1,0,1.95H3.6a1,1,0,0,1,0-1.95ZM34.8,36.68H3.6a1,1,0,0,1,0-1.95H34.8a1,1,0,0,1,0,1.95ZM36.45,32H21.53V28.42A2.09,2.09,0,0,1,25.13,27a5.39,5.39,0,0,0,7.62,0l.11-.11a2.08,2.08,0,0,1,3.6,1.33V32Z"/></g></g></svg>