<?xml version="1.0" encoding="utf-8"?>
<!-- Generator: Adobe Illustrator 21.0.2, SVG Export Plug-In . SVG Version: 6.00 Build 0)  -->
<svg version="1.1" id="Layer_1" xmlns="http://www.w3.org/2000/svg" xmlns:xlink="http://www.w3.org/1999/xlink" x="0px" y="0px"
	 viewBox="0 0 40.4 43.3" style="enable-background:new 0 0 40.4 43.3;" xml:space="preserve">
<style type="text/css">
	.st0{fill:#FFFFFF;}
</style>
<title>vendepune_1</title>
<path class="st0" d="M17,0h6.5c0.2,0,0.4,0.2,0.4,0.4l0,0v7.4c0,2-1.6,3.6-3.6,3.6l0,0c-2,0-3.6-1.6-3.6-3.7l0,0V0.4
	C16.6,0.2,16.8,0,17,0C17,0,17,0,17,0L17,0z"/>
<path class="st0" d="M34.2,2.9h-8.3v5c0,3.2-2.6,5.8-5.8,5.8l0,0l0,0c-3.2,0-5.8-2.6-5.8-5.7c0,0,0,0,0,0v-5H6.2C2.8,2.9,0,5.6,0,9
	l0,0v28.1c0,3.4,2.8,6.2,6.2,6.2h28.1c3.4,0,6.2-2.8,6.2-6.2l0,0V9C40.4,5.6,37.6,2.9,34.2,2.9z M29.1,17.5c2.5,0,4.6,2.1,4.6,4.6
	s-2.1,4.6-4.6,4.6s-4.6-2.1-4.6-4.6S26.5,17.5,29.1,17.5L29.1,17.5L29.1,17.5z M3.3,12.5c0-0.6,0.5-1.1,1.1-1h4.2
	c0.6,0,1.1,0.5,1.1,1.1l0,0v4.2c0,0.6-0.5,1.1-1.1,1.1H4.3c-0.6,0-1.1-0.5-1.1-1.1l0,0L3.3,12.5z M3.6,20.3h14.1
	c0.5,0.1,0.9,0.7,0.8,1.2c-0.1,0.4-0.4,0.7-0.8,0.8H3.6c-0.5-0.1-0.9-0.7-0.8-1.2C2.9,20.7,3.2,20.4,3.6,20.3z M3.6,25.1h14.1
	c0.5,0.1,0.9,0.7,0.8,1.2c-0.1,0.4-0.4,0.7-0.8,0.8H3.6c-0.5-0.1-0.9-0.7-0.8-1.2C2.9,25.5,3.2,25.2,3.6,25.1z M3.6,29.9h14.1
	c0.5,0.1,0.9,0.7,0.8,1.2c-0.1,0.4-0.4,0.7-0.8,0.8H3.6c-0.5-0.1-0.9-0.7-0.8-1.2C2.9,30.3,3.2,30,3.6,29.9z M34.8,36.7H3.6
	c-0.5-0.1-0.9-0.7-0.8-1.2c0.1-0.4,0.4-0.7,0.8-0.8h31.2c0.5,0.1,0.9,0.7,0.8,1.2C35.5,36.3,35.2,36.6,34.8,36.7z M36.5,32H21.5
	v-3.6c0-1.2,1-2.1,2.1-2.1c0.6,0,1.1,0.2,1.5,0.6c2.1,2.1,5.5,2.1,7.6,0l0.1-0.1c0.8-0.8,2.1-0.9,2.9-0.1c0.4,0.4,0.6,0.9,0.7,1.4
	L36.5,32L36.5,32z"/>
</svg>
